<svg width="60" height="60" viewBox="0 0 60 60" fill="none" xmlns="http://www.w3.org/2000/svg">
<path d="M35 33H16.95C16.3977 33 15.95 33.4477 15.95 34V51.79C15.95 52.3423 16.3977 52.79 16.95 52.79H35C35.5522 52.79 36 52.3423 36 51.79V34C36 33.4477 35.5522 33 35 33Z" fill="#00B67A"/>
<path d="M26.2899 11.46H17.4099C16.8576 11.46 16.4099 11.9077 16.4099 12.46V16.4C16.4099 16.9522 16.8576 17.4 17.4099 17.4H26.2899C26.8422 17.4 27.2899 16.9522 27.2899 16.4V12.46C27.2899 11.9077 26.8422 11.46 26.2899 11.46Z" fill="#00B67A"/>
<path d="M29.2599 9.97021H14.4399C13.8877 9.97021 13.4399 10.4179 13.4399 10.9702V17.8702C13.4399 18.4225 13.8877 18.8702 14.4399 18.8702H29.2599C29.8122 18.8702 30.2599 18.4225 30.2599 17.8702V10.9702C30.2599 10.4179 29.8122 9.97021 29.2599 9.97021Z" stroke="#4A4A55" stroke-width="3" stroke-miterlimit="10" stroke-linecap="round"/>
<path d="M31.2499 53.4998H14.4299C14.1647 53.4998 13.9104 53.3944 13.7228 53.2069C13.5353 53.0193 13.4299 52.765 13.4299 52.4998V29.7598C13.4299 29.4945 13.5353 29.2402 13.7228 29.0527C13.9104 28.8651 14.1647 28.7598 14.4299 28.7598H39.1599C39.4251 28.7598 39.6795 28.8651 39.867 29.0527C40.0546 29.2402 40.1599 29.4945 40.1599 29.7598V38.8898" stroke="#4A4A55" stroke-width="3" stroke-miterlimit="10" stroke-linecap="round"/>
<path d="M32.24 53.5H11C10.2044 53.5 9.44129 53.1839 8.87868 52.6213C8.31607 52.0587 8 51.2956 8 50.5V13C8 12.2044 8.31607 11.4413 8.87868 10.8787C9.44129 10.3161 10.2044 10 11 10H34C34.4065 10.0015 34.8085 10.0856 35.1815 10.2472C35.5546 10.4087 35.8909 10.6445 36.17 10.94L44.82 20.11C45.3287 20.6531 45.6174 21.3659 45.63 22.11V39" stroke="#4A4A55" stroke-width="3" stroke-miterlimit="10" stroke-linecap="round"/>
<path d="M25.3101 15.9102C25.8568 15.9102 26.3001 15.4669 26.3001 14.9202C26.3001 14.3734 25.8568 13.9302 25.3101 13.9302C24.7633 13.9302 24.3201 14.3734 24.3201 14.9202C24.3201 15.4669 24.7633 15.9102 25.3101 15.9102Z" fill="#4A4A55"/>
<path d="M14.4299 35.77H27.9299" stroke="#4A4A55" stroke-width="3" stroke-miterlimit="10" stroke-linecap="round"/>
<path d="M14.4299 41.71H30.4699" stroke="#4A4A55" stroke-width="3" stroke-miterlimit="10" stroke-linecap="round"/>
<path d="M48.0599 53.3402H37.1799C36.9147 53.3402 36.6604 53.2348 36.4728 53.0473C36.2853 52.8597 36.1799 52.6054 36.1799 52.3402V46.4102" stroke="#4A4A55" stroke-width="3" stroke-miterlimit="10" stroke-linecap="round"/>
<path d="M38.2899 47.0199L36.1899 44.9199" stroke="#4A4A55" stroke-width="3" stroke-miterlimit="10" stroke-linecap="round"/>
<path d="M34.1001 47.0199L36.1901 44.9199" stroke="#4A4A55" stroke-width="3" stroke-miterlimit="10" stroke-linecap="round"/>
<path d="M40 42.9399H50.91C51.1752 42.9399 51.4296 43.0453 51.6171 43.2328C51.8046 43.4204 51.91 43.6747 51.91 43.9399V49.8799" stroke="#4A4A55" stroke-width="3" stroke-miterlimit="10" stroke-linecap="round"/>
<path d="M49.8 49.2598L51.9001 51.3598" stroke="#4A4A55" stroke-width="3" stroke-miterlimit="10" stroke-linecap="round"/>
<path d="M53.9999 49.2598L51.8999 51.3598" stroke="#4A4A55" stroke-width="3" stroke-miterlimit="10" stroke-linecap="round"/>
</svg>
