<svg width="50" height="66" viewBox="0 0 50 66" fill="none" xmlns="http://www.w3.org/2000/svg">
<path fill-rule="evenodd" clip-rule="evenodd" d="M27.1715 16.7932L32.4359 22.0576L27.1715 27.322V16.7932ZM27.1715 49.2068L32.4359 43.9424L27.1715 38.678V49.2068ZM21.5311 33.0376L10.0999 21.5311L13.4089 18.2221L22.5088 27.322V5.51234L39.054 22.0576L28.1492 33.0376L39.1292 44.0176L22.584 60.5628V38.678L13.4089 47.7779L10.0999 44.4688L21.5311 33.0376ZM24.6146 65C38.6028 65 48.2291 58.3819 48.2291 32.9624C48.2291 7.61809 38.6028 1 24.6146 1C10.6263 1 1 7.61809 1 33.0376C1 58.3819 10.6263 65 24.6146 65Z" stroke="#197FE3" stroke-width="2"/>
</svg>
