<svg width="78" height="78" viewBox="0 0 78 78" fill="none" xmlns="http://www.w3.org/2000/svg">
<path d="M24.18 15.288V7.80005M31.512 15.288V7.80005M39 15.288V7.80005M46.488 15.288V7.80005M53.82 15.288V7.80005M24.18 70.2V62.712M31.512 70.2V62.712M39 70.2V62.712M46.488 70.2V62.712M53.82 70.2V62.712M62.712 24.18H70.2M62.712 31.512H70.2M62.712 39H70.2M62.712 46.488H70.2M62.712 53.82H70.2M7.80005 24.18H15.288M7.80005 31.512H15.288M7.80005 39H15.288M7.80005 46.488H15.288M7.80005 53.82H15.288" stroke="#197FE3" stroke-width="3" stroke-linecap="round"/>
<path d="M59.1241 15.2881H19.0321C16.9643 15.2881 15.2881 16.9643 15.2881 19.0321V59.1241C15.2881 61.1918 16.9643 62.8681 19.0321 62.8681H59.1241C61.1918 62.8681 62.8681 61.1918 62.8681 59.1241V19.0321C62.8681 16.9643 61.1918 15.2881 59.1241 15.2881Z" stroke="#197FE3" stroke-width="2"/>
<path d="M24.1799 53.8201H38.9999M24.1799 48.6721H46.4879" stroke="#197FE3" stroke-width="2" stroke-linecap="round"/>
</svg>
