<svg width="60" height="60" viewBox="0 0 60 60" fill="none" xmlns="http://www.w3.org/2000/svg">
<path d="M26.5399 24.3298C31.041 24.3298 34.6899 20.6809 34.6899 16.1798C34.6899 11.6787 31.041 8.02979 26.5399 8.02979C22.0388 8.02979 18.3899 11.6787 18.3899 16.1798C18.3899 20.6809 22.0388 24.3298 26.5399 24.3298Z" fill="#00B67A"/>
<path d="M49.3 45.1401V51.9101C49.3 53.6101 48.1901 55.0001 46.8101 55.0001H25.05" stroke="#4A4A55" stroke-width="3" stroke-miterlimit="10" stroke-linecap="round"/>
<path d="M29.74 31.3901H46.81C48.19 31.3901 49.3 32.7801 49.3 34.4901V39.4201" stroke="#4A4A55" stroke-width="3" stroke-miterlimit="10" stroke-linecap="round"/>
<path d="M23.11 41.47V17.72C23.0693 16.8356 23.3813 15.9712 23.9776 15.3168C24.5739 14.6624 25.4056 14.2715 26.29 14.23C27.1734 14.274 28.0036 14.6657 28.5993 15.3195C29.1951 15.9734 29.508 16.8363 29.47 17.72V31.37" stroke="#4A4A55" stroke-width="3" stroke-miterlimit="10" stroke-linecap="round"/>
<path d="M24.9399 55.0002L12.3299 37.6402C11.7798 36.9463 11.5258 36.0633 11.6232 35.1832C11.7205 34.3031 12.1614 33.497 12.8499 32.9402C13.2188 32.7022 13.631 32.5392 14.063 32.4606C14.4949 32.3821 14.9381 32.3895 15.3672 32.4823C15.7963 32.5752 16.2029 32.7518 16.5637 33.0019C16.9245 33.2521 17.2324 33.5709 17.4699 33.9402L23.1099 41.7002" stroke="#4A4A55" stroke-width="3" stroke-miterlimit="10" stroke-linecap="round"/>
<path d="M19.5599 25.4602C17.6787 24.0008 16.3006 21.9898 15.6185 19.7087C14.9364 17.4275 14.9844 14.9902 15.7557 12.7376C16.527 10.485 17.9831 8.52986 19.9203 7.14557C21.8575 5.76128 24.1789 5.01709 26.5599 5.01709C28.9409 5.01709 31.2623 5.76128 33.1995 7.14557C35.1367 8.52986 36.5928 10.485 37.3641 12.7376C38.1354 14.9902 38.1833 17.4275 37.5012 19.7087C36.8192 21.9898 35.4411 24.0008 33.5599 25.4602" stroke="#4A4A55" stroke-width="3" stroke-miterlimit="10" stroke-linecap="round"/>
<path d="M44.4999 34.7798H33.1799C32.6276 34.7798 32.1799 35.2275 32.1799 35.7798V49.0098C32.1799 49.5621 32.6276 50.0098 33.1799 50.0098H44.4999C45.0522 50.0098 45.4999 49.5621 45.4999 49.0098V35.7798C45.4999 35.2275 45.0522 34.7798 44.4999 34.7798Z" fill="#00B67A"/>
</svg>
