<svg width="64" height="64" viewBox="0 0 64 64" fill="none" xmlns="http://www.w3.org/2000/svg">
<path d="M31.9881 3.67993C16.3626 3.67993 3.66677 16.3758 3.66675 32.0012C3.66674 47.6268 16.3625 60.3201 31.9881 60.3201C47.4315 60.3201 60.336 47.8893 60.3334 31.9988C60.331 16.1084 47.4283 3.67993 31.9881 3.67993ZM31.9881 6.14248C46.2827 6.14248 57.8444 17.7066 57.8445 32.0012C57.8445 46.2959 46.2827 57.8576 31.9881 57.8576C17.6934 57.8576 6.12926 46.2959 6.12926 32.0012C6.12929 17.7066 17.6934 6.14248 31.9881 6.14248ZM42.2517 11.9572C42.2116 11.9561 42.1715 11.957 42.1314 11.9598C41.865 11.9815 41.6129 12.0893 41.4132 12.2669C41.2134 12.4445 41.0769 12.6823 41.0242 12.9443C40.9715 13.2064 41.0055 13.4785 41.1211 13.7195C41.2367 13.9606 41.4276 14.1573 41.6649 14.2803C44.5947 15.8834 47.0793 18.1962 48.8985 20.9825C48.9864 21.1197 49.1005 21.2381 49.2344 21.3308C49.3682 21.4236 49.5191 21.489 49.6784 21.5231C49.8376 21.5572 50.002 21.5594 50.1621 21.5296C50.3223 21.4998 50.4749 21.4385 50.6112 21.3494C50.7475 21.2603 50.8648 21.1451 50.9563 21.0104C51.0478 20.8757 51.1117 20.7241 51.1443 20.5645C51.1769 20.4049 51.1776 20.2406 51.1463 20.0808C51.115 19.9209 51.0523 19.7689 50.9619 19.6335C48.921 16.5076 46.1313 13.9223 42.8433 12.1232C42.6632 12.0188 42.4598 11.9617 42.2517 11.9572ZM39.5872 16.5768C39.5479 16.5762 39.5086 16.5774 39.4694 16.5806C39.2045 16.6048 38.9546 16.7142 38.757 16.8924C38.5594 17.0705 38.4249 17.3077 38.3734 17.5687C38.322 17.8297 38.3565 18.1004 38.4717 18.3401C38.5869 18.5799 38.7766 18.7759 39.0125 18.8989C41.5673 20.2727 43.6759 22.3756 45.0581 24.9252C45.1322 25.0722 45.235 25.203 45.3604 25.3096C45.4859 25.4162 45.6314 25.4965 45.7884 25.5459C45.9454 25.5953 46.1108 25.6126 46.2746 25.597C46.4385 25.5814 46.5976 25.5332 46.7424 25.455C46.8873 25.3769 47.0151 25.2704 47.1181 25.1421C47.2211 25.0137 47.2974 24.866 47.3424 24.7077C47.3874 24.5494 47.4001 24.3835 47.38 24.2202C47.3598 24.0568 47.307 23.8992 47.2249 23.7566C45.613 20.7834 43.1606 18.3342 40.1812 16.7322C39.9996 16.6307 39.7953 16.5779 39.5872 16.5768ZM24.2494 16.6275C24.0557 16.6338 23.8662 16.6857 23.6963 16.7791C20.7777 18.3723 18.3725 20.7825 16.7777 23.7001C16.6996 23.8424 16.6503 23.9987 16.6327 24.1601C16.6151 24.3215 16.6295 24.4848 16.6751 24.6406C16.7208 24.7964 16.7967 24.9416 16.8986 25.068C17.0005 25.1944 17.1263 25.2995 17.2688 25.3771C17.4114 25.4548 17.5679 25.5037 17.7293 25.5208C17.8908 25.5378 18.054 25.5229 18.2097 25.4768C18.3653 25.4307 18.5104 25.3543 18.6365 25.252C18.7625 25.1497 18.8672 25.0235 18.9444 24.8807C20.3121 22.3787 22.3742 20.3145 24.8771 18.9482C25.125 18.8181 25.3212 18.6072 25.4333 18.3505C25.5453 18.0939 25.5666 17.8067 25.4934 17.5363C25.4203 17.266 25.2572 17.0287 25.0311 16.8635C24.8049 16.6983 24.5292 16.6149 24.2494 16.6275ZM31.8101 21.0403C25.9508 21.0403 21.0366 25.9656 21.0366 32.0014C21.0366 38.037 25.9523 42.9529 31.9881 42.9529C37.6786 42.9529 43.1203 38.4433 43.1103 31.9965C43.1004 25.5497 37.6694 21.0403 31.8101 21.0403ZM31.9881 23.5004C36.6929 23.5004 40.4866 27.2965 40.4866 32.0014C40.4866 36.7062 36.6929 40.4903 31.9881 40.4903C27.2832 40.4903 23.4967 36.7062 23.4967 32.0014C23.4967 27.2965 27.2832 23.5004 31.9881 23.5004ZM31.9881 27.2952C29.4047 27.2952 27.2819 29.418 27.2819 32.0014C27.2818 34.5847 29.4047 36.7051 31.9881 36.7051C34.2268 36.7051 36.6082 34.9155 36.6053 31.9196C36.6028 28.9237 34.2213 27.2952 31.9881 27.2952ZM31.9881 29.7577C33.2406 29.7577 34.2317 30.7489 34.2317 32.0014C34.2317 33.2539 33.2406 34.2451 31.9881 34.2451C30.7355 34.2451 29.7444 33.2539 29.7444 32.0014C29.7444 30.7489 30.7355 29.7577 31.9881 29.7577ZM17.7949 38.3597C17.5798 38.3594 17.3684 38.4155 17.1817 38.5223C16.995 38.6292 16.8396 38.783 16.7309 38.9686C16.6221 39.1542 16.5639 39.365 16.562 39.5801C16.5601 39.7952 16.6146 40.0071 16.72 40.1946C18.2952 43.1241 20.6869 45.5415 23.5929 47.154C23.7344 47.2437 23.8927 47.3036 24.0582 47.33C24.2236 47.3564 24.3927 47.3488 24.5551 47.3076C24.7175 47.2664 24.8698 47.1924 25.0027 47.0903C25.1355 46.9882 25.2461 46.8601 25.3277 46.7138C25.4093 46.5675 25.4602 46.406 25.4773 46.2393C25.4943 46.0726 25.4772 45.9042 25.4269 45.7444C25.3766 45.5845 25.2942 45.4367 25.1848 45.3099C25.0754 45.183 24.9412 45.0798 24.7905 45.0065C22.2984 43.6236 20.2471 41.5379 18.8963 39.0258C18.7921 38.824 18.634 38.6549 18.4396 38.5373C18.2452 38.4198 18.0221 38.3583 17.7949 38.3597ZM46.1042 38.456C45.8842 38.4603 45.6693 38.5234 45.4819 38.6388C45.2946 38.7543 45.1416 38.9179 45.0389 39.1125C43.6726 41.612 41.6057 43.6766 39.1063 45.0429C38.9632 45.12 38.8367 45.2245 38.7341 45.3507C38.6315 45.4768 38.5549 45.6221 38.5086 45.7779C38.4622 45.9338 38.4472 46.0972 38.4642 46.2589C38.4812 46.4206 38.5299 46.5774 38.6077 46.7202C38.6854 46.863 38.7906 46.9889 38.9171 47.091C39.0437 47.193 39.1892 47.2692 39.3452 47.3149C39.5012 47.3605 39.6647 47.375 39.8264 47.3573C39.988 47.3396 40.1445 47.2902 40.287 47.2119C43.2016 45.6187 45.6052 43.2152 47.1984 40.3006C47.3071 40.1114 47.3635 39.8967 47.362 39.6785C47.3605 39.4604 47.301 39.2465 47.1897 39.0589C47.0784 38.8713 46.9193 38.7165 46.7285 38.6106C46.5378 38.5046 46.3223 38.4513 46.1042 38.456ZM13.9905 42.3639C13.7659 42.3612 13.5448 42.4199 13.3512 42.5338C13.1576 42.6477 12.9988 42.8123 12.8921 43.0099C12.7853 43.2076 12.7347 43.4307 12.7456 43.6551C12.7565 43.8794 12.8286 44.0965 12.9541 44.2829C14.9785 47.4142 17.7539 50.0087 21.027 51.822C21.3122 51.9705 21.6442 52.0017 21.9522 51.9092C22.2601 51.8166 22.5198 51.6075 22.6759 51.3263C22.832 51.0452 22.8722 50.7142 22.7879 50.4038C22.7036 50.0935 22.5015 49.8284 22.2246 49.6648C19.308 48.0491 16.8315 45.7346 15.027 42.9434C14.9171 42.7673 14.7645 42.6218 14.5833 42.5204C14.402 42.4191 14.1982 42.3653 13.9905 42.3639Z" fill="#197FE3"/>
</svg>
