<svg width="300" height="247" viewBox="0 0 300 247" fill="none" xmlns="http://www.w3.org/2000/svg">
<g opacity="0.1" filter="url(#filter0_f_40_324)">
<path d="M144.926 152.697C140.864 152.7 136.873 151.576 133.354 149.439L92.7156 124.711C89.2003 122.561 86.2817 119.477 84.2511 115.766C82.2206 112.055 81.149 107.848 81.1436 103.564V54.1213C81.151 49.8396 82.2235 45.6348 84.254 41.9263C86.2845 38.2178 89.202 35.1352 92.7156 32.9861L133.354 8.25864C136.876 6.12362 140.868 5 144.931 5C148.995 5 152.987 6.12362 156.509 8.25864L197.147 32.9741C200.662 35.1256 203.581 38.21 205.613 41.9203C207.646 45.6305 208.72 49.8372 208.73 54.1213V103.564C208.725 107.848 207.653 112.055 205.623 115.766C203.592 119.477 200.674 122.561 197.158 124.711L156.52 149.439C152.994 151.58 148.995 152.704 144.926 152.697ZM144.926 20.1569C143.391 20.1457 141.881 20.5571 140.544 21.3503L99.917 46.1135C98.5787 46.9223 97.4661 48.0881 96.6909 49.4938C95.9158 50.8995 95.5054 52.4955 95.501 54.1213V103.564C95.5022 105.188 95.9075 106.783 96.6764 108.191C97.4453 109.598 98.551 110.768 99.883 111.584L140.51 136.299C141.844 137.109 143.357 137.535 144.897 137.535C146.437 137.535 147.95 137.109 149.285 136.299L189.912 111.572C191.244 110.76 192.351 109.592 193.12 108.186C193.889 106.781 194.294 105.187 194.294 103.564V54.1213C194.293 52.499 193.887 50.9053 193.118 49.5C192.349 48.0946 191.244 46.9268 189.912 46.1135L149.319 21.3981C147.983 20.5867 146.468 20.1587 144.926 20.1569Z" fill="url(#paint0_linear_40_324)"/>
<path d="M152.671 12.5906H138.28V150.549H152.671V12.5906Z" fill="url(#paint1_linear_40_324)"/>
<path d="M200.85 71.1157L145.583 66.0795V49.2524L202.016 62.4993L200.85 71.1157Z" fill="url(#paint2_linear_40_324)"/>
<path d="M147.768 110.928L143.839 95.1866L197.906 84.9114L198.008 94.0052L147.768 110.928Z" fill="url(#paint3_linear_40_324)"/>
<path d="M18.0978 191.638C21.4529 191.719 24.7622 192.476 27.8469 193.869L30.4738 176.589H37.1317L29.8963 224.6H24.5292L23.7027 221.198C21.7098 222.666 17.2826 224.97 13.512 224.97C5.81245 224.97 4.03475 216.341 5.43879 207.653C6.86548 198.786 9.44711 191.638 18.0978 191.638ZM15.4483 218.668C18.5968 218.655 21.6987 217.866 24.5066 216.365L27.1222 198.906C24.3483 197.922 21.4308 197.466 18.5055 197.557C15.6747 197.557 13.58 199.407 12.1873 208.298C11.0889 215.566 12.3345 218.668 15.4483 218.668Z" fill="#536E86"/>
<path d="M40.4267 192.127H45.8844L46.5185 196.22C49.519 194.06 52.848 191.781 57.0261 191.781C58.2663 191.702 59.5103 191.843 60.7061 192.198L59.6644 199.108C58.2206 198.941 56.7688 198.861 55.3164 198.869C51.7661 198.709 48.2926 199.99 45.6126 202.45L42.2837 224.599H35.5579L40.4267 192.127Z" fill="#536E86"/>
<path d="M64.7482 192.127H71.542L66.6618 224.6H59.8794L64.7482 192.127ZM65.722 182.58C65.7454 182.151 65.9289 181.75 66.2324 181.464C66.5358 181.177 66.9345 181.03 67.3412 181.052H72.278C73.1499 181.052 73.4782 181.721 73.4103 182.58L72.7422 187.234C72.7132 187.635 72.5352 188.008 72.2469 188.272C71.9586 188.536 71.5832 188.669 71.2023 188.642H66.2089C66.0414 188.645 65.8754 188.609 65.7228 188.536C65.5702 188.463 65.4349 188.355 65.3266 188.221C65.2183 188.086 65.1397 187.928 65.0964 187.757C65.0532 187.586 65.0464 187.408 65.0766 187.234L65.722 182.58Z" fill="#536E86"/>
<path d="M81.5971 192.127L85.9224 216.508L94.5278 198.213C95.4592 196.299 96.0466 194.219 96.2602 192.079H102.295C102.84 194.84 102.438 197.715 101.163 200.194L89.1947 224.599H80.929L74.5542 192.127H81.5971Z" fill="#536E86"/>
<path d="M119.755 191.506C126.639 191.506 132.097 193.535 131.463 200.875C130.331 215.195 112.622 212.379 110.482 211.46C109.542 217.427 110.663 219.038 114.784 219.074C119.226 219.191 123.669 218.872 128.055 218.119L127.273 223.251C122.236 224.748 116.997 225.349 111.772 225.029C104.356 224.79 102.148 218.609 104.231 206.746C106.032 196.722 108.443 191.554 119.755 191.506ZM124.613 201.615C125.19 198.118 123.243 197.521 119.302 197.533C112.452 197.533 111.942 202.08 111.082 206.663C111.082 206.663 123.503 208.477 124.613 201.615Z" fill="#536E86"/>
<path d="M137.781 192.127H143.228L143.873 196.22C146.862 194.06 150.203 191.781 154.369 191.781C155.613 191.703 156.861 191.844 158.061 192.199L157.008 199.085C155.564 198.917 154.112 198.838 152.66 198.846C149.109 198.685 145.636 199.967 142.956 202.426L139.661 224.6H132.867L137.781 192.127Z" fill="#536E86"/>
<path d="M189.199 191.506C196.083 191.506 201.53 193.535 200.907 200.875C199.774 215.195 182.065 212.379 179.925 211.46C178.986 217.427 180.107 219.038 184.228 219.074C188.67 219.191 193.113 218.872 197.499 218.119L196.706 223.251C191.669 224.748 186.43 225.349 181.205 225.029C173.8 224.79 171.58 218.609 173.675 206.746C175.475 196.722 177.887 191.554 189.199 191.506ZM194.011 201.615C194.589 198.118 192.641 197.521 188.689 197.533C181.896 197.533 181.341 202.08 180.48 206.663C180.526 206.663 192.947 208.477 194.011 201.615Z" fill="#536E86"/>
<path d="M217.913 191.506C222.216 191.16 229.565 192.306 232.52 195.301L228.455 224.552H223.348L222.329 221.103C219.552 223.533 216.076 224.9 212.467 224.981C206.239 224.981 201.722 220.757 204.099 206.865C206.466 193.487 212.705 191.948 217.913 191.506ZM214.392 218.728C217.476 218.763 220.48 217.699 222.918 215.709L225.42 198.237C222.979 197.417 220.397 197.173 217.857 197.521C214.822 198.142 212.082 199.001 210.667 208.453C209.602 215.446 210.406 218.728 214.392 218.728Z" fill="#536E86"/>
<path d="M234.887 218.931H249.912C250.606 218.994 251.296 218.767 251.833 218.298C252.369 217.829 252.708 217.156 252.777 216.425L253.139 214.169C253.4 212.523 253.003 211.592 251.022 211.592H243.503C238.046 211.592 235.034 208.883 235.951 202.701L236.427 199.693C237.208 194.514 239.733 191.614 245.711 191.614C250.569 191.614 259.016 191.996 261.462 193.022L260.76 197.736H246.391C243.707 197.736 243.266 199.288 243.096 200.469L242.767 202.617C242.292 205.625 243.9 205.231 245.247 205.231H252.89C258.472 205.231 260.635 209.193 259.922 213.871L259.401 217.63C258.416 224.301 254.022 225.101 250.614 225.101C245.859 225.101 236.144 224.588 234.139 223.562L234.887 218.931Z" fill="#536E86"/>
<path d="M271.743 192.127L274.313 215.816C274.641 218.43 277.314 218.203 277.631 218.203L286.689 198.154C287.51 196.213 288.008 194.138 288.161 192.02H294.241C294.779 194.824 294.404 197.738 293.177 200.29L282.194 224.564C276.646 237.011 270.486 240.758 265.209 241.797V236.784C270.214 233.729 272.954 229.003 275.106 224.6C271.788 224.6 268.391 222.786 267.7 216.89L264.836 192.127H271.743Z" fill="#536E86"/>
</g>
<defs>
<filter id="filter0_f_40_324" x="0" y="0" width="299.48" height="246.797" filterUnits="userSpaceOnUse" color-interpolation-filters="sRGB">
<feFlood flood-opacity="0" result="BackgroundImageFix"/>
<feBlend mode="normal" in="SourceGraphic" in2="BackgroundImageFix" result="shape"/>
<feGaussianBlur stdDeviation="2.5" result="effect1_foregroundBlur_40_324"/>
</filter>
<linearGradient id="paint0_linear_40_324" x1="92.0702" y1="132.755" x2="242.567" y2="-5.39551" gradientUnits="userSpaceOnUse">
<stop stop-color="#53A3DB"/>
<stop offset="0.92" stop-color="#4455A4"/>
</linearGradient>
<linearGradient id="paint1_linear_40_324" x1="94.2333" y1="133.829" x2="244.73" y2="-4.32166" gradientUnits="userSpaceOnUse">
<stop stop-color="#53A3DB"/>
<stop offset="0.92" stop-color="#4455A4"/>
</linearGradient>
<linearGradient id="paint2_linear_40_324" x1="96.2035" y1="138.722" x2="246.7" y2="0.571728" gradientUnits="userSpaceOnUse">
<stop stop-color="#53A3DB"/>
<stop offset="0.92" stop-color="#4455A4"/>
</linearGradient>
<linearGradient id="paint3_linear_40_324" x1="111.41" y1="155.287" x2="261.907" y2="17.1362" gradientUnits="userSpaceOnUse">
<stop stop-color="#53A3DB"/>
<stop offset="0.92" stop-color="#4455A4"/>
</linearGradient>
</defs>
</svg>
