<svg width="68" height="68" viewBox="0 0 68 68" fill="none" xmlns="http://www.w3.org/2000/svg">
<path d="M8.779 19.5454H64.6303C65.882 19.5454 67.0001 20.6433 67.0001 22.129V50.5073C67.0001 51.993 65.882 53.0909 64.6303 53.0909H8.779C7.52723 53.0909 6.40918 51.993 6.40918 50.5073V22.129C6.40918 20.6433 7.52723 19.5454 8.779 19.5454Z" stroke="#197FE3" stroke-width="2"/>
<path d="M41.0833 25.0833V45.9166H61.9166V25.0833H41.0833ZM42.8194 25.7777C43.3906 25.7777 43.861 26.2482 43.861 26.8194C43.861 27.3905 43.3906 27.861 42.8194 27.861C42.2482 27.861 41.7777 27.3905 41.7777 26.8194C41.7777 26.2482 42.2482 25.7777 42.8194 25.7777ZM51.4999 25.7777C56.8652 25.7777 61.2221 30.1346 61.2221 35.4999C61.2221 40.8653 56.8652 45.2221 51.4999 45.2221C46.1346 45.2221 41.7777 40.8653 41.7777 35.4999C41.7777 30.1346 46.1346 25.7777 51.4999 25.7777ZM60.1805 25.7777C60.7517 25.7777 61.2221 26.2482 61.2221 26.8194C61.2221 27.3905 60.7517 27.861 60.1805 27.861C59.6093 27.861 59.1388 27.3905 59.1388 26.8194C59.1388 26.2482 59.6093 25.7777 60.1805 25.7777ZM42.8194 26.4721C42.6235 26.4721 42.4721 26.6235 42.4721 26.8194C42.4721 27.0153 42.6235 27.1666 42.8194 27.1666C43.0152 27.1666 43.1666 27.0153 43.1666 26.8194C43.1666 26.6235 43.0152 26.4721 42.8194 26.4721ZM51.4999 26.4721C46.5099 26.4721 42.4721 30.5099 42.4721 35.4999C42.4721 40.4899 46.5099 44.5277 51.4999 44.5277C56.4899 44.5277 60.5277 40.4899 60.5277 35.4999C60.5277 30.5099 56.4899 26.4721 51.4999 26.4721ZM60.1805 26.4721C59.9846 26.4721 59.8333 26.6235 59.8333 26.8194C59.8333 27.0153 59.9846 27.1666 60.1805 27.1666C60.3764 27.1666 60.5277 27.0153 60.5277 26.8194C60.5277 26.6235 60.3764 26.4721 60.1805 26.4721ZM52.646 27.1666C53.1263 27.1666 53.6101 27.1881 54.0268 27.2319C54.4435 27.2756 54.7767 27.3258 55.0427 27.453C55.0468 27.453 55.0507 27.4599 55.0549 27.4599C55.1567 27.5134 55.2674 27.6285 55.3018 27.7638C55.3361 27.899 55.3059 28.0133 55.2706 28.1001C55.2 28.2736 55.0935 28.3965 54.9627 28.5436C54.701 28.8379 54.3292 29.1886 53.9631 29.5961C53.5969 30.0037 53.2411 30.4639 53.0204 30.9389C52.8132 31.385 52.7295 31.8323 52.8292 32.2953C53.6619 32.6423 54.3303 33.3042 54.6873 34.1317C55.775 33.6991 56.7561 33.4832 57.5668 33.4942C58.4523 33.506 59.1842 33.7871 59.5335 34.3921C59.6846 34.6539 59.7242 34.9592 59.7682 35.3619C59.8121 35.7646 59.8333 36.2406 59.8333 36.721C59.8333 37.2012 59.8119 37.685 59.7682 38.1017C59.7244 38.5183 59.6741 38.8517 59.5471 39.1176C59.545 39.1246 59.5422 39.126 59.5402 39.1302C59.4868 39.2319 59.3716 39.3426 59.2363 39.3769C59.1011 39.411 58.9867 39.3839 58.9 39.3457C58.7265 39.2752 58.6036 39.1673 58.4564 39.0365C58.1621 38.7749 57.8115 38.4044 57.4039 38.0382C56.9964 37.672 56.5362 37.3163 56.0611 37.0956C55.6024 36.8824 55.1427 36.7974 54.6655 36.9111C54.3208 37.6806 53.7045 38.2981 52.9389 38.6499C53.3825 39.7535 53.6037 40.7482 53.5926 41.5688C53.5807 42.4543 53.2998 43.1861 52.6947 43.5355C52.433 43.6866 52.1276 43.7248 51.7249 43.7687C51.3222 43.8125 50.8462 43.834 50.3659 43.834C49.8856 43.834 49.4018 43.8125 48.9851 43.7687C48.5685 43.725 48.2351 43.6747 47.9692 43.5477C47.9651 43.5477 47.9612 43.5477 47.957 43.5407C47.8553 43.4872 47.7445 43.3722 47.7102 43.2369C47.6759 43.1016 47.706 42.9873 47.7413 42.9005C47.812 42.727 47.9184 42.6029 48.0492 42.4556C48.3109 42.1613 48.6827 41.812 49.0489 41.4045C49.415 40.997 49.7708 40.5353 49.9915 40.0603C50.1986 39.6147 50.282 39.1691 50.1828 38.7067C49.3917 38.3804 48.7558 37.7671 48.3843 37.0005C47.2669 37.4534 46.2605 37.6762 45.4315 37.6651C44.546 37.6533 43.8141 37.3735 43.4648 36.7685C43.3137 36.5068 43.2755 36.2001 43.2315 35.7974C43.1877 35.3947 43.1665 34.9186 43.1665 34.4383C43.1665 33.958 43.1878 33.4755 43.2315 33.0589C43.2753 32.6423 43.3256 32.3076 43.4526 32.0417C43.4547 32.0347 43.4561 32.0333 43.4582 32.0291C43.472 32.0027 43.5156 31.9917 43.5368 31.9653C43.5818 31.8741 43.6647 31.807 43.7633 31.7821H43.7647C43.8279 31.7668 43.884 31.7613 43.9356 31.7648C44.0904 31.7745 44.2 31.8574 44.3005 31.9276C44.4348 32.0214 44.5672 32.1406 44.7142 32.2802C45.0082 32.5594 45.3568 32.9188 45.7504 33.2581C46.5047 33.9085 47.3777 34.4356 48.2664 34.2605C48.5942 33.4088 49.2439 32.7205 50.0703 32.344C49.6286 31.243 49.4083 30.2494 49.4193 29.4306C49.4312 28.5451 49.7121 27.8146 50.3172 27.4652C50.5789 27.3141 50.8844 27.2745 51.287 27.2305C51.6896 27.1868 52.1657 27.1653 52.646 27.1653V27.1666ZM52.646 27.861C52.1864 27.861 51.7303 27.8819 51.3629 27.9221C50.9956 27.9624 50.6939 28.0503 50.6644 28.0673C50.3486 28.2496 50.1238 28.6943 50.1137 29.4412C50.1044 30.1311 50.3377 31.0766 50.7526 32.1132C50.9939 32.0598 51.2428 32.0278 51.4999 32.0278C51.7208 32.0278 51.936 32.0507 52.1455 32.0903C52.1097 31.5805 52.1856 31.0864 52.3897 30.6471C52.6572 30.0713 53.0571 29.5652 53.4463 29.1322C53.8354 28.699 54.2191 28.3344 54.4432 28.0823C54.468 28.0545 54.4635 28.0531 54.4839 28.0281C54.3353 27.9906 54.2111 27.9494 53.9535 27.9224C53.5695 27.8821 53.1056 27.861 52.646 27.861ZM44.0265 32.6055C43.9889 32.7542 43.9489 32.8759 43.9221 33.1318C43.8817 33.5157 43.861 33.9797 43.861 34.4393C43.861 34.8989 43.882 35.3563 43.9221 35.7237C43.9622 36.0911 44.0488 36.3928 44.0658 36.4222C44.2482 36.7381 44.6942 36.9615 45.4412 36.9715C46.1342 36.9806 47.086 36.7443 48.1281 36.326C48.1267 36.3142 48.1267 36.2961 48.1253 36.2836C48.0663 36.0306 48.0276 35.7703 48.0276 35.4996C48.0276 35.2853 48.0499 35.0766 48.0873 34.873C47.0115 34.941 46.032 34.4186 45.2973 33.7852C44.874 33.4202 44.5112 33.0462 44.2353 32.7843C44.1488 32.7021 44.092 32.6602 44.0265 32.6055ZM51.4999 32.7221C49.9617 32.7221 48.7221 33.9617 48.7221 35.4999C48.7221 37.0382 49.9617 38.2777 51.4999 38.2777C53.0284 38.2777 54.2594 37.0531 54.275 35.5284C54.2757 35.509 54.2744 35.4895 54.275 35.4701C54.2587 33.9461 53.0279 32.7221 51.4999 32.7221ZM51.4999 33.4166C52.6464 33.4166 53.5833 34.3535 53.5833 35.4999C53.5833 36.6464 52.6464 37.5833 51.4999 37.5833C50.3535 37.5833 49.4166 36.6464 49.4166 35.4999C49.4166 34.3535 50.3535 33.4166 51.4999 33.4166ZM51.4999 34.111C50.7288 34.111 50.111 34.7287 50.111 35.4999C50.111 36.2711 50.7288 36.8888 51.4999 36.8888C52.2711 36.8888 52.8888 36.2711 52.8888 35.4999C52.8888 34.7287 52.2711 34.111 51.4999 34.111ZM57.5573 34.1883C56.8714 34.1793 55.9341 34.4097 54.9043 34.8204C54.9482 35.0403 54.9721 35.2673 54.9721 35.4999C54.9721 35.7476 54.9444 35.9884 54.8948 36.2215C55.4099 36.1833 55.9093 36.2583 56.3529 36.4643C56.9287 36.7318 57.4348 37.1318 57.8679 37.5209C58.301 37.91 58.6656 38.2937 58.9177 38.5178C58.9456 38.5428 58.9466 38.5379 58.9719 38.5587C59.0096 38.4101 59.0507 38.2859 59.0777 38.0284C59.1181 37.6445 59.1388 37.1805 59.1388 36.7209C59.1388 36.2613 59.1179 35.8053 59.0777 35.4379C59.0376 35.0704 58.9496 34.7688 58.9326 34.7393C58.7503 34.4235 58.3043 34.1984 57.5573 34.1883ZM52.2581 38.8826C52.0132 38.9375 51.7611 38.9721 51.4999 38.9721C51.2833 38.9721 51.0723 38.9492 50.8665 38.911C50.9021 39.4203 50.8263 39.9153 50.6224 40.3542C50.3548 40.9299 49.9549 41.4362 49.5658 41.8693C49.1767 42.3023 48.7929 42.6669 48.5689 42.919C48.5444 42.9468 48.5483 42.9468 48.5282 42.9718C48.6768 43.0093 48.801 43.0506 49.0585 43.0776C49.4424 43.1179 49.9064 43.1387 50.366 43.1387C50.8256 43.1387 51.2817 43.1179 51.6491 43.0776C52.0165 43.0373 52.3182 42.9508 52.3476 42.9338C52.6634 42.7515 52.8882 42.3055 52.8983 41.5585C52.9076 40.8678 52.6739 39.9206 52.2581 38.8826ZM42.8194 43.1388C43.3906 43.1388 43.861 43.6093 43.861 44.1805C43.861 44.7517 43.3906 45.2221 42.8194 45.2221C42.2482 45.2221 41.7777 44.7517 41.7777 44.1805C41.7777 43.6093 42.2482 43.1388 42.8194 43.1388ZM60.1805 43.1388C60.7517 43.1388 61.2221 43.6093 61.2221 44.1805C61.2221 44.7517 60.7517 45.2221 60.1805 45.2221C59.6093 45.2221 59.1388 44.7517 59.1388 44.1805C59.1388 43.6093 59.6093 43.1388 60.1805 43.1388ZM42.8194 43.8333C42.6235 43.8333 42.4721 43.9846 42.4721 44.1805C42.4721 44.3764 42.6235 44.5277 42.8194 44.5277C43.0152 44.5277 43.1666 44.3764 43.1666 44.1805C43.1666 43.9846 43.0152 43.8333 42.8194 43.8333ZM60.1805 43.8333C59.9846 43.8333 59.8333 43.9846 59.8333 44.1805C59.8333 44.3764 59.9846 44.5277 60.1805 44.5277C60.3764 44.5277 60.5277 44.3764 60.5277 44.1805C60.5277 43.9846 60.3764 43.8333 60.1805 43.8333Z" fill="#197FE3"/>
<path d="M0 8.5V11.4819H6.18925V52.5455H8.5V8.50963H7.49735V8.5H0Z" fill="#197FE3"/>
<path d="M10 54V57H11.6784V54H10ZM12.5437 54V57H14.2225V54H12.5437ZM15.0981 54V57H16.7769V54H15.0981ZM17.7152 54V57H19.3936V54H17.7152ZM20.3212 54V57H22V54H20.3212Z" fill="#197FE3"/>
<path d="M31 54V57H32.6784V54H31ZM33.5437 54V57H35.2225V54H33.5437ZM36.0981 54V57H37.7769V54H36.0981ZM38.7152 54V57H40.3936V54H38.7152ZM41.3212 54V57H43V54H41.3212Z" fill="#197FE3"/>
<path d="M30 31L14 31L14 32.5386L30 32.5386L30 31ZM30 33.3317L14 33.3317L14 34.8706L30 34.8706L30 33.3317ZM30 35.6732L14 35.6732L14 37.2121L30 37.2121L30 35.6732ZM30 38.0722L14 38.0722L14 39.6108L30 39.6108L30 38.0722ZM30 40.4611L14 40.4611L14 42L30 42L30 40.4611Z" fill="#197FE3"/>
</svg>
