<svg width="144" height="112" viewBox="0 0 144 112" fill="none" xmlns="http://www.w3.org/2000/svg">
<path d="M69.6051 69.7082C67.5846 69.7097 65.5993 69.1794 63.8487 68.1706L43.6336 56.5C41.885 55.4852 40.4331 54.0294 39.423 52.278C38.4129 50.5267 37.8799 48.541 37.8772 46.5192V23.1837C37.8809 21.1629 38.4144 19.1784 39.4245 17.4281C40.4345 15.6778 41.8858 14.2229 43.6336 13.2085L63.8487 1.53797C65.6008 0.530313 67.5867 0 69.6079 0C71.6292 0 73.615 0.530313 75.3672 1.53797L95.5823 13.2029C97.3308 14.2183 98.7828 15.6741 99.7938 17.4252C100.805 19.1763 101.339 21.1617 101.344 23.1837V46.5192C101.342 48.541 100.809 50.5267 99.7985 52.278C98.7884 54.0294 97.3365 55.4852 95.5879 56.5L75.3728 68.1706C73.6188 69.181 71.6294 69.7114 69.6051 69.7082ZM69.6051 7.15359C68.8419 7.1483 68.0905 7.34245 67.4253 7.71684L47.2159 19.4043C46.5502 19.786 45.9967 20.3362 45.6111 20.9997C45.2255 21.6631 45.0214 22.4164 45.0192 23.1837V46.5192C45.0198 47.2856 45.2214 48.0385 45.6039 48.7027C45.9864 49.3668 46.5364 49.9191 47.199 50.3042L67.4084 61.9692C68.0724 62.3512 68.825 62.5522 69.591 62.5522C70.3571 62.5522 71.1097 62.3512 71.7736 61.9692L91.9831 50.2986C92.646 49.9152 93.1964 49.3641 93.579 48.7008C93.9616 48.0374 94.163 47.285 94.1629 46.5192V23.1837C94.1624 22.418 93.9608 21.6659 93.5783 21.0026C93.1957 20.3393 92.6456 19.7881 91.9831 19.4043L71.7905 7.73937C71.1258 7.35641 70.3723 7.15444 69.6051 7.15359Z" fill="#8690A1"/>
<path d="M73.4578 3.58203H66.2988V68.6938H73.4578V3.58203Z" fill="#8690A1"/>
<path d="M97.4242 31.2045L69.9319 28.8276V20.8857L98.0043 27.1378L97.4242 31.2045Z" fill="#8690A1"/>
<path d="M71.0189 49.9947L69.0645 42.5654L95.9597 37.7158L96.0104 42.0078L71.0189 49.9947Z" fill="#8690A1"/>
<path d="M6.51542 88.087C8.18437 88.1252 9.83056 88.4827 11.365 89.1402L12.6718 80.9844H15.9837L12.3845 103.644H9.71468L9.30351 102.039C8.31219 102.731 6.10988 103.819 4.23425 103.819C0.404146 103.819 -0.480158 99.7463 0.218273 95.6458C0.927969 91.4608 2.21218 88.087 6.51542 88.087ZM5.19741 100.845C6.76361 100.838 8.30666 100.466 9.70342 99.7575L11.0045 91.5172C9.62467 91.053 8.17337 90.8375 6.71819 90.8807C5.31006 90.8807 4.26805 91.7537 3.57525 95.9499C3.02889 99.3801 3.64847 100.845 5.19741 100.845Z" fill="#8690A1"/>
<path d="M17.6227 88.3179H20.3375L20.6529 90.2499C22.1456 89.2304 23.8015 88.1546 25.8799 88.1546C26.4968 88.1173 27.1157 88.1839 27.7105 88.3517L27.1923 91.613C26.4741 91.534 25.7519 91.4964 25.0294 91.5003C23.2633 91.4244 21.5355 92.0293 20.2023 93.1901L18.5464 103.644H15.2007L17.6227 88.3179Z" fill="#8690A1"/>
<path d="M29.7213 88.3179H33.1008L30.6732 103.644H27.2993L29.7213 88.3179ZM30.2057 83.8119C30.2173 83.6096 30.3086 83.4202 30.4596 83.2851C30.6105 83.15 30.8088 83.0802 31.0111 83.0909H33.4669C33.9006 83.0909 34.064 83.4063 34.0302 83.8119L33.6978 86.0086C33.6834 86.1979 33.5949 86.3739 33.4515 86.4983C33.308 86.6228 33.1213 86.6856 32.9318 86.6732H30.4479C30.3646 86.6746 30.282 86.6574 30.2061 86.623C30.1302 86.5886 30.0629 86.5378 30.009 86.4742C29.9551 86.4106 29.916 86.3359 29.8945 86.2553C29.873 86.1748 29.8696 86.0905 29.8846 86.0086L30.2057 83.8119Z" fill="#8690A1"/>
<path d="M38.1025 88.3184L40.2542 99.8256L44.5349 91.191C44.9982 90.2874 45.2903 89.3058 45.3966 88.2959H48.3988C48.6694 89.599 48.4699 90.956 47.8355 92.126L41.882 103.644H37.7702L34.5991 88.3184H38.1025Z" fill="#8690A1"/>
<path d="M57.0842 88.0254C60.5088 88.0254 63.2236 88.9829 62.9082 92.4469C62.345 99.2059 53.5357 97.8766 52.4712 97.4429C52.0037 100.259 52.5613 101.02 54.6115 101.036C56.8212 101.092 59.0312 100.941 61.2128 100.586L60.8242 103.008C58.3184 103.714 55.7124 103.998 53.1133 103.847C49.424 103.734 48.3257 100.817 49.362 95.2181C50.2576 90.4868 51.4573 88.0479 57.0842 88.0254ZM59.5006 92.7961C59.7878 91.1458 58.819 90.8642 56.8589 90.8698C53.4512 90.8698 53.1978 93.0158 52.7697 95.1787C52.7697 95.1787 58.9486 96.0348 59.5006 92.7961Z" fill="#8690A1"/>
<path d="M66.051 88.3178H68.7602L69.0812 90.2497C70.5682 89.2302 72.2298 88.1544 74.3026 88.1544C74.9214 88.1175 75.5419 88.1841 76.1388 88.3516L75.615 91.6015C74.8968 91.5225 74.1746 91.4849 73.4521 91.4889C71.686 91.413 69.9582 92.0178 68.625 93.1786L66.986 103.644H63.6064L66.051 88.3178Z" fill="#8690A1"/>
<path d="M91.6284 88.0254C95.0529 88.0254 97.7622 88.9829 97.4524 92.4469C96.8891 99.2059 88.0799 97.8766 87.0153 97.4429C86.5478 100.259 87.1055 101.02 89.1557 101.036C91.3654 101.092 93.5754 100.941 95.757 100.586L95.3627 103.008C92.857 103.715 90.2509 103.998 87.6518 103.847C83.9682 103.734 82.8642 100.817 83.9062 95.2181C84.8018 90.4868 86.0015 88.0479 91.6284 88.0254ZM94.0222 92.7961C94.3094 91.1458 93.3407 90.8642 91.3749 90.8698C87.9954 90.8698 87.7194 93.0158 87.2913 95.1787C87.3139 95.1787 93.4927 96.0348 94.0222 92.7961Z" fill="#8690A1"/>
<path d="M105.912 88.0252C108.053 87.8619 111.708 88.4026 113.178 89.8164L111.156 103.622H108.616L108.109 101.994C106.727 103.141 104.998 103.786 103.203 103.824C100.105 103.824 97.8578 101.831 99.0406 95.2743C100.218 88.9602 103.321 88.2336 105.912 88.0252ZM104.161 100.873C105.695 100.89 107.189 100.388 108.402 99.448L109.647 91.202C108.432 90.8152 107.148 90.6998 105.884 90.864C104.375 91.1569 103.011 91.5624 102.307 96.0234C101.778 99.324 102.178 100.873 104.161 100.873Z" fill="#8690A1"/>
<path d="M114.355 100.968H121.83C122.175 100.998 122.518 100.89 122.785 100.669C123.052 100.448 123.22 100.13 123.255 99.7852L123.435 98.7206C123.565 97.9433 123.367 97.504 122.382 97.504H118.642C115.927 97.504 114.429 96.2254 114.885 93.3078L115.121 91.8884C115.51 89.4439 116.766 88.0752 119.74 88.0752C122.156 88.0752 126.358 88.2554 127.575 88.7398L127.226 90.9647H120.078C118.743 90.9647 118.523 91.6969 118.439 92.2545L118.276 93.2684C118.039 94.6878 118.839 94.5019 119.509 94.5019H123.311C126.088 94.5019 127.164 96.3719 126.809 98.5798L126.55 100.354C126.06 103.503 123.874 103.88 122.179 103.88C119.813 103.88 114.981 103.638 113.984 103.153L114.355 100.968Z" fill="#8690A1"/>
<path d="M132.689 88.3183L133.968 99.4988C134.131 100.732 135.46 100.625 135.618 100.625L140.124 91.1627C140.533 90.2469 140.78 89.2675 140.856 88.2676H143.881C144.149 89.5912 143.962 90.9664 143.352 92.1709L137.888 103.627C135.128 109.502 132.064 111.271 129.439 111.761V109.395C131.929 107.953 133.292 105.723 134.362 103.644C132.712 103.644 131.022 102.788 130.678 100.006L129.253 88.3183H132.689Z" fill="#8690A1"/>
</svg>
