<svg width="122" height="100" viewBox="0 0 122 100" fill="none" xmlns="http://www.w3.org/2000/svg">
<path d="M58.9709 62.246C57.2591 62.2473 55.5771 61.7738 54.094 60.873L36.9673 50.4517C35.4858 49.5455 34.2558 48.2456 33.4 46.6817C32.5442 45.1178 32.0926 43.3447 32.0903 41.5394V20.7019C32.0935 18.8974 32.5455 17.1253 33.4012 15.5624C34.2569 13.9995 35.4865 12.7003 36.9673 11.7946L54.094 1.37334C55.5784 0.473544 57.2609 0 58.9733 0C60.6858 0 62.3682 0.473544 63.8527 1.37334L80.9793 11.7895C82.4607 12.6963 83.6909 13.9962 84.5474 15.5598C85.4039 17.1235 85.8568 18.8964 85.8611 20.7019V41.5394C85.8588 43.3447 85.4072 45.1178 84.5514 46.6817C83.6956 48.2456 82.4656 49.5455 80.9841 50.4517L63.8574 60.873C62.3714 61.7753 60.6859 62.2488 58.9709 62.246ZM58.9709 6.3878C58.3243 6.38308 57.6877 6.55645 57.1242 6.89076L40.0023 17.3271C39.4383 17.6679 38.9694 18.1592 38.6427 18.7517C38.316 19.3441 38.143 20.0167 38.1412 20.7019V41.5394C38.1417 42.2237 38.3125 42.896 38.6366 43.4891C38.9606 44.0821 39.4266 44.5753 39.988 44.9192L57.1099 55.3354C57.6724 55.6765 58.31 55.8561 58.959 55.8561C59.608 55.8561 60.2456 55.6765 60.8081 55.3354L77.93 44.9142C78.4917 44.5718 78.958 44.0798 79.2822 43.4874C79.6063 42.895 79.7769 42.2232 79.7768 41.5394V20.7019C79.7764 20.0182 79.6056 19.3465 79.2815 18.7543C78.9574 18.162 78.4914 17.6698 77.93 17.3271L60.8225 6.91087C60.2593 6.56892 59.6209 6.38856 58.9709 6.3878Z" fill="url(#paint0_linear_40_243)"/>
<path d="M62.2351 3.19907H56.1699V61.3407H62.2351V3.19907Z" fill="url(#paint1_linear_40_243)"/>
<path d="M82.5399 27.864L59.2478 25.7415V18.6498L83.0314 24.2326L82.5399 27.864Z" fill="url(#paint2_linear_40_243)"/>
<path d="M60.1688 44.6426L58.5129 38.0086L81.2992 33.6782L81.3421 37.5107L60.1688 44.6426Z" fill="url(#paint3_linear_40_243)"/>
<path d="M5.52001 78.6575C6.93398 78.6916 8.32867 79.0109 9.62869 79.598L10.7358 72.3152H13.5417L10.4924 92.5491H8.2305L7.88214 91.1157C7.04227 91.7343 5.17642 92.705 3.58735 92.705C0.342402 92.705 -0.406801 89.0686 0.184926 85.4071C0.786196 81.6702 1.87421 78.6575 5.52001 78.6575ZM4.40336 90.0494C5.73028 90.0438 7.03759 89.7114 8.22095 89.0787L9.32328 81.7205C8.15423 81.306 6.92466 81.1136 5.6918 81.1521C4.4988 81.1521 3.61598 81.9317 3.02903 85.6787C2.56615 88.7417 3.09107 90.0494 4.40336 90.0494Z" fill="#536E86"/>
<path d="M14.9304 78.8637H17.2305L17.4977 80.5888C18.7623 79.6785 20.1652 78.7178 21.9261 78.7178C22.4488 78.6845 22.973 78.744 23.477 78.8939L23.038 81.806C22.4295 81.7354 21.8177 81.7019 21.2055 81.7054C19.7093 81.6376 18.2454 82.1777 17.1159 83.2142L15.713 92.5491H12.8784L14.9304 78.8637Z" fill="#536E86"/>
<path d="M25.1806 78.8637H28.0438L25.9871 92.5491H23.1287L25.1806 78.8637ZM25.591 74.84C25.6009 74.6594 25.6782 74.4903 25.8061 74.3696C25.934 74.249 26.102 74.1866 26.2734 74.1962H28.354C28.7214 74.1962 28.8598 74.4779 28.8312 74.84L28.5496 76.8016C28.5374 76.9706 28.4624 77.1278 28.3409 77.2389C28.2194 77.35 28.0612 77.4061 27.9006 77.395H25.7962C25.7256 77.3963 25.6556 77.381 25.5913 77.3502C25.527 77.3195 25.47 77.2741 25.4243 77.2173C25.3787 77.1606 25.3456 77.0938 25.3274 77.0219C25.3091 76.95 25.3063 76.8748 25.319 76.8016L25.591 74.84Z" fill="#536E86"/>
<path d="M32.2814 78.8637L34.1043 89.1391L37.731 81.4288C38.1235 80.6218 38.3711 79.7454 38.4611 78.8436H41.0046C41.2339 80.0072 41.0649 81.2189 40.5274 82.2637L35.4834 92.5491H31.9999L29.3132 78.8637H32.2814Z" fill="#536E86"/>
<path d="M48.3629 78.6021C51.2643 78.6021 53.5643 79.4571 53.2971 82.5503C52.8199 88.5858 45.3565 87.3988 44.4546 87.0115C44.0586 89.5263 44.531 90.2053 46.268 90.2204C48.1401 90.2698 50.0124 90.1351 51.8607 89.818L51.5315 91.9807C49.4085 92.6115 47.2006 92.8648 44.9986 92.7301C41.873 92.6295 40.9424 90.0242 41.8205 85.0248C42.5792 80.8 43.5957 78.6222 48.3629 78.6021ZM50.4101 82.8621C50.6534 81.3885 49.8327 81.137 48.172 81.142C45.285 81.142 45.0702 83.0583 44.7075 84.9896C44.7075 84.9896 49.9424 85.7541 50.4101 82.8621Z" fill="#536E86"/>
<path d="M55.96 78.8637H58.2553L58.5273 80.5888C59.7871 79.6785 61.1948 78.7178 62.9509 78.7178C63.4752 78.6849 64.0009 78.7444 64.5066 78.8938L64.0628 81.7959C63.4543 81.7254 62.8425 81.6918 62.2303 81.6953C60.7341 81.6275 59.2702 82.1676 58.1408 83.2042L56.7521 92.5491H53.8889L55.96 78.8637Z" fill="#536E86"/>
<path d="M77.6296 78.6021C80.5309 78.6021 82.8263 79.4571 82.5638 82.5503C82.0866 88.5858 74.6232 87.3988 73.7213 87.0115C73.3252 89.5263 73.7977 90.2053 75.5347 90.2204C77.4067 90.2698 79.2791 90.1351 81.1274 89.818L80.7934 91.9807C78.6705 92.6118 76.4626 92.8651 74.2606 92.7301C71.1397 92.6295 70.2044 90.0242 71.0872 85.0248C71.8459 80.8 72.8624 78.6222 77.6296 78.6021ZM79.6577 82.8621C79.901 81.3885 79.0803 81.137 77.4148 81.142C74.5516 81.142 74.3178 83.0583 73.9551 84.9896C73.9742 84.9896 79.2091 85.7541 79.6577 82.8621Z" fill="#536E86"/>
<path d="M89.7311 78.6021C91.5445 78.4563 94.6415 78.9391 95.887 80.2015L94.1739 92.529H92.0217L91.5922 91.0754C90.4217 92.0995 88.9567 92.6757 87.4358 92.71C84.8112 92.71 82.9072 90.9296 83.9093 85.0752C84.9067 79.437 87.536 78.7882 89.7311 78.6021ZM88.2471 90.0746C89.5467 90.0895 90.8129 89.6411 91.8404 88.8021L92.895 81.4388C91.8662 81.0934 90.778 80.9904 89.7073 81.137C88.4284 81.3986 87.2736 81.7607 86.6771 85.7441C86.2285 88.6914 86.5673 90.0746 88.2471 90.0746Z" fill="#536E86"/>
<path d="M96.8845 90.16H103.217C103.51 90.1867 103.8 90.0908 104.026 89.8931C104.252 89.6954 104.395 89.4118 104.424 89.1038L104.577 88.1533C104.687 87.4592 104.52 87.0669 103.685 87.0669H100.516C98.2159 87.0669 96.9466 85.9252 97.3331 83.3199L97.5335 82.0524C97.8628 79.8696 98.9269 78.6474 101.447 78.6474C103.494 78.6474 107.054 78.8083 108.084 79.2409L107.789 81.2276H101.733C100.602 81.2276 100.416 81.8814 100.344 82.3793L100.206 83.2846C100.005 84.5521 100.683 84.3861 101.251 84.3861H104.472C106.825 84.3861 107.736 86.0559 107.435 88.0275L107.216 89.6118C106.801 92.4233 104.949 92.7603 103.513 92.7603C101.509 92.7603 97.4142 92.5441 96.5696 92.1115L96.8845 90.16Z" fill="#536E86"/>
<path d="M112.417 78.8637L113.501 88.8473C113.639 89.9488 114.765 89.8532 114.899 89.8532L118.716 81.4036C119.062 80.5858 119.272 79.7113 119.337 78.8184H121.899C122.126 80.0003 121.968 81.2283 121.451 82.3039L116.822 92.534C114.484 97.7798 111.888 99.3591 109.664 99.7967V97.6843C111.773 96.3967 112.928 94.405 113.835 92.5491C112.436 92.5491 111.005 91.7846 110.714 89.3L109.506 78.8637H112.417Z" fill="#536E86"/>
<defs>
<linearGradient id="paint0_linear_40_243" x1="36.6953" y1="53.8416" x2="100.121" y2="-4.38113" gradientUnits="userSpaceOnUse">
<stop stop-color="#53A3DB"/>
<stop offset="0.92" stop-color="#4455A4"/>
</linearGradient>
<linearGradient id="paint1_linear_40_243" x1="37.6069" y1="54.2943" x2="101.033" y2="-3.92851" gradientUnits="userSpaceOnUse">
<stop stop-color="#53A3DB"/>
<stop offset="0.92" stop-color="#4455A4"/>
</linearGradient>
<linearGradient id="paint2_linear_40_243" x1="38.4372" y1="56.3564" x2="101.863" y2="-1.86638" gradientUnits="userSpaceOnUse">
<stop stop-color="#53A3DB"/>
<stop offset="0.92" stop-color="#4455A4"/>
</linearGradient>
<linearGradient id="paint3_linear_40_243" x1="44.846" y1="63.3375" x2="108.272" y2="5.11468" gradientUnits="userSpaceOnUse">
<stop stop-color="#53A3DB"/>
<stop offset="0.92" stop-color="#4455A4"/>
</linearGradient>
</defs>
</svg>
