<svg width="60" height="60" viewBox="0 0 60 60" fill="none" xmlns="http://www.w3.org/2000/svg">
<path d="M17.7699 5.66992H9.43994C8.64429 5.66992 7.88123 5.98599 7.31862 6.5486C6.75601 7.11121 6.43994 7.87427 6.43994 8.66992V16.7999" stroke="#4A4A55" stroke-width="3" stroke-linecap="round" stroke-linejoin="round"/>
<path d="M42.22 5.66992H50.55C51.3456 5.66992 52.1087 5.98599 52.6713 6.5486C53.2339 7.11121 53.55 7.87427 53.55 8.66992V16.7999" stroke="#4A4A55" stroke-width="3" stroke-linecap="round" stroke-linejoin="round"/>
<path d="M17.7399 52.4698H9.40991C8.61426 52.4698 7.8512 52.1538 7.28859 51.5912C6.72598 51.0286 6.40991 50.2655 6.40991 49.4698V41.3398" stroke="#4A4A55" stroke-width="3" stroke-linecap="round" stroke-linejoin="round"/>
<path d="M42.1899 52.61H50.5099C51.3056 52.61 52.0687 52.2939 52.6313 51.7313C53.1939 51.1687 53.5099 50.4056 53.5099 49.61V41.48" stroke="#4A4A55" stroke-width="3" stroke-linecap="round" stroke-linejoin="round"/>
<path d="M46.05 26.1199V42.8099C46.05 43.6056 45.734 44.3687 45.1714 44.9313C44.6088 45.4939 43.8457 45.8099 43.05 45.8099H16.79C15.9944 45.8099 15.2313 45.4939 14.6687 44.9313C14.1061 44.3687 13.79 43.6056 13.79 42.8099V15.4399C13.79 14.6443 14.1061 13.8812 14.6687 13.3186C15.2313 12.756 15.9944 12.4399 16.79 12.4399H43.05C43.8457 12.4399 44.6088 12.756 45.1714 13.3186C45.734 13.8812 46.05 14.6443 46.05 15.4399V20.1299" stroke="#4A4A55" stroke-width="3" stroke-linecap="round" stroke-linejoin="round"/>
<path d="M40.6 28.1301V38.5401C40.6 39.037 40.4033 39.5136 40.0529 39.8659C39.7025 40.2182 39.2268 40.4174 38.73 40.4201H22.34C21.8422 40.4174 21.3655 40.2185 21.0135 39.8665C20.6615 39.5145 20.4626 39.0379 20.46 38.5401V21.4601C20.4626 20.9623 20.6615 20.4856 21.0135 20.1336C21.3655 19.7816 21.8422 19.5827 22.34 19.5801H38.73C39.2268 19.5827 39.7025 19.782 40.0529 20.1342C40.4033 20.4865 40.6 20.9632 40.6 21.4601V24.3901" fill="#00B67A"/>
<path d="M21.6399 23.96H39.4199" stroke="#4A4A55" stroke-width="3" stroke-linecap="round" stroke-linejoin="round"/>
<path d="M21.6399 36.04H39.4199" stroke="#4A4A55" stroke-width="3" stroke-linecap="round" stroke-linejoin="round"/>
</svg>
