<svg width="76" height="76" viewBox="0 0 76 76" fill="none" xmlns="http://www.w3.org/2000/svg">
<path d="M64.9041 20.0641C65.8161 18.3921 66.2721 16.5681 66.2721 14.5921C66.2721 12.7681 65.8161 10.7921 64.9041 9.12012" stroke="#00B67A" stroke-width="2" stroke-linecap="round" stroke-linejoin="round"/>
<path d="M46.0561 20.0641C44.9921 18.3921 44.5361 16.5681 44.5361 14.5921C44.5361 12.7681 44.9921 10.7921 46.0561 9.12012" stroke="#00B67A" stroke-width="2" stroke-linecap="round" stroke-linejoin="round"/>
<path fill-rule="evenodd" clip-rule="evenodd" d="M58.3681 40.2801C58.0641 40.1281 57.7601 40.1281 57.4561 39.9761L56.2401 17.6321C57.4561 17.1761 58.3681 16.1121 58.3681 14.7441C58.3681 13.0721 57.0001 11.7041 55.4801 11.7041C53.8081 11.7041 52.4401 13.0721 52.4401 14.7441C52.4401 16.1121 53.3521 17.1761 54.5681 17.6321L53.3521 39.9761C53.0481 40.1281 52.7441 40.1281 52.4401 40.2801C52.1361 40.4321 51.8321 40.4321 51.8321 40.5841L51.3761 41.6481H9.12008C7.44808 41.6481 6.08008 43.0161 6.08008 44.6881V61.4081C6.08008 63.0801 7.44808 64.4481 9.12008 64.4481H14.7441V65.3601C14.7441 66.1201 15.5041 66.8801 16.2641 66.8801H27.8161C28.5761 66.8801 29.3361 66.1201 29.3361 65.3601V64.4481H46.6641V65.3601C46.6641 66.1201 47.4241 66.8801 48.1841 66.8801H59.7361C60.4961 66.8801 61.2561 66.1201 61.2561 65.3601V64.4481H66.8801C68.5521 64.4481 69.9201 63.0801 69.9201 61.4081V44.6881C69.9201 43.0161 68.5521 41.6481 66.8801 41.6481H59.4321L58.9761 40.5841C58.9761 40.4321 58.6721 40.4321 58.3681 40.2801Z" stroke="#00B67A" stroke-width="2" stroke-linecap="round" stroke-linejoin="round"/>
<path d="M61.104 11.4001C61.712 12.3121 61.864 13.5281 61.864 14.5921C61.864 15.8081 61.712 16.8721 61.104 17.9361" stroke="#00B67A" stroke-width="2" stroke-linecap="round"/>
<path d="M49.7041 11.4001C49.2481 12.3121 48.9441 13.5281 48.9441 14.5921C48.9441 15.8081 49.2481 16.8721 49.7041 17.9361" stroke="#00B67A" stroke-width="2" stroke-linecap="round"/>
<path fill-rule="evenodd" clip-rule="evenodd" d="M31.1601 45.6001C32.3761 45.6001 33.4401 46.5121 33.4401 47.8801C33.4401 49.0961 32.3761 50.1601 31.1601 50.1601C29.9441 50.1601 28.8801 49.0961 28.8801 47.8801C28.8801 46.5121 29.9441 45.6001 31.1601 45.6001Z" stroke="#00B67A" stroke-width="2" stroke-linecap="round"/>
<path fill-rule="evenodd" clip-rule="evenodd" d="M22.04 45.6001C23.256 45.6001 24.32 46.5121 24.32 47.8801C24.32 49.0961 23.256 50.1601 22.04 50.1601C20.824 50.1601 19.76 49.0961 19.76 47.8801C19.76 46.5121 20.824 45.6001 22.04 45.6001Z" stroke="#00B67A" stroke-width="2" stroke-linecap="round"/>
<path fill-rule="evenodd" clip-rule="evenodd" d="M12.9201 45.6001C14.1361 45.6001 15.2001 46.5121 15.2001 47.8801C15.2001 49.0961 14.1361 50.1601 12.9201 50.1601C11.7041 50.1601 10.6401 49.0961 10.6401 47.8801C10.6401 46.5121 11.7041 45.6001 12.9201 45.6001Z" stroke="#00B67A" stroke-width="2" stroke-linecap="round"/>
<path d="M64.9042 59.1282H11.0962" stroke="#00B67A" stroke-width="2" stroke-linecap="round"/>
</svg>
