<svg width="68" height="68" viewBox="0 0 68 68" fill="none" xmlns="http://www.w3.org/2000/svg">
<path d="M8.779 19.5454H64.6303C65.882 19.5454 67.0001 20.6433 67.0001 22.129V50.5073C67.0001 51.993 65.882 53.0909 64.6303 53.0909H8.779C7.52723 53.0909 6.40918 51.993 6.40918 50.5073V22.129C6.40918 20.6433 7.52723 19.5454 8.779 19.5454Z" stroke="#197FE3" stroke-width="2"/>
<path d="M0 8.5V11.4819H6.18925V52.5455H8.5V8.50963H7.49735V8.5H0Z" fill="#197FE3"/>
<path d="M47.0462 26.2727L46.5476 26.2896C46.1087 26.3044 46.0184 26.3213 45.7953 26.4291C45.4727 26.5851 45.1186 26.9382 44.959 27.2634L44.8348 27.517L44.8216 35.6897C44.812 41.5702 44.8218 43.9253 44.8566 44.087C44.9604 44.5706 45.4373 45.0885 45.945 45.2688C46.1138 45.3287 46.3022 45.3526 46.6226 45.3549L47.0664 45.358L47.1268 45.2172C47.2332 44.9686 47.4265 44.8259 47.6846 44.8052C47.9708 44.7823 48.1757 44.9037 48.3032 45.1723L48.3901 45.3549L49.5281 45.3565L50.0671 45.3572H50.0972L50.6664 45.358V45.3572H52.0095V45.3583H52.2484H52.4871V45.3572H53.788V45.3583H54.3516H54.9151V45.3572H56.2159V45.3583H56.4548H56.6938V45.3572H58.0369V45.3583H59.4569H60.8768L60.9635 45.1785C61.078 44.9411 61.2357 44.8304 61.4945 44.8055C61.8465 44.7717 62.199 45.0172 62.199 45.2963C62.199 45.3576 62.2355 45.3661 62.4322 45.3498C62.923 45.309 63.4938 44.8853 63.7437 44.3762L63.8682 44.1225L63.8794 35.9066C63.8904 27.8087 63.8893 27.687 63.8044 27.4356C63.5925 26.8082 62.9261 26.2813 62.344 26.2813C62.23 26.2813 62.199 26.2992 62.199 26.3648C62.199 26.4717 62.0078 26.6995 61.8493 26.7814C61.6939 26.8618 61.4487 26.8628 61.2973 26.7838C61.1464 26.7049 60.9596 26.5034 60.922 26.3788L60.8924 26.2813L54.6414 26.2829L48.3901 26.2844L48.3032 26.467C48.0659 26.967 47.3846 26.9692 47.1424 26.4707L47.0462 26.2727Z" stroke="#197FE3"/>
<path d="M56.9579 30.5894H51.7252C51.014 30.5894 50.4375 31.1659 50.4375 31.877V32.3195C50.4375 33.0307 51.014 33.6072 51.7252 33.6072H56.9579C57.6691 33.6072 58.2456 33.0307 58.2456 32.3195V31.877C58.2456 31.1659 57.6691 30.5894 56.9579 30.5894Z" fill="#197FE3"/>
<path d="M52.4084 30.5625V27.2566C52.4084 27.0534 52.2437 26.8887 52.0405 26.8887H51.9141C51.7109 26.8887 51.5462 27.0534 51.5462 27.2566V30.5625C51.5462 30.7657 51.7109 30.9305 51.9141 30.9305H52.0405C52.2437 30.9305 52.4084 30.7657 52.4084 30.5625Z" fill="#197FE3"/>
<path d="M53.9824 30.5627V27.2507C53.9824 27.0475 53.8177 26.8828 53.6145 26.8828H53.4881C53.2849 26.8828 53.1202 27.0475 53.1202 27.2507V30.5627C53.1202 30.7659 53.2849 30.9306 53.4881 30.9306H53.6145C53.8177 30.9306 53.9824 30.7659 53.9824 30.5627Z" fill="#197FE3"/>
<path d="M55.5371 30.5627V27.2507C55.5371 27.0475 55.3724 26.8828 55.1692 26.8828H55.0428C54.8396 26.8828 54.6749 27.0475 54.6749 27.2507V30.5627C54.6749 30.7659 54.8396 30.9306 55.0428 30.9306H55.1692C55.3724 30.9306 55.5371 30.7659 55.5371 30.5627Z" fill="#197FE3"/>
<path d="M57.105 30.5566V27.2446C57.105 27.0414 56.9403 26.8767 56.7371 26.8767H56.6106C56.4075 26.8767 56.2427 27.0414 56.2427 27.2446V30.5566C56.2427 30.7598 56.4075 30.9245 56.6106 30.9245H56.7371C56.9403 30.9245 57.105 30.7598 57.105 30.5566Z" fill="#197FE3"/>
<path d="M59.5618 38.3425V33.1097C59.5618 32.3985 58.9853 31.822 58.2741 31.822H57.8316C57.1204 31.822 56.5439 32.3985 56.5439 33.1097V38.3425C56.5439 39.0536 57.1204 39.6302 57.8316 39.6302H58.2741C58.9853 39.6302 59.5618 39.0536 59.5618 38.3425Z" fill="#197FE3"/>
<path d="M59.5886 33.7932H62.8945C63.0977 33.7932 63.2625 33.6285 63.2625 33.4253V33.2989C63.2625 33.0957 63.0977 32.931 62.8945 32.931H59.5886C59.3854 32.931 59.2207 33.0957 59.2207 33.2989V33.4253C59.2207 33.6285 59.3854 33.7932 59.5886 33.7932Z" fill="#197FE3"/>
<path d="M59.5887 35.3669H62.9006C63.1038 35.3669 63.2686 35.2022 63.2686 34.999V34.8726C63.2686 34.6694 63.1038 34.5047 62.9006 34.5047H59.5887C59.3855 34.5047 59.2208 34.6694 59.2208 34.8726V34.999C59.2208 35.2022 59.3855 35.3669 59.5887 35.3669Z" fill="#197FE3"/>
<path d="M59.5887 36.9216H62.9006C63.1038 36.9216 63.2686 36.7569 63.2686 36.5537V36.4273C63.2686 36.2241 63.1038 36.0594 62.9006 36.0594H59.5887C59.3855 36.0594 59.2208 36.2241 59.2208 36.4273V36.5537C59.2208 36.7569 59.3855 36.9216 59.5887 36.9216Z" fill="#197FE3"/>
<path d="M59.5946 38.4895H62.9065C63.1097 38.4895 63.2744 38.3248 63.2744 38.1216V37.9952C63.2744 37.792 63.1097 37.6273 62.9065 37.6273H59.5946C59.3914 37.6273 59.2266 37.792 59.2266 37.9952V38.1216C59.2266 38.3248 59.3914 38.4895 59.5946 38.4895Z" fill="#197FE3"/>
<path d="M49.1274 38.3764V33.1436C49.1274 32.4325 49.704 31.856 50.4151 31.856H50.8576C51.5688 31.856 52.1453 32.4325 52.1453 33.1436V38.3764C52.1453 39.0876 51.5688 39.6641 50.8576 39.6641H50.4151C49.704 39.6641 49.1274 39.0876 49.1274 38.3764Z" fill="#197FE3"/>
<path d="M49.1006 33.8269H45.7947C45.5915 33.8269 45.4268 33.6622 45.4268 33.459V33.3326C45.4268 33.1294 45.5915 32.9647 45.7947 32.9647H49.1006C49.3038 32.9647 49.4685 33.1294 49.4685 33.3326V33.459C49.4685 33.6622 49.3038 33.8269 49.1006 33.8269Z" fill="#197FE3"/>
<path d="M49.1008 35.4006H45.7888C45.5856 35.4006 45.4209 35.2359 45.4209 35.0327V34.9063C45.4209 34.7031 45.5856 34.5384 45.7888 34.5384H49.1008C49.304 34.5384 49.4687 34.7031 49.4687 34.9063V35.0327C49.4687 35.2359 49.304 35.4006 49.1008 35.4006Z" fill="#197FE3"/>
<path d="M49.1008 36.9556H45.7888C45.5856 36.9556 45.4209 36.7908 45.4209 36.5877V36.4612C45.4209 36.258 45.5856 36.0933 45.7888 36.0933H49.1008C49.304 36.0933 49.4687 36.258 49.4687 36.4612V36.5877C49.4687 36.7908 49.304 36.9556 49.1008 36.9556Z" fill="#197FE3"/>
<path d="M49.0947 38.5232H45.7827C45.5795 38.5232 45.4148 38.3585 45.4148 38.1553V38.0289C45.4148 37.8257 45.5795 37.6609 45.7827 37.6609H49.0947C49.2978 37.6609 49.4626 37.8257 49.4626 38.0289V38.1553C49.4626 38.3585 49.2978 38.5232 49.0947 38.5232Z" fill="#197FE3"/>
<path d="M56.9855 41.0693H51.7528C51.0416 41.0693 50.4651 40.4928 50.4651 39.7816V39.3392C50.4651 38.628 51.0416 38.0515 51.7528 38.0515H56.9855C57.6967 38.0515 58.2732 38.628 58.2732 39.3392V39.7816C58.2732 40.4928 57.6967 41.0693 56.9855 41.0693Z" fill="#197FE3"/>
<path d="M52.436 41.0961V44.4021C52.436 44.6053 52.2713 44.77 52.0681 44.77H51.9417C51.7385 44.77 51.5738 44.6053 51.5738 44.4021V41.0961C51.5738 40.893 51.7385 40.7282 51.9417 40.7282H52.0681C52.2713 40.7282 52.436 40.893 52.436 41.0961Z" fill="#197FE3"/>
<path d="M54.01 41.0963V44.4082C54.01 44.6114 53.8453 44.7761 53.6421 44.7761H53.5157C53.3125 44.7761 53.1478 44.6114 53.1478 44.4082V41.0963C53.1478 40.8931 53.3125 40.7283 53.5157 40.7283H53.6421C53.8453 40.7283 54.01 40.8931 54.01 41.0963Z" fill="#197FE3"/>
<path d="M55.5647 41.0963V44.4082C55.5647 44.6114 55.4 44.7761 55.1968 44.7761H55.0704C54.8672 44.7761 54.7024 44.6114 54.7024 44.4082V41.0963C54.7024 40.8931 54.8672 40.7283 55.0704 40.7283H55.1968C55.4 40.7283 55.5647 40.8931 55.5647 41.0963Z" fill="#197FE3"/>
<path d="M57.1323 41.1021V44.4141C57.1323 44.6173 56.9676 44.782 56.7644 44.782H56.638C56.4348 44.782 56.2701 44.6173 56.2701 44.4141V41.1021C56.2701 40.8989 56.4348 40.7342 56.638 40.7342H56.7644C56.9676 40.7342 57.1323 40.8989 57.1323 41.1021Z" fill="#197FE3"/>
<path d="M51.9935 43.6511H50.6472V45.3593H51.9935V43.6511Z" fill="#197FE3"/>
<path d="M51.4016 42.3936H51.2382C50.9115 42.3936 50.6467 42.6583 50.6467 42.985V43.6226C50.6467 43.9492 50.9115 44.214 51.2382 44.214H51.4016C51.7282 44.214 51.993 43.9492 51.993 43.6226V42.985C51.993 42.6583 51.7282 42.3936 51.4016 42.3936Z" fill="#197FE3"/>
<path d="M53.815 43.6499H52.4688V45.3581H53.815V43.6499Z" fill="#197FE3"/>
<path d="M53.2231 42.3921H53.0597C52.7331 42.3921 52.4683 42.6569 52.4683 42.9835V43.6211C52.4683 43.9477 52.7331 44.2125 53.0597 44.2125H53.2231C53.5497 44.2125 53.8145 43.9477 53.8145 43.6211V42.9835C53.8145 42.6569 53.5497 42.3921 53.2231 42.3921Z" fill="#197FE3"/>
<path d="M56.2418 43.6516H54.8955V45.3598H56.2418V43.6516Z" fill="#197FE3"/>
<path d="M55.6496 42.3936H55.4862C55.1596 42.3936 54.8948 42.6583 54.8948 42.985V43.6226C54.8948 43.9492 55.1596 44.214 55.4862 44.214H55.6496C55.9762 44.214 56.241 43.9492 56.241 43.6226V42.985C56.241 42.6583 55.9762 42.3936 55.6496 42.3936Z" fill="#197FE3"/>
<path d="M58.0194 43.6509H56.6731V45.3591H58.0194V43.6509Z" fill="#197FE3"/>
<path d="M57.4274 42.3931H57.264C56.9374 42.3931 56.6726 42.6579 56.6726 42.9845V43.6221C56.6726 43.9487 56.9374 44.2135 57.264 44.2135H57.4274C57.7541 44.2135 58.0189 43.9487 58.0189 43.6221V42.9845C58.0189 42.6579 57.7541 42.3931 57.4274 42.3931Z" fill="#197FE3"/>
<path fill-rule="evenodd" clip-rule="evenodd" d="M42.624 27.4191V28.9527H39.7512V32.5003H42.6213V34.0365H39.7512V37.8913H42.6213V39.4275H39.7512V42.4998H42.6213V44.036H39.7512V48.5526H13.471V44.036H10.6008V42.4998H13.471V39.4275H10.6008V37.8913H13.471V34.0391H10.6008V32.5029H13.471V28.9553H10.6008V27.4191H13.471V22.2671H39.7538V27.4191H42.624ZM20.4824 43.0858V29.1758H22.1334V43.0858H20.4824ZM22.9845 43.0858V29.1758H24.6358V43.0858H22.9845ZM25.4971 43.0858V29.1758H27.1484V43.0858H25.4971ZM28.0714 43.0858V29.1758H29.7224V43.0858H28.0714ZM30.6348 43.0858V29.1758H32.2861V43.0858H30.6348Z" fill="#197FE3"/>
</svg>
