<svg width="82" height="82" viewBox="0 0 82 82" fill="none" xmlns="http://www.w3.org/2000/svg">
<path opacity="0.4" d="M61.4936 24.4633C61.2886 24.4291 61.0494 24.4291 60.8444 24.4633C56.1294 24.2925 52.3711 20.4316 52.3711 15.6483C52.3711 10.7625 56.3003 6.83331 61.1861 6.83331C66.0719 6.83331 70.0011 10.7966 70.0011 15.6483C69.9669 20.4316 66.2086 24.2925 61.4936 24.4633Z" stroke="#00B67A" stroke-width="3" stroke-linecap="round" stroke-linejoin="round"/>
<path opacity="0.4" d="M57.9724 49.3374C62.6532 50.1232 67.8124 49.3032 71.434 46.8774C76.2515 43.6657 76.2515 38.404 71.434 35.1924C67.7782 32.7664 62.5507 31.9464 57.8699 32.7664" stroke="#00B67A" stroke-width="3" stroke-linecap="round" stroke-linejoin="round"/>
<path opacity="0.4" d="M20.3857 24.4633C20.5907 24.4291 20.8298 24.4291 21.0348 24.4633C25.7498 24.2925 29.5082 20.4316 29.5082 15.6483C29.5082 10.7625 25.579 6.83331 20.6932 6.83331C15.8073 6.83331 11.8782 10.7966 11.8782 15.6483C11.9123 20.4316 15.6707 24.2925 20.3857 24.4633Z" stroke="#00B67A" stroke-width="3" stroke-linecap="round" stroke-linejoin="round"/>
<path opacity="0.4" d="M23.908 49.3374C19.2272 50.1232 14.068 49.3032 10.4464 46.8774C5.62888 43.6657 5.62888 38.404 10.4464 35.1924C14.1022 32.7664 19.3297 31.9464 24.0105 32.7664" stroke="#00B67A" stroke-width="3" stroke-linecap="round" stroke-linejoin="round"/>
<path d="M41.0003 49.9865C40.7953 49.9524 40.5561 49.9524 40.3511 49.9865C35.6361 49.8157 31.8777 45.9549 31.8777 41.1715C31.8777 36.2857 35.8069 32.3566 40.6928 32.3566C45.5786 32.3566 49.5078 36.3199 49.5078 41.1715C49.4736 45.9549 45.7153 49.8499 41.0003 49.9865Z" stroke="#00B67A" stroke-width="3" stroke-linecap="round" stroke-linejoin="round"/>
<path d="M31.0599 60.7497C26.2424 63.9614 26.2424 69.2227 31.0599 72.4344C36.5266 76.0902 45.4782 76.0902 50.9449 72.4344C55.7624 69.2227 55.7624 63.9614 50.9449 60.7497C45.5124 57.128 36.5266 57.128 31.0599 60.7497Z" stroke="#00B67A" stroke-width="3" stroke-linecap="round" stroke-linejoin="round"/>
</svg>
