<svg width="68" height="68" viewBox="0 0 68 68" fill="none" xmlns="http://www.w3.org/2000/svg">
<path d="M51 52.1333H17V54.4H51V52.1333Z" fill="#197FE3"/>
<path d="M51 58.9333H17V61.2H51V58.9333Z" fill="#197FE3"/>
<path d="M53.2667 33.9999C54.5185 33.9999 55.5333 32.9851 55.5333 31.7332C55.5333 30.4814 54.5185 29.4666 53.2667 29.4666C52.0148 29.4666 51 30.4814 51 31.7332C51 32.9851 52.0148 33.9999 53.2667 33.9999Z" fill="#197FE3"/>
<path d="M60.0665 20.4H55.5332V4.53333C55.5332 2.03994 53.4931 0 50.9999 0H17C14.5066 0 12.4666 2.03994 12.4666 4.53333V20.4H7.9333C4.07991 20.4 1.1333 23.3466 1.1333 27.2V47.6C1.13318 51.4534 4.07991 54.4 7.9333 54.4H12.4666V63.4667C12.4666 65.9599 14.5066 68 17 68H51C53.4932 68 55.5333 65.9599 55.5333 63.4667V54.4H60.0666C63.92 54.4 66.8666 51.4534 66.8666 47.6V27.2C66.8666 23.3466 63.9199 20.4 60.0665 20.4ZM14.7332 4.53333C14.7332 3.40006 15.6398 2.26667 16.9998 2.26667H50.9999C52.1331 2.26667 53.2665 3.17333 53.2665 4.53333V20.4H14.7332V4.53333ZM53.2666 63.4667C53.2666 64.5999 52.36 65.7333 51 65.7333H17C15.8667 65.7333 14.7333 64.8267 14.7333 63.4667V47.6H53.2666V63.4667ZM64.5999 47.6C64.5999 50.0933 62.5598 52.1333 60.0665 52.1333H55.5332V45.3333H12.4666V52.1333H7.9333C5.43991 52.1333 3.39997 50.0933 3.39997 47.6V27.2C3.39997 24.7066 5.43991 22.6667 7.9333 22.6667H60.0666C62.5599 22.6667 64.6 24.7066 64.6 27.2L64.5999 47.6Z" fill="#197FE3"/>
</svg>
