<svg width="82" height="82" viewBox="0 0 82 82" fill="none" xmlns="http://www.w3.org/2000/svg">
<path d="M29.6224 47.8333H13.6666C9.90825 47.8333 6.83325 50.9083 6.83325 54.6666V75.1666H29.6224V47.8333Z" stroke="#00B67A" stroke-width="3" stroke-miterlimit="10" stroke-linecap="round" stroke-linejoin="round"/>
<path d="M45.5448 34.1667H36.4223C32.6639 34.1667 29.5889 37.2417 29.5889 41V75.1667H52.3782V41C52.3782 37.2417 49.3373 34.1667 45.5448 34.1667Z" stroke="#00B67A" stroke-width="3" stroke-miterlimit="10" stroke-linecap="round" stroke-linejoin="round"/>
<path d="M68.3338 58.0833H52.3779V75.1666H75.1671V64.9166C75.1671 61.1583 72.0921 58.0833 68.3338 58.0833Z" stroke="#00B67A" stroke-width="3" stroke-miterlimit="10" stroke-linecap="round" stroke-linejoin="round"/>
<path opacity="0.4" d="M42.7773 7.07189L44.5882 10.6936C44.8273 11.2061 45.4765 11.6844 46.0232 11.7527L49.3032 12.2994C51.3873 12.6411 51.8998 14.1785 50.3965 15.6477L47.834 18.2102C47.3898 18.6543 47.1507 19.4744 47.2873 20.0552L48.0048 23.1986C48.5857 25.6927 47.2532 26.6494 45.0665 25.3511L41.9915 23.5403C41.4448 23.1986 40.5223 23.1986 39.9757 23.5403L36.9007 25.3511C34.714 26.6494 33.3816 25.6927 33.9625 23.1986L34.6798 20.0552C34.8165 19.4744 34.5773 18.6202 34.1333 18.2102L31.605 15.6819C30.1016 14.1785 30.58 12.6752 32.6983 12.3335L35.9782 11.7869C36.5248 11.6844 37.174 11.2061 37.4132 10.7278L39.224 7.10599C40.2148 5.12433 41.7865 5.12439 42.7773 7.07189Z" stroke="#00B67A" stroke-width="3" stroke-linecap="round" stroke-linejoin="round"/>
</svg>
