<svg width="60" height="60" viewBox="0 0 60 60" fill="none" xmlns="http://www.w3.org/2000/svg">
<path d="M30.4699 47.9598C40.0355 47.9598 47.7899 40.2054 47.7899 30.6398C47.7899 21.0743 40.0355 13.3198 30.4699 13.3198C20.9043 13.3198 13.1499 21.0743 13.1499 30.6398C13.1499 40.2054 20.9043 47.9598 30.4699 47.9598Z" fill="#00B67A"/>
<path d="M12.8501 43.4398C10.012 39.4009 8.64796 34.5094 8.98651 29.5847C9.32506 24.66 11.3456 20.0012 14.7097 16.3886C18.0738 12.7761 22.5771 10.4293 27.4653 9.7414C32.3535 9.05345 37.3296 10.0661 41.5601 12.6098C41.9001 12.8098 40.6301 12.0598 40.9601 12.2798" stroke="#4A4A55" stroke-width="3" stroke-miterlimit="10" stroke-linecap="round"/>
<path d="M47.0001 17.27C50.2544 21.1782 52.0202 26.1122 51.9845 31.1978C51.9489 36.2833 50.1142 41.1921 46.8054 45.0543C43.4967 48.9165 38.9276 51.4827 33.9077 52.2983C28.8879 53.1138 23.7413 52.1261 19.3801 49.51C18.3801 48.93 19.9001 49.73 19.0601 49.02" stroke="#4A4A55" stroke-width="3" stroke-miterlimit="10" stroke-linecap="round"/>
<path d="M40.3899 7.27002L41.7499 12.72" stroke="#4A4A55" stroke-width="3" stroke-miterlimit="10" stroke-linecap="round"/>
<path d="M41.75 12.7202L36.3 14.0802" stroke="#4A4A55" stroke-width="3" stroke-miterlimit="10" stroke-linecap="round"/>
<path d="M23.22 47.1899L17.77 48.5499" stroke="#4A4A55" stroke-width="3" stroke-miterlimit="10" stroke-linecap="round"/>
<path d="M17.77 48.5498L19.13 53.9998" stroke="#4A4A55" stroke-width="3" stroke-miterlimit="10" stroke-linecap="round"/>
<path d="M22.5701 24.79H38.3701" stroke="#4A4A55" stroke-width="3" stroke-miterlimit="10" stroke-linecap="round"/>
<path d="M22.5701 30.6401H38.3701" stroke="#4A4A55" stroke-width="3" stroke-miterlimit="10" stroke-linecap="round"/>
<path d="M22.04 36.4902H38.89" stroke="#4A4A55" stroke-width="3" stroke-miterlimit="10" stroke-linecap="round"/>
</svg>
