<svg width="32" height="32" viewBox="0 0 32 32" fill="none" xmlns="http://www.w3.org/2000/svg">
<path d="M16.55 23.8375L22.85 27.8375C23.6625 28.35 24.6625 27.5875 24.425 26.65L22.6 19.475C22.5507 19.2761 22.5585 19.0674 22.6227 18.8727C22.6868 18.6782 22.8046 18.5056 22.9625 18.3751L28.6125 13.6625C29.35 13.05 28.975 11.8126 28.0125 11.7501L20.6375 11.275C20.4363 11.2633 20.2428 11.1932 20.0808 11.0734C19.9187 10.9535 19.795 10.789 19.725 10.6L16.975 3.67505C16.9022 3.47491 16.7695 3.30206 16.5952 3.17987C16.4208 3.05774 16.2129 2.99219 16 2.99219C15.787 2.99219 15.5792 3.05774 15.4048 3.17987C15.2303 3.30206 15.0978 3.47491 15.025 3.67505L12.275 10.6C12.205 10.789 12.0813 10.9535 11.9192 11.0734C11.7572 11.1932 11.5637 11.2633 11.3625 11.275L3.98755 11.7501C3.02502 11.8126 2.65002 13.05 3.38745 13.6625L9.03748 18.3751C9.19543 18.5056 9.31323 18.6782 9.37732 18.8727C9.44153 19.0674 9.44934 19.2761 9.40002 19.475L7.71252 26.1251C7.42505 27.2501 8.625 28.1625 9.58752 27.55L15.45 23.8375C15.6144 23.733 15.8052 23.6775 16 23.6775C16.1948 23.6775 16.3856 23.733 16.55 23.8375Z" fill="#FFBA35"/>
</svg>
