<svg width="60" height="60" viewBox="0 0 60 60" fill="none" xmlns="http://www.w3.org/2000/svg">
<path d="M49 17.3302C48.9586 14.174 48.5013 11.0369 47.64 8.00021C47.6346 7.9822 47.6243 7.96608 47.6101 7.9537C47.596 7.94131 47.5786 7.93317 47.56 7.93021C46.44 7.76021 31 6.24021 21.41 17.1402C21.3998 17.1511 21.3874 17.1598 21.3736 17.1657C21.3598 17.1716 21.345 17.1747 21.33 17.1747C21.3151 17.1747 21.3002 17.1716 21.2865 17.1657C21.2727 17.1598 21.2603 17.1511 21.25 17.1402C20.1616 15.9498 18.7434 15.1106 17.1761 14.7294C15.6088 14.3483 13.9635 14.4426 12.45 15.0002C11.0692 15.5503 9.86163 16.4616 8.95383 17.6385C8.04603 18.8155 7.47137 20.2149 7.29003 21.6902C7.10597 22.767 7.16393 23.8713 7.4597 24.923C7.75548 25.9746 8.28165 26.9472 9.00003 27.7702C9.01789 27.7818 9.03873 27.788 9.06003 27.788C9.08134 27.788 9.10218 27.7818 9.12003 27.7702L16.24 25.1202C16.2601 25.1147 16.2812 25.115 16.3011 25.121C16.321 25.127 16.3387 25.1385 16.3523 25.1542C16.3659 25.1699 16.3748 25.1891 16.3779 25.2097C16.3811 25.2302 16.3783 25.2512 16.37 25.2702C15.391 27.6619 14.9473 30.2388 15.07 32.8202C15.0981 33.268 15.2182 33.7052 15.423 34.1044C15.6278 34.5036 15.9127 34.8562 16.26 35.1402L26.69 43.7702C27.0362 44.0577 27.4372 44.2715 27.8688 44.3988C28.3004 44.526 28.7533 44.5639 29.2 44.5102C31.7573 44.1459 34.2042 43.2279 36.37 41.8202C36.3867 41.8054 36.4079 41.7965 36.4302 41.7952C36.4526 41.7938 36.4747 41.7999 36.4931 41.8126C36.5115 41.8252 36.5252 41.8437 36.5319 41.865C36.5386 41.8863 36.5379 41.9093 36.53 41.9302L35.27 49.4002C35.2654 49.424 35.2688 49.4487 35.2796 49.4704C35.2905 49.4921 35.3082 49.5096 35.33 49.5202C36.2738 50.0689 37.3276 50.401 38.4154 50.4927C39.5032 50.5844 40.5978 50.4332 41.62 50.0502C43.0333 49.5969 44.2988 48.772 45.284 47.6619C46.2691 46.5518 46.9378 45.1973 47.22 43.7402C47.4871 42.148 47.2729 40.5123 46.6049 39.0426C45.9368 37.5728 44.8453 36.3359 43.47 35.4902C43.4591 35.4799 43.4505 35.4675 43.4445 35.4538C43.4386 35.44 43.4355 35.4252 43.4355 35.4102C43.4355 35.3952 43.4386 35.3804 43.4445 35.3666C43.4505 35.3529 43.4591 35.3405 43.47 35.3302C46.2221 31.7418 48.0058 27.5063 48.65 23.0302" stroke="#4A4A55" stroke-width="3" stroke-miterlimit="10" stroke-linecap="round"/>
<path d="M32.65 39.4602C35.18 38.7102 37.55 36.8902 39.84 34.1302C47 25.5702 44 12.3402 44 12.3402C40.1644 11.9753 36.2968 12.5195 32.7108 13.9285C29.1247 15.3375 25.9212 17.5718 23.36 20.4502C21.239 22.6575 19.8795 25.4852 19.48 28.5202L32.65 39.4602Z" fill="#00B67A"/>
<path d="M34.8101 28.8799C37.8531 28.8799 40.32 26.413 40.32 23.3699C40.32 20.3268 37.8531 17.8599 34.8101 17.8599C31.767 17.8599 29.3 20.3268 29.3 23.3699C29.3 26.413 31.767 28.8799 34.8101 28.8799Z" stroke="#4A4A55" stroke-width="3" stroke-miterlimit="10" stroke-linecap="round"/>
<path d="M11.81 40.7998L9 44.1898" stroke="#4A4A55" stroke-width="3" stroke-miterlimit="10" stroke-linecap="round"/>
<path d="M16.9 45.0098L11.99 50.9498" stroke="#4A4A55" stroke-width="3" stroke-miterlimit="10" stroke-linecap="round"/>
<path d="M21.9899 49.2202L19.1799 52.6202" stroke="#4A4A55" stroke-width="3" stroke-miterlimit="10" stroke-linecap="round"/>
</svg>
