<svg width="61" height="61" viewBox="0 0 61 61" fill="none" xmlns="http://www.w3.org/2000/svg">
<path d="M59.0938 37.9344C59.0938 37.7438 59.0938 37.7438 59.0938 37.5532C59.0938 37.3626 59.0938 37.3626 58.9031 37.1719C58.9031 36.9813 58.7125 36.9813 58.7125 36.7907C58.7125 36.6001 58.5219 36.6001 58.3312 36.6001L58.1406 36.4094L6.67188 5.90944C5.71875 5.52819 4.575 5.71881 4.00312 6.67194C3.62187 7.62506 3.8125 8.76881 4.76562 9.34069L50.325 36.2188H5.71875C4.575 36.2188 3.8125 36.9813 3.8125 38.1251V49.5626C3.8125 52.8032 6.29062 55.2813 9.53125 55.2813H53.375C56.6156 55.2813 59.0938 52.8032 59.0938 49.5626V38.1251V37.9344ZM19.0625 47.6563H13.3438C12.2 47.6563 11.4375 46.8938 11.4375 45.7501C11.4375 44.6063 12.2 43.8438 13.3438 43.8438H19.0625C20.2062 43.8438 20.9688 44.6063 20.9688 45.7501C20.9688 46.8938 20.2062 47.6563 19.0625 47.6563Z" fill="#197FE3"/>
</svg>
