<svg width="73" height="61" viewBox="0 0 73 61" fill="none" xmlns="http://www.w3.org/2000/svg">
<path d="M70.669 57.0825C70.696 57.0099 70.7138 56.9322 70.7138 56.8495V46.2587C70.7138 45.9228 70.4403 45.6494 70.1043 45.6494H53.4165C53.0815 45.6494 52.8064 45.9228 52.8064 46.2587V56.8495C52.8064 56.932 52.8216 57.0099 52.8529 57.0825H70.669ZM53.7693 46.6132H69.7506V56.1928H53.7693V46.6132ZM73 59.6195C73 59.6195 73 60.3809 72.2379 60.3809C71.4775 60.3809 52.0442 60.3809 51.282 60.3809C50.5198 60.3809 50.5198 59.6195 50.5198 59.6195H52.8527H70.6688H73Z" fill="#197FE3"/>
<path d="M70.669 13.16C70.696 13.0891 70.7138 13.0116 70.7138 12.9304V2.33959C70.7138 2.00373 70.4403 1.72852 70.1043 1.72852H53.4165C53.0815 1.72852 52.8064 2.00373 52.8064 2.33959V12.9304C52.8064 13.0114 52.8216 13.089 52.8529 13.16H70.669ZM53.7693 2.6924H69.7506V12.272H53.7693V2.6924ZM73 15.7004C73 15.7004 73 16.46 72.2379 16.46C71.4775 16.46 52.0442 16.46 51.282 16.46C50.5198 16.46 50.5198 15.7004 50.5198 15.7004H52.8527H70.6688H73Z" fill="#197FE3"/>
<path d="M70.669 35.121C70.696 35.0484 70.7138 34.9723 70.7138 34.8914V24.299C70.7138 23.9631 70.4403 23.6897 70.1043 23.6897H53.4165C53.0815 23.6897 52.8064 23.9631 52.8064 24.299V34.8914C52.8064 34.9723 52.8216 35.0484 52.8529 35.121H70.669ZM53.7693 24.6536H69.7506V34.2314H53.7693V24.6536ZM73 37.6597C73 37.6597 73 38.4194 72.2379 38.4194C71.4775 38.4194 52.0442 38.4194 51.282 38.4194C50.5198 38.4194 50.5198 37.6597 50.5198 37.6597H52.8527H70.6688H73Z" fill="#197FE3"/>
<path d="M34.2145 15.03V29.1554H30.9482V30.9026H34.2145V45.0263C34.2153 47.5888 36.2925 49.6648 38.8549 49.6648H50.0575V48.0833H38.855C37.1669 48.0815 35.8014 46.7142 35.7996 45.0263V30.9026H47.5465V29.1554H35.7996V15.03C35.8014 13.3439 37.1669 11.9764 38.855 11.9764H50.0576V10.3931H38.855C36.2926 10.3931 34.2154 12.4693 34.2145 15.03Z" fill="#197FE3"/>
<path d="M25.2257 25.7493H23.8171V27.1572H25.2257V25.7493Z" fill="#197FE3"/>
<path d="M21.5055 25.6582C21.0683 25.6582 20.717 26.0128 20.717 26.4531C20.717 26.8904 21.0683 27.2414 21.5055 27.2414C21.9461 27.2414 22.2997 26.8904 22.2997 26.4531C22.2997 26.0127 21.9461 25.6582 21.5055 25.6582Z" fill="#197FE3"/>
<path d="M18.38 19.3262H5.77387C5.4919 19.3262 5.2583 19.5625 5.2583 19.8579C5.2583 20.1482 5.49204 20.3846 5.77387 20.3846H18.38C18.6651 20.3846 18.8974 20.1482 18.8974 19.8579C18.8974 19.5625 18.6653 19.3262 18.38 19.3262Z" fill="#197FE3"/>
<path d="M18.38 25.9231H5.77387C5.4919 25.9231 5.2583 26.1593 5.2583 26.453C5.2583 26.7452 5.49204 26.9832 5.77387 26.9832H18.38C18.6651 26.9832 18.8974 26.7452 18.8974 26.453C18.8974 26.1593 18.6653 25.9231 18.38 25.9231Z" fill="#197FE3"/>
<path d="M25.2257 38.9409H23.8171V40.3505H25.2257V38.9409Z" fill="#197FE3"/>
<path d="M21.5055 19.0613C21.0683 19.0613 20.717 19.4174 20.717 19.858C20.717 20.2936 21.0683 20.6464 21.5055 20.6464C21.9461 20.6464 22.2997 20.2936 22.2997 19.858C22.2997 19.4173 21.9461 19.0613 21.5055 19.0613Z" fill="#197FE3"/>
<path d="M18.38 32.5234H5.77387C5.4919 32.5234 5.2583 32.758 5.2583 33.0499C5.2583 33.3421 5.49204 33.5801 5.77387 33.5801H18.38C18.6651 33.5801 18.8974 33.3421 18.8974 33.0499C18.8974 32.758 18.6653 32.5234 18.38 32.5234Z" fill="#197FE3"/>
<path d="M18.38 39.1184H5.77387C5.4919 39.1184 5.2583 39.353 5.2583 39.6467C5.2583 39.937 5.49204 40.1751 5.77387 40.1751H18.38C18.6651 40.1751 18.8974 39.937 18.8974 39.6467C18.8974 39.353 18.6653 39.1184 18.38 39.1184Z" fill="#197FE3"/>
<path d="M25.2257 32.3442H23.8171V33.7555H25.2257V32.3442Z" fill="#197FE3"/>
<path d="M21.5055 32.2566C21.0683 32.2566 20.717 32.6109 20.717 33.0499C20.717 33.4872 21.0683 33.84 21.5055 33.84C21.9461 33.84 22.2997 33.4872 22.2997 33.0499C22.2997 32.6109 21.9461 32.2566 21.5055 32.2566Z" fill="#197FE3"/>
<path d="M25.2257 5.95874H23.8171V7.3664H25.2257V5.95874Z" fill="#197FE3"/>
<path d="M21.5055 5.86938C21.0683 5.86938 20.717 6.22385 20.717 6.66445C20.717 7.0983 21.0683 7.45111 21.5055 7.45111C21.9461 7.45111 22.2997 7.0983 22.2997 6.66445C22.2997 6.22385 21.9461 5.86938 21.5055 5.86938Z" fill="#197FE3"/>
<path d="M18.38 6.13452H5.77387C5.4919 6.13452 5.2583 6.37088 5.2583 6.66443C5.2583 6.95315 5.49204 7.19281 5.77387 7.19281H18.38C18.6651 7.19281 18.8974 6.95301 18.8974 6.66443C18.8974 6.37074 18.6653 6.13452 18.38 6.13452Z" fill="#197FE3"/>
<path d="M21.5055 38.8518C21.0683 38.8518 20.717 39.2063 20.717 39.6467C20.717 40.084 21.0683 40.4368 21.5055 40.4368C21.9461 40.4368 22.2997 40.084 22.2997 39.6467C22.2997 39.2063 21.9461 38.8518 21.5055 38.8518Z" fill="#197FE3"/>
<path d="M0.558838 0V60.4988H29.5438V0H0.558838ZM15.0496 56.0897C13.2915 56.0897 11.861 54.66 11.861 52.901C11.861 51.1387 13.2915 49.7074 15.0496 49.7074C16.8085 49.7074 18.2409 51.1387 18.2409 52.901C18.2407 54.6601 16.8085 56.0897 15.0496 56.0897ZM24.8056 42.0876H5.2946C4.00327 42.0876 2.95159 41.0073 2.95159 39.6787C2.95159 38.3452 4.00327 37.2649 5.2946 37.2649H24.8056C26.0976 37.2649 27.1511 38.3452 27.1511 39.6787C27.1511 41.0074 26.0976 42.0876 24.8056 42.0876ZM24.8056 35.4924H5.2946C4.00327 35.4924 2.95159 34.4106 2.95159 33.082C2.95159 31.7485 4.00327 30.6682 5.2946 30.6682H24.8056C26.0976 30.6682 27.1511 31.7485 27.1511 33.082C27.1511 34.4106 26.0976 35.4924 24.8056 35.4924ZM24.8056 28.8957H5.2946C4.00327 28.8957 2.95159 27.8104 2.95159 26.4853C2.95159 25.1516 4.00327 24.0697 5.2946 24.0697H24.8056C26.0976 24.0697 27.1511 25.1518 27.1511 26.4853C27.1511 27.8103 26.0976 28.8957 24.8056 28.8957ZM24.8056 22.2988H5.2946C4.00327 22.2988 2.95159 21.2152 2.95159 19.8901C2.95159 18.5548 4.00327 17.4728 5.2946 17.4728H24.8056C26.0976 17.4728 27.1511 18.5549 27.1511 19.8901C27.1511 21.2152 26.0976 22.2988 24.8056 22.2988ZM24.8056 15.7021H5.2946C4.00327 15.7021 2.95159 14.6185 2.95159 13.2917C2.95159 11.9582 4.00327 10.8761 5.2946 10.8761H24.8056C26.0976 10.8761 27.1511 11.9582 27.1511 13.2917C27.1511 14.6185 26.0976 15.7021 24.8056 15.7021ZM24.8056 9.10361H5.2946C4.00327 9.10361 2.95159 8.02174 2.95159 6.69319C2.95159 5.35968 4.00327 4.27934 5.2946 4.27934H24.8056C26.0976 4.27934 27.1511 5.35968 27.1511 6.69319C27.1511 8.02174 26.0976 9.10361 24.8056 9.10361Z" fill="#197FE3"/>
<path d="M25.2257 12.5557H23.8171V13.9651H25.2257V12.5557Z" fill="#197FE3"/>
<path d="M21.5055 12.4661C21.0683 12.4661 20.717 12.8205 20.717 13.2611C20.717 13.6968 21.0683 14.0496 21.5055 14.0496C21.9461 14.0496 22.2997 13.6968 22.2997 13.2611C22.2997 12.8207 21.9461 12.4661 21.5055 12.4661Z" fill="#197FE3"/>
<path d="M18.38 12.7312H5.77387C5.4919 12.7312 5.2583 12.9676 5.2583 13.2611C5.2583 13.5515 5.49204 13.7895 5.77387 13.7895H18.38C18.6651 13.7895 18.8974 13.5515 18.8974 13.2611C18.8974 12.9676 18.6653 12.7312 18.38 12.7312Z" fill="#197FE3"/>
<path d="M25.2257 19.1526H23.8171V20.562H25.2257V19.1526Z" fill="#197FE3"/>
</svg>
