<svg width="69" height="69" viewBox="0 0 69 69" fill="none" xmlns="http://www.w3.org/2000/svg">
<path d="M34.9043 17.4346C34.1411 17.0249 33.2809 16.8303 32.4157 16.8716C31.5505 16.913 30.7128 17.1886 29.9921 17.669L20.5248 23.9666H13.3081C11.8611 23.9684 10.4739 24.544 9.45068 25.5672C8.42749 26.5904 7.85188 27.9776 7.8501 29.4247V39.2625C7.85224 40.7093 8.42801 42.0962 9.45116 43.1191C10.4743 44.142 11.8613 44.7174 13.3081 44.7192H20.5302L29.9975 51.0182C30.7185 51.4977 31.5561 51.7726 32.421 51.8137C33.2859 51.8549 34.1458 51.6606 34.909 51.2517C35.6723 50.8427 36.3103 50.2344 36.7552 49.4916C37.2 48.7487 37.435 47.899 37.4352 47.0331V21.6541C37.4356 20.7873 37.2004 19.9368 36.7545 19.1936C36.3087 18.4503 35.6691 17.8423 34.9043 17.4346ZM34.3801 47.0331C34.3808 47.3472 34.2961 47.6556 34.135 47.9252C33.9738 48.1948 33.7424 48.4154 33.4654 48.5635C33.1884 48.7115 32.8763 48.7814 32.5626 48.7656C32.2489 48.7498 31.9455 48.6489 31.6847 48.4738L21.8334 41.9188C21.5827 41.7518 21.2882 41.6627 20.9871 41.6627H13.3054C12.6688 41.6624 12.0584 41.4094 11.6081 40.9594C11.1579 40.5094 10.9046 39.8991 10.9039 39.2625V29.4247C10.9046 28.7879 11.1578 28.1775 11.6081 27.7273C12.0583 27.2771 12.6687 27.0238 13.3054 27.0231H20.9871C21.2882 27.0231 21.5827 26.934 21.8334 26.7671L31.6901 20.2148C31.9508 20.0396 32.2543 19.9387 32.568 19.9229C32.8817 19.9071 33.1938 19.977 33.4708 20.1251C33.7477 20.2731 33.9792 20.4938 34.1404 20.7634C34.3015 21.033 34.3862 21.3413 34.3854 21.6554L34.3801 47.0331Z" fill="#197FE3"/>
<path d="M43.9012 26.6904C43.6371 26.3907 43.2661 26.2064 42.8678 26.1768C42.4695 26.1472 42.0754 26.2748 41.7699 26.5321C41.4645 26.7895 41.2719 27.1562 41.2335 27.5538C41.1951 27.9514 41.3138 28.3482 41.5643 28.6593L41.8406 28.9881C43.0971 30.4636 43.7495 32.3594 43.667 34.2956C43.5845 36.2317 42.7733 38.0652 41.3959 39.4284C41.1413 39.7203 41.007 40.098 41.0202 40.485C41.0334 40.8721 41.193 41.2398 41.4669 41.5136C41.7408 41.7875 42.1084 41.9472 42.4955 41.9604C42.8826 41.9736 43.2602 41.8393 43.5521 41.5847C45.4616 39.6749 46.5848 37.1181 46.6996 34.42C46.8144 31.7218 45.9124 29.0788 44.172 27.0138L43.9012 26.6904Z" fill="#197FE3"/>
<path d="M49.5586 21.2054C49.3202 20.8835 48.9649 20.668 48.5692 20.6054C48.1735 20.5429 47.7691 20.6382 47.4429 20.8708C47.1168 21.1035 46.8951 21.4549 46.8255 21.8495C46.7559 22.244 46.844 22.6501 47.0709 22.9803C49.4697 26.3435 50.7591 30.3716 50.7591 34.5027C50.7591 38.6338 49.4697 42.6619 47.0709 46.0252C46.844 46.3554 46.7559 46.7615 46.8255 47.156C46.8951 47.5505 47.1168 47.902 47.4429 48.1346C47.7691 48.3673 48.1735 48.4626 48.5692 48.4C48.9649 48.3375 49.3202 48.122 49.5586 47.8001C52.3276 43.919 53.8159 39.2703 53.8159 34.5027C53.8159 29.7352 52.3276 25.0865 49.5586 21.2054Z" fill="#197FE3"/>
<path d="M55.5235 15.3471C55.4827 15.2861 55.4376 15.2281 55.3888 15.1733C55.1312 14.8955 54.7796 14.7232 54.4022 14.69C54.0249 14.6567 53.6486 14.7648 53.3464 14.9933C53.0442 15.2218 52.8377 15.5544 52.7668 15.9265C52.696 16.2987 52.7659 16.6839 52.963 17.0074C56.275 22.2447 58.0321 28.3146 58.0299 34.5112C58.0278 40.7078 56.2665 46.7765 52.9509 52.0115C52.8294 52.1802 52.7437 52.3719 52.699 52.5749C52.6542 52.7779 52.6513 52.9879 52.6905 53.192C52.7296 53.3962 52.81 53.5902 52.9268 53.7622C53.0435 53.9342 53.1941 54.0806 53.3693 54.1924C53.5446 54.3042 53.7408 54.3791 53.946 54.4125C54.1511 54.4459 54.361 54.437 54.5626 54.3865C54.7643 54.336 54.9535 54.2449 55.1187 54.1188C55.2839 53.9926 55.4217 53.8341 55.5235 53.6529C59.1673 47.9293 61.1028 41.285 61.1028 34.5C61.1028 27.715 59.1673 21.0707 55.5235 15.3471Z" fill="#197FE3"/>
</svg>
