<svg aria-hidden="true" style="position: absolute; width: 0; height: 0; overflow: hidden;" version="1.1" xmlns="http://www.w3.org/2000/svg" xmlns:xlink="http://www.w3.org/1999/xlink">
<defs>
<symbol id="icon-ranking" viewBox="0 0 32 32">
<path fill="none"   stroke-linejoin="round" stroke-linecap="round" stroke-miterlimit="10" stroke-width="1.1707" d="M11.56 18.667h-6.227c-1.467 0-2.667 1.2-2.667 2.667v8h8.893v-10.667z"></path>
<path fill="none"   stroke-linejoin="round" stroke-linecap="round" stroke-miterlimit="10" stroke-width="1.1707" d="M17.774 13.333h-3.56c-1.467 0-2.667 1.2-2.667 2.667v13.333h8.893v-13.333c0-1.467-1.187-2.667-2.667-2.667z"></path>
<path fill="none"   stroke-linejoin="round" stroke-linecap="round" stroke-miterlimit="10" stroke-width="1.1707" d="M26.667 22.667h-6.227v6.667h8.893v-4c0-1.467-1.2-2.667-2.667-2.667z"></path>
<path fill="none" opacity="0.4"   stroke-linejoin="round" stroke-linecap="round" stroke-miterlimit="4" stroke-width="1.1707" d="M16.694 2.76l0.707 1.413c0.093 0.2 0.347 0.387 0.56 0.413l1.28 0.213c0.813 0.133 1.013 0.733 0.427 1.307l-1 1c-0.173 0.173-0.267 0.493-0.213 0.72l0.28 1.227c0.227 0.973-0.293 1.347-1.147 0.84l-1.2-0.707c-0.213-0.133-0.573-0.133-0.787 0l-1.2 0.707c-0.853 0.507-1.373 0.133-1.147-0.84l0.28-1.227c0.053-0.227-0.040-0.56-0.213-0.72l-0.987-0.987c-0.587-0.587-0.4-1.173 0.427-1.307l1.28-0.213c0.213-0.040 0.467-0.227 0.56-0.413l0.707-1.413c0.387-0.773 1-0.773 1.387-0.013z"></path>
</symbol>
<symbol id="icon-people" viewBox="0 0 32 32">
<path fill="none" opacity="0.4"   stroke-linejoin="round" stroke-linecap="round" stroke-miterlimit="4" stroke-width="1.1707" d="M23.997 9.547c-0.080-0.013-0.173-0.013-0.253 0-1.84-0.067-3.307-1.573-3.307-3.44 0-1.907 1.533-3.44 3.44-3.44s3.44 1.547 3.44 3.44c-0.013 1.867-1.48 3.373-3.32 3.44z"></path>
<path fill="none" opacity="0.4"   stroke-linejoin="round" stroke-linecap="round" stroke-miterlimit="4" stroke-width="1.1707" d="M22.623 19.254c1.827 0.307 3.84-0.013 5.253-0.96 1.88-1.253 1.88-3.307 0-4.56-1.427-0.947-3.467-1.267-5.293-0.947"></path>
<path fill="none" opacity="0.4"   stroke-linejoin="round" stroke-linecap="round" stroke-miterlimit="4" stroke-width="1.1707" d="M7.955 9.547c0.080-0.013 0.173-0.013 0.253 0 1.84-0.067 3.307-1.573 3.307-3.44 0-1.907-1.533-3.44-3.44-3.44s-3.44 1.547-3.44 3.44c0.013 1.867 1.48 3.373 3.32 3.44z"></path>
<path fill="none" opacity="0.4"   stroke-linejoin="round" stroke-linecap="round" stroke-miterlimit="4" stroke-width="1.1707" d="M9.33 19.254c-1.827 0.307-3.84-0.013-5.253-0.96-1.88-1.253-1.88-3.307 0-4.56 1.427-0.947 3.467-1.267 5.293-0.947"></path>
<path fill="none"   stroke-linejoin="round" stroke-linecap="round" stroke-miterlimit="4" stroke-width="1.1707" d="M16 19.507c-0.080-0.013-0.173-0.013-0.253 0-1.84-0.067-3.307-1.573-3.307-3.44 0-1.907 1.533-3.44 3.44-3.44s3.44 1.547 3.44 3.44c-0.013 1.867-1.48 3.387-3.32 3.44z"></path>
<path fill="none"   stroke-linejoin="round" stroke-linecap="round" stroke-miterlimit="4" stroke-width="1.1707" d="M12.121 23.707c-1.88 1.253-1.88 3.307 0 4.56 2.133 1.427 5.627 1.427 7.76 0 1.88-1.253 1.88-3.307 0-4.56-2.12-1.413-5.627-1.413-7.76 0z"></path>
</symbol>
<symbol id="icon-shield" viewBox="0 0 32 32">
<path fill="none"   stroke-linejoin="round" stroke-linecap="round" stroke-miterlimit="4" stroke-width="1.1707" d="M13.987 2.973l-6.653 2.507c-1.533 0.573-2.787 2.387-2.787 4.013v9.907c0 1.573 1.040 3.64 2.307 4.587l5.733 4.28c1.88 1.413 4.973 1.413 6.853 0l5.733-4.28c1.267-0.947 2.307-3.013 2.307-4.587v-9.907c0-1.64-1.253-3.453-2.787-4.027l-6.653-2.493c-1.133-0.413-2.947-0.413-4.053 0z"></path>
<path fill="none" opacity="0.4"   stroke-linejoin="round" stroke-linecap="round" stroke-miterlimit="4" stroke-width="1.1707" d="M12.068 15.827l2.147 2.147 5.733-5.733"></path>
</symbol>
<symbol id="icon-verify" viewBox="0 0 32 32">
<path fill="none" opacity="0.34"  stroke-linejoin="round" stroke-linecap="round" stroke-miterlimit="4" stroke-width="1.1707" d="M11.174 16l3.213 3.227 6.44-6.453"></path>
<path fill="none"  stroke-linejoin="round" stroke-linecap="round" stroke-miterlimit="4" stroke-width="1.1707" d="M14.335 3.266c0.92-0.787 2.427-0.787 3.36 0l2.107 1.813c0.4 0.347 1.147 0.627 1.68 0.627h2.267c1.413 0 2.573 1.16 2.573 2.573v2.267c0 0.52 0.28 1.28 0.627 1.68l1.813 2.107c0.787 0.92 0.787 2.427 0 3.36l-1.813 2.107c-0.347 0.4-0.627 1.147-0.627 1.68v2.267c0 1.413-1.16 2.573-2.573 2.573h-2.267c-0.52 0-1.28 0.28-1.68 0.627l-2.107 1.813c-0.92 0.787-2.427 0.787-3.36 0l-2.107-1.813c-0.4-0.347-1.147-0.627-1.68-0.627h-2.307c-1.413 0-2.573-1.16-2.573-2.573v-2.28c0-0.52-0.28-1.267-0.613-1.667l-1.8-2.12c-0.773-0.92-0.773-2.413 0-3.333l1.8-2.12c0.333-0.4 0.613-1.147 0.613-1.667v-2.293c0-1.413 1.16-2.573 2.573-2.573h2.307c0.52 0 1.28-0.28 1.68-0.627l2.107-1.8z"></path>
</symbol>

  <symbol fill="currentColor" xmlns="http://www.w3.org/2000/svg" viewBox="0 0 32 32" id="icon-win-10">
    <path d="M14.0001 18V24.45C13.9999 24.5978 13.9674 24.7438 13.9048 24.8777C13.8421 25.0116 13.7509 25.1301 13.6376 25.225C13.4588 25.3736 13.2327 25.4534 13.0001 25.45H12.8251L4.82512 24C4.59124 23.9585 4.37979 23.835 4.22863 23.6518C4.07746 23.4686 3.99646 23.2375 4.00012 23V18C4.00012 17.7348 4.10548 17.4804 4.29301 17.2929C4.48055 17.1054 4.7349 17 5.00012 17H13.0001C13.2653 17 13.5197 17.1054 13.7072 17.2929C13.8948 17.4804 14.0001 17.7348 14.0001 18ZM13.6376 6.775C13.5257 6.68279 13.3951 6.61602 13.2548 6.57932C13.1145 6.54263 12.9679 6.53689 12.8251 6.5625L4.82512 8.0125C4.59338 8.05369 4.3836 8.1753 4.23269 8.35593C4.08178 8.53656 3.99943 8.76463 4.00012 9V14C4.00012 14.2652 4.10548 14.5196 4.29301 14.7071C4.48055 14.8946 4.7349 15 5.00012 15H13.0001C13.2653 15 13.5197 14.8946 13.7072 14.7071C13.8948 14.5196 14.0001 14.2652 14.0001 14V7.55C13.9999 7.40219 13.9674 7.25622 13.9048 7.12233C13.8421 6.98844 13.7509 6.86989 13.6376 6.775ZM27.0001 17H17.0001C16.7349 17 16.4805 17.1054 16.293 17.2929C16.1055 17.4804 16.0001 17.7348 16.0001 18V25.1875C16.0024 25.4207 16.086 25.6458 16.2367 25.8239C16.3873 26.0019 16.5955 26.1217 16.8251 26.1625L26.8251 27.9875H27.0001C27.2351 27.9922 27.463 27.9073 27.6376 27.75C27.749 27.6589 27.8392 27.5446 27.9018 27.4151C27.9644 27.2855 27.998 27.1439 28.0001 27V18C28.0001 17.7348 27.8948 17.4804 27.7072 17.2929C27.5197 17.1054 27.2653 17 27.0001 17ZM27.6376 4.2375C27.5281 4.1408 27.3981 4.07029 27.2573 4.03131C27.1165 3.99232 26.9687 3.98589 26.8251 4.0125L16.8251 5.8375C16.5955 5.8783 16.3873 5.99809 16.2367 6.17613C16.086 6.35418 16.0024 6.57928 16.0001 6.8125V14C16.0001 14.2652 16.1055 14.5196 16.293 14.7071C16.4805 14.8946 16.7349 15 17.0001 15H27.0001C27.2653 15 27.5197 14.8946 27.7072 14.7071C27.8948 14.5196 28.0001 14.2652 28.0001 14V5C27.9998 4.85401 27.9671 4.7099 27.9045 4.57806C27.8418 4.44621 27.7506 4.3299 27.6376 4.2375Z" ></path>
  </symbol>
   <symbol fill="currentColor" xmlns="http://www.w3.org/2000/svg" viewBox="0 0 69 69" id="sound_speaker">
    <path d="M34.9043 17.4346C34.1411 17.0249 33.2809 16.8303 32.4157 16.8716C31.5505 16.913 30.7128 17.1886 29.9921 17.669L20.5248 23.9666H13.3081C11.8611 23.9684 10.4739 24.544 9.45068 25.5672C8.42749 26.5904 7.85188 27.9776 7.8501 29.4247V39.2625C7.85224 40.7093 8.42801 42.0962 9.45116 43.1191C10.4743 44.142 11.8613 44.7174 13.3081 44.7192H20.5302L29.9975 51.0182C30.7185 51.4977 31.5561 51.7726 32.421 51.8137C33.2859 51.8549 34.1458 51.6606 34.909 51.2517C35.6723 50.8427 36.3103 50.2344 36.7552 49.4916C37.2 48.7487 37.435 47.899 37.4352 47.0331V21.6541C37.4356 20.7873 37.2004 19.9368 36.7545 19.1936C36.3087 18.4503 35.6691 17.8423 34.9043 17.4346ZM34.3801 47.0331C34.3808 47.3472 34.2961 47.6556 34.135 47.9252C33.9738 48.1948 33.7424 48.4154 33.4654 48.5635C33.1884 48.7115 32.8763 48.7814 32.5626 48.7656C32.2489 48.7498 31.9455 48.6489 31.6847 48.4738L21.8334 41.9188C21.5827 41.7518 21.2882 41.6627 20.9871 41.6627H13.3054C12.6688 41.6624 12.0584 41.4094 11.6081 40.9594C11.1579 40.5094 10.9046 39.8991 10.9039 39.2625V29.4247C10.9046 28.7879 11.1578 28.1775 11.6081 27.7273C12.0583 27.2771 12.6687 27.0238 13.3054 27.0231H20.9871C21.2882 27.0231 21.5827 26.934 21.8334 26.7671L31.6901 20.2148C31.9508 20.0396 32.2543 19.9387 32.568 19.9229C32.8817 19.9071 33.1938 19.977 33.4708 20.1251C33.7477 20.2731 33.9792 20.4938 34.1404 20.7634C34.3015 21.033 34.3862 21.3413 34.3854 21.6554L34.3801 47.0331Z" fill="currentColor"></path>
    <path d="M43.9012 26.6904C43.6371 26.3907 43.2661 26.2064 42.8678 26.1768C42.4695 26.1472 42.0754 26.2748 41.7699 26.5321C41.4645 26.7895 41.2719 27.1562 41.2335 27.5538C41.1951 27.9514 41.3138 28.3482 41.5643 28.6593L41.8406 28.9881C43.0971 30.4636 43.7495 32.3594 43.667 34.2956C43.5845 36.2317 42.7733 38.0652 41.3959 39.4284C41.1413 39.7203 41.007 40.098 41.0202 40.485C41.0334 40.8721 41.193 41.2398 41.4669 41.5136C41.7408 41.7875 42.1084 41.9472 42.4955 41.9604C42.8826 41.9736 43.2602 41.8393 43.5521 41.5847C45.4616 39.6749 46.5848 37.1181 46.6996 34.42C46.8144 31.7218 45.9124 29.0788 44.172 27.0138L43.9012 26.6904Z" fill="currentColor"></path>
    <path d="M49.5586 21.2054C49.3202 20.8835 48.9649 20.668 48.5692 20.6054C48.1735 20.5429 47.7691 20.6382 47.4429 20.8708C47.1168 21.1035 46.8951 21.4549 46.8255 21.8495C46.7559 22.244 46.844 22.6501 47.0709 22.9803C49.4697 26.3435 50.7591 30.3716 50.7591 34.5027C50.7591 38.6338 49.4697 42.6619 47.0709 46.0252C46.844 46.3554 46.7559 46.7615 46.8255 47.156C46.8951 47.5505 47.1168 47.902 47.4429 48.1346C47.7691 48.3673 48.1735 48.4626 48.5692 48.4C48.9649 48.3375 49.3202 48.122 49.5586 47.8001C52.3276 43.919 53.8159 39.2703 53.8159 34.5027C53.8159 29.7352 52.3276 25.0865 49.5586 21.2054Z" fill="currentColor"></path>
    <path d="M55.5235 15.3471C55.4827 15.2861 55.4376 15.2281 55.3888 15.1733C55.1312 14.8955 54.7796 14.7232 54.4022 14.69C54.0249 14.6567 53.6486 14.7648 53.3464 14.9933C53.0442 15.2218 52.8377 15.5544 52.7668 15.9265C52.696 16.2987 52.7659 16.6839 52.963 17.0074C56.275 22.2447 58.0321 28.3146 58.0299 34.5112C58.0278 40.7078 56.2665 46.7765 52.9509 52.0115C52.8294 52.1802 52.7437 52.3719 52.699 52.5749C52.6542 52.7779 52.6513 52.9879 52.6905 53.192C52.7296 53.3962 52.81 53.5902 52.9268 53.7622C53.0435 53.9342 53.1941 54.0806 53.3693 54.1924C53.5446 54.3042 53.7408 54.3791 53.946 54.4125C54.1511 54.4459 54.361 54.437 54.5626 54.3865C54.7643 54.336 54.9535 54.2449 55.1187 54.1188C55.2839 53.9926 55.4217 53.8341 55.5235 53.6529C59.1673 47.9293 61.1028 41.285 61.1028 34.5C61.1028 27.715 59.1673 21.0707 55.5235 15.3471Z" fill="currentColor"></path>
	  <symbol fill="currentColor" xmlns="http://www.w3.org/2000/svg" viewBox="0 0 78 78" id="chipset">
    <path d="M24.18 15.288V7.80005M31.512 15.288V7.80005M39 15.288V7.80005M46.488 15.288V7.80005M53.82 15.288V7.80005M24.18 70.2V62.712M31.512 70.2V62.712M39 70.2V62.712M46.488 70.2V62.712M53.82 70.2V62.712M62.712 24.18H70.2M62.712 31.512H70.2M62.712 39H70.2M62.712 46.488H70.2M62.712 53.82H70.2M7.80005 24.18H15.288M7.80005 31.512H15.288M7.80005 39H15.288M7.80005 46.488H15.288M7.80005 53.82H15.288"  stroke-width="3" stroke-linecap="round"></path>
    <path d="M59.1241 15.2881H19.0321C16.9643 15.2881 15.2881 16.9643 15.2881 19.0321V59.1241C15.2881 61.1918 16.9643 62.8681 19.0321 62.8681H59.1241C61.1918 62.8681 62.8681 61.1918 62.8681 59.1241V19.0321C62.8681 16.9643 61.1918 15.2881 59.1241 15.2881Z"  stroke-width="2"></path>
    <path d="M24.1799 53.8201H38.9999M24.1799 48.6721H46.4879"  stroke-width="2" stroke-linecap="round"></path>
  </symbol>




  <symbol fill="none" xmlns="http://www.w3.org/2000/svg" viewBox="0 0 68 68" id="graphic-card">
    <path d="M8.779 19.5454H64.6303C65.882 19.5454 67.0001 20.6433 67.0001 22.129V50.5073C67.0001 51.993 65.882 53.0909 64.6303 53.0909H8.779C7.52723 53.0909 6.40918 51.993 6.40918 50.5073V22.129C6.40918 20.6433 7.52723 19.5454 8.779 19.5454Z" stroke="#197FE3" stroke-width="2"></path>
    <path d="M41.0833 25.0833V45.9166H61.9166V25.0833H41.0833ZM42.8194 25.7777C43.3906 25.7777 43.861 26.2482 43.861 26.8194C43.861 27.3905 43.3906 27.861 42.8194 27.861C42.2482 27.861 41.7777 27.3905 41.7777 26.8194C41.7777 26.2482 42.2482 25.7777 42.8194 25.7777ZM51.4999 25.7777C56.8652 25.7777 61.2221 30.1346 61.2221 35.4999C61.2221 40.8653 56.8652 45.2221 51.4999 45.2221C46.1346 45.2221 41.7777 40.8653 41.7777 35.4999C41.7777 30.1346 46.1346 25.7777 51.4999 25.7777ZM60.1805 25.7777C60.7517 25.7777 61.2221 26.2482 61.2221 26.8194C61.2221 27.3905 60.7517 27.861 60.1805 27.861C59.6093 27.861 59.1388 27.3905 59.1388 26.8194C59.1388 26.2482 59.6093 25.7777 60.1805 25.7777ZM42.8194 26.4721C42.6235 26.4721 42.4721 26.6235 42.4721 26.8194C42.4721 27.0153 42.6235 27.1666 42.8194 27.1666C43.0152 27.1666 43.1666 27.0153 43.1666 26.8194C43.1666 26.6235 43.0152 26.4721 42.8194 26.4721ZM51.4999 26.4721C46.5099 26.4721 42.4721 30.5099 42.4721 35.4999C42.4721 40.4899 46.5099 44.5277 51.4999 44.5277C56.4899 44.5277 60.5277 40.4899 60.5277 35.4999C60.5277 30.5099 56.4899 26.4721 51.4999 26.4721ZM60.1805 26.4721C59.9846 26.4721 59.8333 26.6235 59.8333 26.8194C59.8333 27.0153 59.9846 27.1666 60.1805 27.1666C60.3764 27.1666 60.5277 27.0153 60.5277 26.8194C60.5277 26.6235 60.3764 26.4721 60.1805 26.4721ZM52.646 27.1666C53.1263 27.1666 53.6101 27.1881 54.0268 27.2319C54.4435 27.2756 54.7767 27.3258 55.0427 27.453C55.0468 27.453 55.0507 27.4599 55.0549 27.4599C55.1567 27.5134 55.2674 27.6285 55.3018 27.7638C55.3361 27.899 55.3059 28.0133 55.2706 28.1001C55.2 28.2736 55.0935 28.3965 54.9627 28.5436C54.701 28.8379 54.3292 29.1886 53.9631 29.5961C53.5969 30.0037 53.2411 30.4639 53.0204 30.9389C52.8132 31.385 52.7295 31.8323 52.8292 32.2953C53.6619 32.6423 54.3303 33.3042 54.6873 34.1317C55.775 33.6991 56.7561 33.4832 57.5668 33.4942C58.4523 33.506 59.1842 33.7871 59.5335 34.3921C59.6846 34.6539 59.7242 34.9592 59.7682 35.3619C59.8121 35.7646 59.8333 36.2406 59.8333 36.721C59.8333 37.2012 59.8119 37.685 59.7682 38.1017C59.7244 38.5183 59.6741 38.8517 59.5471 39.1176C59.545 39.1246 59.5422 39.126 59.5402 39.1302C59.4868 39.2319 59.3716 39.3426 59.2363 39.3769C59.1011 39.411 58.9867 39.3839 58.9 39.3457C58.7265 39.2752 58.6036 39.1673 58.4564 39.0365C58.1621 38.7749 57.8115 38.4044 57.4039 38.0382C56.9964 37.672 56.5362 37.3163 56.0611 37.0956C55.6024 36.8824 55.1427 36.7974 54.6655 36.9111C54.3208 37.6806 53.7045 38.2981 52.9389 38.6499C53.3825 39.7535 53.6037 40.7482 53.5926 41.5688C53.5807 42.4543 53.2998 43.1861 52.6947 43.5355C52.433 43.6866 52.1276 43.7248 51.7249 43.7687C51.3222 43.8125 50.8462 43.834 50.3659 43.834C49.8856 43.834 49.4018 43.8125 48.9851 43.7687C48.5685 43.725 48.2351 43.6747 47.9692 43.5477C47.9651 43.5477 47.9612 43.5477 47.957 43.5407C47.8553 43.4872 47.7445 43.3722 47.7102 43.2369C47.6759 43.1016 47.706 42.9873 47.7413 42.9005C47.812 42.727 47.9184 42.6029 48.0492 42.4556C48.3109 42.1613 48.6827 41.812 49.0489 41.4045C49.415 40.997 49.7708 40.5353 49.9915 40.0603C50.1986 39.6147 50.282 39.1691 50.1828 38.7067C49.3917 38.3804 48.7558 37.7671 48.3843 37.0005C47.2669 37.4534 46.2605 37.6762 45.4315 37.6651C44.546 37.6533 43.8141 37.3735 43.4648 36.7685C43.3137 36.5068 43.2755 36.2001 43.2315 35.7974C43.1877 35.3947 43.1665 34.9186 43.1665 34.4383C43.1665 33.958 43.1878 33.4755 43.2315 33.0589C43.2753 32.6423 43.3256 32.3076 43.4526 32.0417C43.4547 32.0347 43.4561 32.0333 43.4582 32.0291C43.472 32.0027 43.5156 31.9917 43.5368 31.9653C43.5818 31.8741 43.6647 31.807 43.7633 31.7821H43.7647C43.8279 31.7668 43.884 31.7613 43.9356 31.7648C44.0904 31.7745 44.2 31.8574 44.3005 31.9276C44.4348 32.0214 44.5672 32.1406 44.7142 32.2802C45.0082 32.5594 45.3568 32.9188 45.7504 33.2581C46.5047 33.9085 47.3777 34.4356 48.2664 34.2605C48.5942 33.4088 49.2439 32.7205 50.0703 32.344C49.6286 31.243 49.4083 30.2494 49.4193 29.4306C49.4312 28.5451 49.7121 27.8146 50.3172 27.4652C50.5789 27.3141 50.8844 27.2745 51.287 27.2305C51.6896 27.1868 52.1657 27.1653 52.646 27.1653V27.1666ZM52.646 27.861C52.1864 27.861 51.7303 27.8819 51.3629 27.9221C50.9956 27.9624 50.6939 28.0503 50.6644 28.0673C50.3486 28.2496 50.1238 28.6943 50.1137 29.4412C50.1044 30.1311 50.3377 31.0766 50.7526 32.1132C50.9939 32.0598 51.2428 32.0278 51.4999 32.0278C51.7208 32.0278 51.936 32.0507 52.1455 32.0903C52.1097 31.5805 52.1856 31.0864 52.3897 30.6471C52.6572 30.0713 53.0571 29.5652 53.4463 29.1322C53.8354 28.699 54.2191 28.3344 54.4432 28.0823C54.468 28.0545 54.4635 28.0531 54.4839 28.0281C54.3353 27.9906 54.2111 27.9494 53.9535 27.9224C53.5695 27.8821 53.1056 27.861 52.646 27.861ZM44.0265 32.6055C43.9889 32.7542 43.9489 32.8759 43.9221 33.1318C43.8817 33.5157 43.861 33.9797 43.861 34.4393C43.861 34.8989 43.882 35.3563 43.9221 35.7237C43.9622 36.0911 44.0488 36.3928 44.0658 36.4222C44.2482 36.7381 44.6942 36.9615 45.4412 36.9715C46.1342 36.9806 47.086 36.7443 48.1281 36.326C48.1267 36.3142 48.1267 36.2961 48.1253 36.2836C48.0663 36.0306 48.0276 35.7703 48.0276 35.4996C48.0276 35.2853 48.0499 35.0766 48.0873 34.873C47.0115 34.941 46.032 34.4186 45.2973 33.7852C44.874 33.4202 44.5112 33.0462 44.2353 32.7843C44.1488 32.7021 44.092 32.6602 44.0265 32.6055ZM51.4999 32.7221C49.9617 32.7221 48.7221 33.9617 48.7221 35.4999C48.7221 37.0382 49.9617 38.2777 51.4999 38.2777C53.0284 38.2777 54.2594 37.0531 54.275 35.5284C54.2757 35.509 54.2744 35.4895 54.275 35.4701C54.2587 33.9461 53.0279 32.7221 51.4999 32.7221ZM51.4999 33.4166C52.6464 33.4166 53.5833 34.3535 53.5833 35.4999C53.5833 36.6464 52.6464 37.5833 51.4999 37.5833C50.3535 37.5833 49.4166 36.6464 49.4166 35.4999C49.4166 34.3535 50.3535 33.4166 51.4999 33.4166ZM51.4999 34.111C50.7288 34.111 50.111 34.7287 50.111 35.4999C50.111 36.2711 50.7288 36.8888 51.4999 36.8888C52.2711 36.8888 52.8888 36.2711 52.8888 35.4999C52.8888 34.7287 52.2711 34.111 51.4999 34.111ZM57.5573 34.1883C56.8714 34.1793 55.9341 34.4097 54.9043 34.8204C54.9482 35.0403 54.9721 35.2673 54.9721 35.4999C54.9721 35.7476 54.9444 35.9884 54.8948 36.2215C55.4099 36.1833 55.9093 36.2583 56.3529 36.4643C56.9287 36.7318 57.4348 37.1318 57.8679 37.5209C58.301 37.91 58.6656 38.2937 58.9177 38.5178C58.9456 38.5428 58.9466 38.5379 58.9719 38.5587C59.0096 38.4101 59.0507 38.2859 59.0777 38.0284C59.1181 37.6445 59.1388 37.1805 59.1388 36.7209C59.1388 36.2613 59.1179 35.8053 59.0777 35.4379C59.0376 35.0704 58.9496 34.7688 58.9326 34.7393C58.7503 34.4235 58.3043 34.1984 57.5573 34.1883ZM52.2581 38.8826C52.0132 38.9375 51.7611 38.9721 51.4999 38.9721C51.2833 38.9721 51.0723 38.9492 50.8665 38.911C50.9021 39.4203 50.8263 39.9153 50.6224 40.3542C50.3548 40.9299 49.9549 41.4362 49.5658 41.8693C49.1767 42.3023 48.7929 42.6669 48.5689 42.919C48.5444 42.9468 48.5483 42.9468 48.5282 42.9718C48.6768 43.0093 48.801 43.0506 49.0585 43.0776C49.4424 43.1179 49.9064 43.1387 50.366 43.1387C50.8256 43.1387 51.2817 43.1179 51.6491 43.0776C52.0165 43.0373 52.3182 42.9508 52.3476 42.9338C52.6634 42.7515 52.8882 42.3055 52.8983 41.5585C52.9076 40.8678 52.6739 39.9206 52.2581 38.8826ZM42.8194 43.1388C43.3906 43.1388 43.861 43.6093 43.861 44.1805C43.861 44.7517 43.3906 45.2221 42.8194 45.2221C42.2482 45.2221 41.7777 44.7517 41.7777 44.1805C41.7777 43.6093 42.2482 43.1388 42.8194 43.1388ZM60.1805 43.1388C60.7517 43.1388 61.2221 43.6093 61.2221 44.1805C61.2221 44.7517 60.7517 45.2221 60.1805 45.2221C59.6093 45.2221 59.1388 44.7517 59.1388 44.1805C59.1388 43.6093 59.6093 43.1388 60.1805 43.1388ZM42.8194 43.8333C42.6235 43.8333 42.4721 43.9846 42.4721 44.1805C42.4721 44.3764 42.6235 44.5277 42.8194 44.5277C43.0152 44.5277 43.1666 44.3764 43.1666 44.1805C43.1666 43.9846 43.0152 43.8333 42.8194 43.8333ZM60.1805 43.8333C59.9846 43.8333 59.8333 43.9846 59.8333 44.1805C59.8333 44.3764 59.9846 44.5277 60.1805 44.5277C60.3764 44.5277 60.5277 44.3764 60.5277 44.1805C60.5277 43.9846 60.3764 43.8333 60.1805 43.8333Z" fill="#197FE3"></path>
    <path d="M0 8.5V11.4819H6.18925V52.5455H8.5V8.50963H7.49735V8.5H0Z" fill="#197FE3"></path>
    <path d="M10 54V57H11.6784V54H10ZM12.5437 54V57H14.2225V54H12.5437ZM15.0981 54V57H16.7769V54H15.0981ZM17.7152 54V57H19.3936V54H17.7152ZM20.3212 54V57H22V54H20.3212Z" fill="#197FE3"></path>
    <path d="M31 54V57H32.6784V54H31ZM33.5437 54V57H35.2225V54H33.5437ZM36.0981 54V57H37.7769V54H36.0981ZM38.7152 54V57H40.3936V54H38.7152ZM41.3212 54V57H43V54H41.3212Z" fill="#197FE3"></path>
    <path d="M30 31L14 31L14 32.5386L30 32.5386L30 31ZM30 33.3317L14 33.3317L14 34.8706L30 34.8706L30 33.3317ZM30 35.6732L14 35.6732L14 37.2121L30 37.2121L30 35.6732ZM30 38.0722L14 38.0722L14 39.6108L30 39.6108L30 38.0722ZM30 40.4611L14 40.4611L14 42L30 42L30 40.4611Z" fill="#197FE3"></path>
  </symbol>


  <symbol fill="none" xmlns="http://www.w3.org/2000/svg" viewBox="0 0 68 68" id="pci-card">
    <path d="M8.779 19.5454H64.6303C65.882 19.5454 67.0001 20.6433 67.0001 22.129V50.5073C67.0001 51.993 65.882 53.0909 64.6303 53.0909H8.779C7.52723 53.0909 6.40918 51.993 6.40918 50.5073V22.129C6.40918 20.6433 7.52723 19.5454 8.779 19.5454Z" stroke="#197FE3" stroke-width="2"></path>
    <path d="M0 8.5V11.4819H6.18925V52.5455H8.5V8.50963H7.49735V8.5H0Z" fill="#197FE3"></path>
    <path d="M47.0462 26.2727L46.5476 26.2896C46.1087 26.3044 46.0184 26.3213 45.7953 26.4291C45.4727 26.5851 45.1186 26.9382 44.959 27.2634L44.8348 27.517L44.8216 35.6897C44.812 41.5702 44.8218 43.9253 44.8566 44.087C44.9604 44.5706 45.4373 45.0885 45.945 45.2688C46.1138 45.3287 46.3022 45.3526 46.6226 45.3549L47.0664 45.358L47.1268 45.2172C47.2332 44.9686 47.4265 44.8259 47.6846 44.8052C47.9708 44.7823 48.1757 44.9037 48.3032 45.1723L48.3901 45.3549L49.5281 45.3565L50.0671 45.3572H50.0972L50.6664 45.358V45.3572H52.0095V45.3583H52.2484H52.4871V45.3572H53.788V45.3583H54.3516H54.9151V45.3572H56.2159V45.3583H56.4548H56.6938V45.3572H58.0369V45.3583H59.4569H60.8768L60.9635 45.1785C61.078 44.9411 61.2357 44.8304 61.4945 44.8055C61.8465 44.7717 62.199 45.0172 62.199 45.2963C62.199 45.3576 62.2355 45.3661 62.4322 45.3498C62.923 45.309 63.4938 44.8853 63.7437 44.3762L63.8682 44.1225L63.8794 35.9066C63.8904 27.8087 63.8893 27.687 63.8044 27.4356C63.5925 26.8082 62.9261 26.2813 62.344 26.2813C62.23 26.2813 62.199 26.2992 62.199 26.3648C62.199 26.4717 62.0078 26.6995 61.8493 26.7814C61.6939 26.8618 61.4487 26.8628 61.2973 26.7838C61.1464 26.7049 60.9596 26.5034 60.922 26.3788L60.8924 26.2813L54.6414 26.2829L48.3901 26.2844L48.3032 26.467C48.0659 26.967 47.3846 26.9692 47.1424 26.4707L47.0462 26.2727Z" stroke="#197FE3"></path>
    <path d="M56.9579 30.5894H51.7252C51.014 30.5894 50.4375 31.1659 50.4375 31.877V32.3195C50.4375 33.0307 51.014 33.6072 51.7252 33.6072H56.9579C57.6691 33.6072 58.2456 33.0307 58.2456 32.3195V31.877C58.2456 31.1659 57.6691 30.5894 56.9579 30.5894Z" fill="#197FE3"></path>
    <path d="M52.4084 30.5625V27.2566C52.4084 27.0534 52.2437 26.8887 52.0405 26.8887H51.9141C51.7109 26.8887 51.5462 27.0534 51.5462 27.2566V30.5625C51.5462 30.7657 51.7109 30.9305 51.9141 30.9305H52.0405C52.2437 30.9305 52.4084 30.7657 52.4084 30.5625Z" fill="#197FE3"></path>
    <path d="M53.9824 30.5627V27.2507C53.9824 27.0475 53.8177 26.8828 53.6145 26.8828H53.4881C53.2849 26.8828 53.1202 27.0475 53.1202 27.2507V30.5627C53.1202 30.7659 53.2849 30.9306 53.4881 30.9306H53.6145C53.8177 30.9306 53.9824 30.7659 53.9824 30.5627Z" fill="#197FE3"></path>
    <path d="M55.5371 30.5627V27.2507C55.5371 27.0475 55.3724 26.8828 55.1692 26.8828H55.0428C54.8396 26.8828 54.6749 27.0475 54.6749 27.2507V30.5627C54.6749 30.7659 54.8396 30.9306 55.0428 30.9306H55.1692C55.3724 30.9306 55.5371 30.7659 55.5371 30.5627Z" fill="#197FE3"></path>
    <path d="M57.105 30.5566V27.2446C57.105 27.0414 56.9403 26.8767 56.7371 26.8767H56.6106C56.4075 26.8767 56.2427 27.0414 56.2427 27.2446V30.5566C56.2427 30.7598 56.4075 30.9245 56.6106 30.9245H56.7371C56.9403 30.9245 57.105 30.7598 57.105 30.5566Z" fill="#197FE3"></path>
    <path d="M59.5618 38.3425V33.1097C59.5618 32.3985 58.9853 31.822 58.2741 31.822H57.8316C57.1204 31.822 56.5439 32.3985 56.5439 33.1097V38.3425C56.5439 39.0536 57.1204 39.6302 57.8316 39.6302H58.2741C58.9853 39.6302 59.5618 39.0536 59.5618 38.3425Z" fill="#197FE3"></path>
    <path d="M59.5886 33.7932H62.8945C63.0977 33.7932 63.2625 33.6285 63.2625 33.4253V33.2989C63.2625 33.0957 63.0977 32.931 62.8945 32.931H59.5886C59.3854 32.931 59.2207 33.0957 59.2207 33.2989V33.4253C59.2207 33.6285 59.3854 33.7932 59.5886 33.7932Z" fill="#197FE3"></path>
    <path d="M59.5887 35.3669H62.9006C63.1038 35.3669 63.2686 35.2022 63.2686 34.999V34.8726C63.2686 34.6694 63.1038 34.5047 62.9006 34.5047H59.5887C59.3855 34.5047 59.2208 34.6694 59.2208 34.8726V34.999C59.2208 35.2022 59.3855 35.3669 59.5887 35.3669Z" fill="#197FE3"></path>
    <path d="M59.5887 36.9216H62.9006C63.1038 36.9216 63.2686 36.7569 63.2686 36.5537V36.4273C63.2686 36.2241 63.1038 36.0594 62.9006 36.0594H59.5887C59.3855 36.0594 59.2208 36.2241 59.2208 36.4273V36.5537C59.2208 36.7569 59.3855 36.9216 59.5887 36.9216Z" fill="#197FE3"></path>
    <path d="M59.5946 38.4895H62.9065C63.1097 38.4895 63.2744 38.3248 63.2744 38.1216V37.9952C63.2744 37.792 63.1097 37.6273 62.9065 37.6273H59.5946C59.3914 37.6273 59.2266 37.792 59.2266 37.9952V38.1216C59.2266 38.3248 59.3914 38.4895 59.5946 38.4895Z" fill="#197FE3"></path>
    <path d="M49.1274 38.3764V33.1436C49.1274 32.4325 49.704 31.856 50.4151 31.856H50.8576C51.5688 31.856 52.1453 32.4325 52.1453 33.1436V38.3764C52.1453 39.0876 51.5688 39.6641 50.8576 39.6641H50.4151C49.704 39.6641 49.1274 39.0876 49.1274 38.3764Z" fill="#197FE3"></path>
    <path d="M49.1006 33.8269H45.7947C45.5915 33.8269 45.4268 33.6622 45.4268 33.459V33.3326C45.4268 33.1294 45.5915 32.9647 45.7947 32.9647H49.1006C49.3038 32.9647 49.4685 33.1294 49.4685 33.3326V33.459C49.4685 33.6622 49.3038 33.8269 49.1006 33.8269Z" fill="#197FE3"></path>
    <path d="M49.1008 35.4006H45.7888C45.5856 35.4006 45.4209 35.2359 45.4209 35.0327V34.9063C45.4209 34.7031 45.5856 34.5384 45.7888 34.5384H49.1008C49.304 34.5384 49.4687 34.7031 49.4687 34.9063V35.0327C49.4687 35.2359 49.304 35.4006 49.1008 35.4006Z" fill="#197FE3"></path>
    <path d="M49.1008 36.9556H45.7888C45.5856 36.9556 45.4209 36.7908 45.4209 36.5877V36.4612C45.4209 36.258 45.5856 36.0933 45.7888 36.0933H49.1008C49.304 36.0933 49.4687 36.258 49.4687 36.4612V36.5877C49.4687 36.7908 49.304 36.9556 49.1008 36.9556Z" fill="#197FE3"></path>
    <path d="M49.0947 38.5232H45.7827C45.5795 38.5232 45.4148 38.3585 45.4148 38.1553V38.0289C45.4148 37.8257 45.5795 37.6609 45.7827 37.6609H49.0947C49.2978 37.6609 49.4626 37.8257 49.4626 38.0289V38.1553C49.4626 38.3585 49.2978 38.5232 49.0947 38.5232Z" fill="#197FE3"></path>
    <path d="M56.9855 41.0693H51.7528C51.0416 41.0693 50.4651 40.4928 50.4651 39.7816V39.3392C50.4651 38.628 51.0416 38.0515 51.7528 38.0515H56.9855C57.6967 38.0515 58.2732 38.628 58.2732 39.3392V39.7816C58.2732 40.4928 57.6967 41.0693 56.9855 41.0693Z" fill="#197FE3"></path>
    <path d="M52.436 41.0961V44.4021C52.436 44.6053 52.2713 44.77 52.0681 44.77H51.9417C51.7385 44.77 51.5738 44.6053 51.5738 44.4021V41.0961C51.5738 40.893 51.7385 40.7282 51.9417 40.7282H52.0681C52.2713 40.7282 52.436 40.893 52.436 41.0961Z" fill="#197FE3"></path>
    <path d="M54.01 41.0963V44.4082C54.01 44.6114 53.8453 44.7761 53.6421 44.7761H53.5157C53.3125 44.7761 53.1478 44.6114 53.1478 44.4082V41.0963C53.1478 40.8931 53.3125 40.7283 53.5157 40.7283H53.6421C53.8453 40.7283 54.01 40.8931 54.01 41.0963Z" fill="#197FE3"></path>
    <path d="M55.5647 41.0963V44.4082C55.5647 44.6114 55.4 44.7761 55.1968 44.7761H55.0704C54.8672 44.7761 54.7024 44.6114 54.7024 44.4082V41.0963C54.7024 40.8931 54.8672 40.7283 55.0704 40.7283H55.1968C55.4 40.7283 55.5647 40.8931 55.5647 41.0963Z" fill="#197FE3"></path>
    <path d="M57.1323 41.1021V44.4141C57.1323 44.6173 56.9676 44.782 56.7644 44.782H56.638C56.4348 44.782 56.2701 44.6173 56.2701 44.4141V41.1021C56.2701 40.8989 56.4348 40.7342 56.638 40.7342H56.7644C56.9676 40.7342 57.1323 40.8989 57.1323 41.1021Z" fill="#197FE3"></path>
    <path d="M51.9935 43.6511H50.6472V45.3593H51.9935V43.6511Z" fill="#197FE3"></path>
    <path d="M51.4016 42.3936H51.2382C50.9115 42.3936 50.6467 42.6583 50.6467 42.985V43.6226C50.6467 43.9492 50.9115 44.214 51.2382 44.214H51.4016C51.7282 44.214 51.993 43.9492 51.993 43.6226V42.985C51.993 42.6583 51.7282 42.3936 51.4016 42.3936Z" fill="#197FE3"></path>
    <path d="M53.815 43.6499H52.4688V45.3581H53.815V43.6499Z" fill="#197FE3"></path>
    <path d="M53.2231 42.3921H53.0597C52.7331 42.3921 52.4683 42.6569 52.4683 42.9835V43.6211C52.4683 43.9477 52.7331 44.2125 53.0597 44.2125H53.2231C53.5497 44.2125 53.8145 43.9477 53.8145 43.6211V42.9835C53.8145 42.6569 53.5497 42.3921 53.2231 42.3921Z" fill="#197FE3"></path>
    <path d="M56.2418 43.6516H54.8955V45.3598H56.2418V43.6516Z" fill="#197FE3"></path>
    <path d="M55.6496 42.3936H55.4862C55.1596 42.3936 54.8948 42.6583 54.8948 42.985V43.6226C54.8948 43.9492 55.1596 44.214 55.4862 44.214H55.6496C55.9762 44.214 56.241 43.9492 56.241 43.6226V42.985C56.241 42.6583 55.9762 42.3936 55.6496 42.3936Z" fill="#197FE3"></path>
    <path d="M58.0194 43.6509H56.6731V45.3591H58.0194V43.6509Z" fill="#197FE3"></path>
    <path d="M57.4274 42.3931H57.264C56.9374 42.3931 56.6726 42.6579 56.6726 42.9845V43.6221C56.6726 43.9487 56.9374 44.2135 57.264 44.2135H57.4274C57.7541 44.2135 58.0189 43.9487 58.0189 43.6221V42.9845C58.0189 42.6579 57.7541 42.3931 57.4274 42.3931Z" fill="#197FE3"></path>
    <path fill-rule="evenodd" clip-rule="evenodd" d="M42.624 27.4191V28.9527H39.7512V32.5003H42.6213V34.0365H39.7512V37.8913H42.6213V39.4275H39.7512V42.4998H42.6213V44.036H39.7512V48.5526H13.471V44.036H10.6008V42.4998H13.471V39.4275H10.6008V37.8913H13.471V34.0391H10.6008V32.5029H13.471V28.9553H10.6008V27.4191H13.471V22.2671H39.7538V27.4191H42.624ZM20.4824 43.0858V29.1758H22.1334V43.0858H20.4824ZM22.9845 43.0858V29.1758H24.6358V43.0858H22.9845ZM25.4971 43.0858V29.1758H27.1484V43.0858H25.4971ZM28.0714 43.0858V29.1758H29.7224V43.0858H28.0714ZM30.6348 43.0858V29.1758H32.2861V43.0858H30.6348Z" fill="#197FE3"></path>
  </symbol>



  <symbol fill="currentColor" xmlns="http://www.w3.org/2000/svg" viewBox="0 0 68 68" id="printer">
    <path d="M51 52.1333H17V54.4H51V52.1333Z" ></path>
    <path d="M51 58.9333H17V61.2H51V58.9333Z" ></path>
    <path d="M53.2667 33.9999C54.5185 33.9999 55.5333 32.9851 55.5333 31.7332C55.5333 30.4814 54.5185 29.4666 53.2667 29.4666C52.0148 29.4666 51 30.4814 51 31.7332C51 32.9851 52.0148 33.9999 53.2667 33.9999Z" ></path>
    <path d="M60.0665 20.4H55.5332V4.53333C55.5332 2.03994 53.4931 0 50.9999 0H17C14.5066 0 12.4666 2.03994 12.4666 4.53333V20.4H7.9333C4.07991 20.4 1.1333 23.3466 1.1333 27.2V47.6C1.13318 51.4534 4.07991 54.4 7.9333 54.4H12.4666V63.4667C12.4666 65.9599 14.5066 68 17 68H51C53.4932 68 55.5333 65.9599 55.5333 63.4667V54.4H60.0666C63.92 54.4 66.8666 51.4534 66.8666 47.6V27.2C66.8666 23.3466 63.9199 20.4 60.0665 20.4ZM14.7332 4.53333C14.7332 3.40006 15.6398 2.26667 16.9998 2.26667H50.9999C52.1331 2.26667 53.2665 3.17333 53.2665 4.53333V20.4H14.7332V4.53333ZM53.2666 63.4667C53.2666 64.5999 52.36 65.7333 51 65.7333H17C15.8667 65.7333 14.7333 64.8267 14.7333 63.4667V47.6H53.2666V63.4667ZM64.5999 47.6C64.5999 50.0933 62.5598 52.1333 60.0665 52.1333H55.5332V45.3333H12.4666V52.1333H7.9333C5.43991 52.1333 3.39997 50.0933 3.39997 47.6V27.2C3.39997 24.7066 5.43991 22.6667 7.9333 22.6667H60.0666C62.5599 22.6667 64.6 24.7066 64.6 27.2L64.5999 47.6Z" ></path>
  </symbol>



 <symbol fill="none" xmlns="http://www.w3.org/2000/svg" viewBox="0 0 76 76" id="modem">
    <path d="M64.9041 20.0641C65.8161 18.3921 66.2721 16.5681 66.2721 14.5921C66.2721 12.7681 65.8161 10.7921 64.9041 9.12012"  stroke-width="2" stroke-linecap="round" stroke-linejoin="round"></path>
    <path d="M46.0561 20.0641C44.9921 18.3921 44.5361 16.5681 44.5361 14.5921C44.5361 12.7681 44.9921 10.7921 46.0561 9.12012"  stroke-width="2" stroke-linecap="round" stroke-linejoin="round"></path>
    <path fill-rule="evenodd" clip-rule="evenodd" d="M58.3681 40.2801C58.0641 40.1281 57.7601 40.1281 57.4561 39.9761L56.2401 17.6321C57.4561 17.1761 58.3681 16.1121 58.3681 14.7441C58.3681 13.0721 57.0001 11.7041 55.4801 11.7041C53.8081 11.7041 52.4401 13.0721 52.4401 14.7441C52.4401 16.1121 53.3521 17.1761 54.5681 17.6321L53.3521 39.9761C53.0481 40.1281 52.7441 40.1281 52.4401 40.2801C52.1361 40.4321 51.8321 40.4321 51.8321 40.5841L51.3761 41.6481H9.12008C7.44808 41.6481 6.08008 43.0161 6.08008 44.6881V61.4081C6.08008 63.0801 7.44808 64.4481 9.12008 64.4481H14.7441V65.3601C14.7441 66.1201 15.5041 66.8801 16.2641 66.8801H27.8161C28.5761 66.8801 29.3361 66.1201 29.3361 65.3601V64.4481H46.6641V65.3601C46.6641 66.1201 47.4241 66.8801 48.1841 66.8801H59.7361C60.4961 66.8801 61.2561 66.1201 61.2561 65.3601V64.4481H66.8801C68.5521 64.4481 69.9201 63.0801 69.9201 61.4081V44.6881C69.9201 43.0161 68.5521 41.6481 66.8801 41.6481H59.4321L58.9761 40.5841C58.9761 40.4321 58.6721 40.4321 58.3681 40.2801Z"  stroke-width="2" stroke-linecap="round" stroke-linejoin="round"></path>
    <path d="M61.104 11.4001C61.712 12.3121 61.864 13.5281 61.864 14.5921C61.864 15.8081 61.712 16.8721 61.104 17.9361"  stroke-width="2" stroke-linecap="round"></path>
    <path d="M49.7041 11.4001C49.2481 12.3121 48.9441 13.5281 48.9441 14.5921C48.9441 15.8081 49.2481 16.8721 49.7041 17.9361"  stroke-width="2" stroke-linecap="round"></path>
    <path fill-rule="evenodd" clip-rule="evenodd" d="M31.1601 45.6001C32.3761 45.6001 33.4401 46.5121 33.4401 47.8801C33.4401 49.0961 32.3761 50.1601 31.1601 50.1601C29.9441 50.1601 28.8801 49.0961 28.8801 47.8801C28.8801 46.5121 29.9441 45.6001 31.1601 45.6001Z"  stroke-width="2" stroke-linecap="round"></path>
    <path fill-rule="evenodd" clip-rule="evenodd" d="M22.04 45.6001C23.256 45.6001 24.32 46.5121 24.32 47.8801C24.32 49.0961 23.256 50.1601 22.04 50.1601C20.824 50.1601 19.76 49.0961 19.76 47.8801C19.76 46.5121 20.824 45.6001 22.04 45.6001Z"  stroke-width="2" stroke-linecap="round"></path>
    <path fill-rule="evenodd" clip-rule="evenodd" d="M12.9201 45.6001C14.1361 45.6001 15.2001 46.5121 15.2001 47.8801C15.2001 49.0961 14.1361 50.1601 12.9201 50.1601C11.7041 50.1601 10.6401 49.0961 10.6401 47.8801C10.6401 46.5121 11.7041 45.6001 12.9201 45.6001Z"  stroke-width="2" stroke-linecap="round"></path>
    <path d="M64.9042 59.1282H11.0962"  stroke-width="2" stroke-linecap="round"></path>
  </symbol>


  <symbol fill="currentColor" xmlns="http://www.w3.org/2000/svg" viewBox="0 0 73 61" id="server">
    <path d="M70.669 57.0825C70.696 57.0099 70.7138 56.9322 70.7138 56.8495V46.2587C70.7138 45.9228 70.4403 45.6494 70.1043 45.6494H53.4165C53.0815 45.6494 52.8064 45.9228 52.8064 46.2587V56.8495C52.8064 56.932 52.8216 57.0099 52.8529 57.0825H70.669ZM53.7693 46.6132H69.7506V56.1928H53.7693V46.6132ZM73 59.6195C73 59.6195 73 60.3809 72.2379 60.3809C71.4775 60.3809 52.0442 60.3809 51.282 60.3809C50.5198 60.3809 50.5198 59.6195 50.5198 59.6195H52.8527H70.6688H73Z" ></path>
    <path d="M70.669 13.16C70.696 13.0891 70.7138 13.0116 70.7138 12.9304V2.33959C70.7138 2.00373 70.4403 1.72852 70.1043 1.72852H53.4165C53.0815 1.72852 52.8064 2.00373 52.8064 2.33959V12.9304C52.8064 13.0114 52.8216 13.089 52.8529 13.16H70.669ZM53.7693 2.6924H69.7506V12.272H53.7693V2.6924ZM73 15.7004C73 15.7004 73 16.46 72.2379 16.46C71.4775 16.46 52.0442 16.46 51.282 16.46C50.5198 16.46 50.5198 15.7004 50.5198 15.7004H52.8527H70.6688H73Z" ></path>
    <path d="M70.669 35.121C70.696 35.0484 70.7138 34.9723 70.7138 34.8914V24.299C70.7138 23.9631 70.4403 23.6897 70.1043 23.6897H53.4165C53.0815 23.6897 52.8064 23.9631 52.8064 24.299V34.8914C52.8064 34.9723 52.8216 35.0484 52.8529 35.121H70.669ZM53.7693 24.6536H69.7506V34.2314H53.7693V24.6536ZM73 37.6597C73 37.6597 73 38.4194 72.2379 38.4194C71.4775 38.4194 52.0442 38.4194 51.282 38.4194C50.5198 38.4194 50.5198 37.6597 50.5198 37.6597H52.8527H70.6688H73Z" ></path>
    <path d="M34.2145 15.03V29.1554H30.9482V30.9026H34.2145V45.0263C34.2153 47.5888 36.2925 49.6648 38.8549 49.6648H50.0575V48.0833H38.855C37.1669 48.0815 35.8014 46.7142 35.7996 45.0263V30.9026H47.5465V29.1554H35.7996V15.03C35.8014 13.3439 37.1669 11.9764 38.855 11.9764H50.0576V10.3931H38.855C36.2926 10.3931 34.2154 12.4693 34.2145 15.03Z" ></path>
    <path d="M25.2257 25.7493H23.8171V27.1572H25.2257V25.7493Z" ></path>
    <path d="M21.5055 25.6582C21.0683 25.6582 20.717 26.0128 20.717 26.4531C20.717 26.8904 21.0683 27.2414 21.5055 27.2414C21.9461 27.2414 22.2997 26.8904 22.2997 26.4531C22.2997 26.0127 21.9461 25.6582 21.5055 25.6582Z" ></path>
    <path d="M18.38 19.3262H5.77387C5.4919 19.3262 5.2583 19.5625 5.2583 19.8579C5.2583 20.1482 5.49204 20.3846 5.77387 20.3846H18.38C18.6651 20.3846 18.8974 20.1482 18.8974 19.8579C18.8974 19.5625 18.6653 19.3262 18.38 19.3262Z" ></path>
    <path d="M18.38 25.9231H5.77387C5.4919 25.9231 5.2583 26.1593 5.2583 26.453C5.2583 26.7452 5.49204 26.9832 5.77387 26.9832H18.38C18.6651 26.9832 18.8974 26.7452 18.8974 26.453C18.8974 26.1593 18.6653 25.9231 18.38 25.9231Z" ></path>
    <path d="M25.2257 38.9409H23.8171V40.3505H25.2257V38.9409Z" ></path>
    <path d="M21.5055 19.0613C21.0683 19.0613 20.717 19.4174 20.717 19.858C20.717 20.2936 21.0683 20.6464 21.5055 20.6464C21.9461 20.6464 22.2997 20.2936 22.2997 19.858C22.2997 19.4173 21.9461 19.0613 21.5055 19.0613Z" ></path>
    <path d="M18.38 32.5234H5.77387C5.4919 32.5234 5.2583 32.758 5.2583 33.0499C5.2583 33.3421 5.49204 33.5801 5.77387 33.5801H18.38C18.6651 33.5801 18.8974 33.3421 18.8974 33.0499C18.8974 32.758 18.6653 32.5234 18.38 32.5234Z" ></path>
    <path d="M18.38 39.1184H5.77387C5.4919 39.1184 5.2583 39.353 5.2583 39.6467C5.2583 39.937 5.49204 40.1751 5.77387 40.1751H18.38C18.6651 40.1751 18.8974 39.937 18.8974 39.6467C18.8974 39.353 18.6653 39.1184 18.38 39.1184Z" ></path>
    <path d="M25.2257 32.3442H23.8171V33.7555H25.2257V32.3442Z" ></path>
    <path d="M21.5055 32.2566C21.0683 32.2566 20.717 32.6109 20.717 33.0499C20.717 33.4872 21.0683 33.84 21.5055 33.84C21.9461 33.84 22.2997 33.4872 22.2997 33.0499C22.2997 32.6109 21.9461 32.2566 21.5055 32.2566Z" ></path>
    <path d="M25.2257 5.95874H23.8171V7.3664H25.2257V5.95874Z" ></path>
    <path d="M21.5055 5.86938C21.0683 5.86938 20.717 6.22385 20.717 6.66445C20.717 7.0983 21.0683 7.45111 21.5055 7.45111C21.9461 7.45111 22.2997 7.0983 22.2997 6.66445C22.2997 6.22385 21.9461 5.86938 21.5055 5.86938Z" ></path>
    <path d="M18.38 6.13452H5.77387C5.4919 6.13452 5.2583 6.37088 5.2583 6.66443C5.2583 6.95315 5.49204 7.19281 5.77387 7.19281H18.38C18.6651 7.19281 18.8974 6.95301 18.8974 6.66443C18.8974 6.37074 18.6653 6.13452 18.38 6.13452Z" ></path>
    <path d="M21.5055 38.8518C21.0683 38.8518 20.717 39.2063 20.717 39.6467C20.717 40.084 21.0683 40.4368 21.5055 40.4368C21.9461 40.4368 22.2997 40.084 22.2997 39.6467C22.2997 39.2063 21.9461 38.8518 21.5055 38.8518Z" ></path>
    <path d="M0.558838 0V60.4988H29.5438V0H0.558838ZM15.0496 56.0897C13.2915 56.0897 11.861 54.66 11.861 52.901C11.861 51.1387 13.2915 49.7074 15.0496 49.7074C16.8085 49.7074 18.2409 51.1387 18.2409 52.901C18.2407 54.6601 16.8085 56.0897 15.0496 56.0897ZM24.8056 42.0876H5.2946C4.00327 42.0876 2.95159 41.0073 2.95159 39.6787C2.95159 38.3452 4.00327 37.2649 5.2946 37.2649H24.8056C26.0976 37.2649 27.1511 38.3452 27.1511 39.6787C27.1511 41.0074 26.0976 42.0876 24.8056 42.0876ZM24.8056 35.4924H5.2946C4.00327 35.4924 2.95159 34.4106 2.95159 33.082C2.95159 31.7485 4.00327 30.6682 5.2946 30.6682H24.8056C26.0976 30.6682 27.1511 31.7485 27.1511 33.082C27.1511 34.4106 26.0976 35.4924 24.8056 35.4924ZM24.8056 28.8957H5.2946C4.00327 28.8957 2.95159 27.8104 2.95159 26.4853C2.95159 25.1516 4.00327 24.0697 5.2946 24.0697H24.8056C26.0976 24.0697 27.1511 25.1518 27.1511 26.4853C27.1511 27.8103 26.0976 28.8957 24.8056 28.8957ZM24.8056 22.2988H5.2946C4.00327 22.2988 2.95159 21.2152 2.95159 19.8901C2.95159 18.5548 4.00327 17.4728 5.2946 17.4728H24.8056C26.0976 17.4728 27.1511 18.5549 27.1511 19.8901C27.1511 21.2152 26.0976 22.2988 24.8056 22.2988ZM24.8056 15.7021H5.2946C4.00327 15.7021 2.95159 14.6185 2.95159 13.2917C2.95159 11.9582 4.00327 10.8761 5.2946 10.8761H24.8056C26.0976 10.8761 27.1511 11.9582 27.1511 13.2917C27.1511 14.6185 26.0976 15.7021 24.8056 15.7021ZM24.8056 9.10361H5.2946C4.00327 9.10361 2.95159 8.02174 2.95159 6.69319C2.95159 5.35968 4.00327 4.27934 5.2946 4.27934H24.8056C26.0976 4.27934 27.1511 5.35968 27.1511 6.69319C27.1511 8.02174 26.0976 9.10361 24.8056 9.10361Z" ></path>
    <path d="M25.2257 12.5557H23.8171V13.9651H25.2257V12.5557Z" ></path>
    <path d="M21.5055 12.4661C21.0683 12.4661 20.717 12.8205 20.717 13.2611C20.717 13.6968 21.0683 14.0496 21.5055 14.0496C21.9461 14.0496 22.2997 13.6968 22.2997 13.2611C22.2997 12.8207 21.9461 12.4661 21.5055 12.4661Z" ></path>
    <path d="M18.38 12.7312H5.77387C5.4919 12.7312 5.2583 12.9676 5.2583 13.2611C5.2583 13.5515 5.49204 13.7895 5.77387 13.7895H18.38C18.6651 13.7895 18.8974 13.5515 18.8974 13.2611C18.8974 12.9676 18.6653 12.7312 18.38 12.7312Z" ></path>
    <path d="M25.2257 19.1526H23.8171V20.562H25.2257V19.1526Z" ></path>
  </symbol>

 <symbol id="usb" viewBox="0 0 32 32">
<path fill="#197fe3" d="M11.597 2.668v-0.914h-0.473l-0.273 0.385 0.746 0.529zM20.403 2.668l0.748-0.526-0.273-0.388h-0.475v0.914zM20.445 8.891v0.914h0.914v-0.914h-0.914zM11.556 8.891h-0.914v0.914h0.914v-0.914zM12.444 4.446v-0.914h-0.914v0.914h0.914zM12.444 7.113h-0.914v0.914h0.914v-0.914zM15.111 7.113v0.914h0.914v-0.914h-0.914zM15.111 4.446h0.914v-0.914h-0.914v0.914zM16.889 4.446v-0.914h-0.914v0.914h0.914zM16.889 7.113h-0.914v0.914h0.914v-0.914zM19.556 7.113v0.914h0.914v-0.914h-0.914zM19.556 4.446h0.914v-0.914h-0.914v0.914zM13.333 5.335v-0.914h-0.914v0.914h0.914zM14.222 5.335h0.914v-0.914h-0.914v0.914zM14.222 6.224v0.914h0.914v-0.914h-0.914zM13.333 6.224h-0.914v0.914h0.914v-0.914zM17.778 5.335v-0.914h-0.914v0.914h0.914zM18.667 5.335h0.914v-0.914h-0.914v0.914zM18.667 6.224v0.914h0.914v-0.914h-0.914zM17.778 6.224h-0.914v0.914h0.914v-0.914zM10.667 9.779v-0.914h-0.914v0.914h0.914zM21.333 9.779h0.914v-0.914h-0.914v0.914zM21.333 10.668v0.914h0.914v-0.914h-0.914zM10.667 10.668h-0.914v0.914h0.914v-0.914zM14.745 20.063l0.646-0.647-0.647-0.646-0.646 0.646 0.647 0.646zM14.116 20.691l-0.647-0.646-0.646 0.646 0.646 0.646 0.647-0.647zM16.007 21.418l-0.005 0.914h0.005v-0.914zM17.894 20.681l0.667 0.625 0.625-0.667-0.667-0.625-0.626 0.667zM17.247 20.073l0.626-0.667-0.667-0.626-0.626 0.667 0.667 0.625zM16.012 20.53l0.005-0.914h-0.005v0.914zM13.49 21.321l0.646-0.647-0.646-0.646-0.646 0.646 0.646 0.647zM12.861 21.95l-0.646-0.647-0.647 0.647 0.647 0.647 0.646-0.647zM16.010 23.16l0.007-0.914-0.001-0-0.006 0.914zM19.141 21.95l0.667 0.625 0.625-0.667-0.667-0.625-0.626 0.667zM18.491 21.34l0.626-0.667-0.667-0.626-0.626 0.667 0.667 0.625zM16.017 22.271l-0.008 0.914h0.002l0.006-0.914zM12.229 22.58l0.646-0.647-0.647-0.646-0.646 0.648 0.647 0.646zM11.602 23.208l-0.647-0.646-0.645 0.647 0.647 0.646 0.646-0.647zM16.017 24.891v0zM20.398 23.198l0.667 0.625 0.625-0.667-0.666-0.625-0.626 0.667zM19.75 22.59l0.626-0.667-0.667-0.626-0.626 0.667 0.667 0.625zM16.023 24.002l-0.006 0.914h0.001l0.005-0.914zM11.597 3.583h8.806v-1.829h-8.806v1.829zM19.655 3.194c-0.034-0.049-0.056-0.091-0.069-0.119-0.014-0.030-0.024-0.059-0.032-0.085-0.015-0.051-0.024-0.105-0.024-0.16h1.829c0-0.247-0.072-0.495-0.208-0.689l-1.495 1.052zM19.53 2.832v6.059h1.829v-6.059h-1.829zM20.445 7.976h-8.889v1.829h8.889v-1.829zM12.47 8.891v-6.059h-1.829v6.059h1.829zM12.47 2.832c0 0.055-0.008 0.107-0.023 0.158-0.008 0.025-0.018 0.054-0.032 0.084-0.013 0.028-0.035 0.072-0.072 0.124l-1.492-1.058c-0.141 0.199-0.21 0.45-0.21 0.692h1.829zM11.53 4.446v2.667h1.829v-2.667h-1.829zM12.444 8.027h0.444v-1.829h-0.444v1.829zM12.889 8.027h0.444v-1.829h-0.444v1.829zM13.333 8.027h0.889v-1.829h-0.889v1.829zM14.222 8.027h0.444v-1.829h-0.444v1.829zM14.667 8.027h0.444v-1.829h-0.444v1.829zM16.025 7.113v-2.222h-1.829v2.222h1.829zM16.025 4.891v-0.444h-1.829v0.444h1.829zM15.111 3.532h-2.222v1.829h2.222v-1.829zM12.889 3.532h-0.444v1.829h0.444v-1.829zM15.975 4.446v2.667h1.829v-2.667h-1.829zM16.889 8.027h0.444v-1.829h-0.444v1.829zM17.333 8.027h0.444v-1.829h-0.444v1.829zM17.778 8.027h0.889v-1.829h-0.889v1.829zM18.667 8.027h0.444v-1.829h-0.444v1.829zM19.111 8.027h0.444v-1.829h-0.444v1.829zM20.47 7.113v-2.222h-1.829v2.222h1.829zM20.47 4.891v-0.444h-1.829v0.444h1.829zM19.556 3.532h-2.222v1.829h2.222v-1.829zM17.333 3.532h-0.444v1.829h0.444v-1.829zM13.333 6.249h0.889v-1.829h-0.889v1.829zM13.308 5.335v0.889h1.829v-0.889h-1.829zM14.222 5.31h-0.889v1.829h0.889v-1.829zM14.248 6.224v-0.889h-1.829v0.889h1.829zM17.778 6.249h0.889v-1.829h-0.889v1.829zM17.752 5.335v0.889h1.829v-0.889h-1.829zM18.667 5.31h-0.889v1.829h0.889v-1.829zM18.692 6.224v-0.889h-1.829v0.889h1.829zM10.667 10.694h10.667v-1.829h-10.667v1.829zM20.419 9.779v0.889h1.829v-0.889h-1.829zM21.333 9.754h-10.667v1.829h10.667v-1.829zM11.581 10.668v-0.889h-1.829v0.889h1.829zM9.896 12.472h12.208v-1.829h-12.208v1.829zM22.104 12.472c-0.039 0-0.092-0.005-0.154-0.020-0.031-0.008-0.060-0.017-0.086-0.027-0.013-0.005-0.024-0.010-0.032-0.013s-0.014-0.007-0.014-0.006c0 0 0 0 0 0s0.001 0 0.001 0.001 0.002 0.001 0.004 0.002 0.011 0.005 0.020 0.009c0.012 0.005 0.063 0.028 0.132 0.047 0.059 0.016 0.23 0.059 0.444 0.011 0.265-0.060 0.463-0.225 0.579-0.412 0.093-0.149 0.118-0.287 0.125-0.334 0.010-0.058 0.012-0.104 0.012-0.12 0.001-0.020 0.001-0.036 0.001-0.040 0-0.003 0-0.006-0-0.007s0-0.002 0-0.003h-1.829c0 0.026-0 0 0.001-0.020 0-0.012 0.002-0.056 0.011-0.111 0.007-0.044 0.032-0.18 0.124-0.328 0.115-0.186 0.312-0.35 0.576-0.41 0.213-0.048 0.383-0.005 0.439 0.010 0.067 0.018 0.116 0.040 0.125 0.044 0.012 0.005 0.025 0.011 0.017 0.008-0.029-0.014-0.101-0.047-0.202-0.073-0.096-0.024-0.194-0.035-0.294-0.035v1.829zM21.308 11.557v7.997h1.829v-7.997h-1.829zM21.308 19.554v0.885h1.829v-0.885h-1.829zM21.308 20.439v2.67h1.829v-2.67h-1.829zM21.308 23.109c0 2.95-2.358 5.308-5.308 5.308v1.829c3.96 0 7.136-3.177 7.136-7.137h-1.829zM16 28.417c-2.95 0-5.308-2.358-5.308-5.308h-1.829c0 3.96 3.177 7.136 7.136 7.136v-1.829zM10.692 23.109v-2.67h-1.829v2.67h1.829zM10.692 20.439v-0.885h-1.829v0.885h1.829zM10.692 19.554v-7.997h-1.829v7.997h1.829zM8.864 11.557c0 0.002 0 0.010 0 0.019s0 0.029 0.002 0.055c0.001 0.022 0.006 0.078 0.021 0.147 0.014 0.062 0.052 0.207 0.166 0.355 0.136 0.178 0.334 0.302 0.556 0.344 0.185 0.036 0.332 0.005 0.391-0.010 0.065-0.016 0.114-0.035 0.128-0.041 0.010-0.004 0.018-0.008 0.022-0.009s0.008-0.003 0.008-0.004c0.003-0.001-0.015 0.007-0.037 0.015-0.023 0.009-0.050 0.017-0.078 0.024-0.058 0.014-0.109 0.019-0.147 0.019v-1.829c-0.098 0-0.192 0.011-0.284 0.033-0.095 0.023-0.164 0.053-0.185 0.063-0.039 0.017 0.047-0.024 0.142-0.047 0.056-0.014 0.202-0.044 0.386-0.009 0.221 0.042 0.417 0.165 0.553 0.342 0.113 0.148 0.15 0.291 0.164 0.35 0.015 0.066 0.019 0.119 0.020 0.138 0.002 0.034 0.002 0.065 0.002 0.045h-1.829zM16 18.199c-0.75 0-1.359 0.608-1.359 1.359h1.829c0 0.26-0.21 0.47-0.47 0.47v-1.829zM14.641 19.557c0 0.751 0.608 1.359 1.359 1.359v-1.829c0.259 0 0.47 0.21 0.47 0.47h-1.829zM16 20.916c0.75 0 1.359-0.608 1.359-1.359h-1.829c0-0.26 0.21-0.47 0.47-0.47v1.829zM17.359 19.557c0-0.75-0.608-1.359-1.359-1.359v1.829c-0.26 0-0.47-0.21-0.47-0.47h1.829zM14.098 19.416l-0.628 0.628 1.293 1.293 0.628-0.628-1.293-1.293zM13.47 21.338c0.705 0.705 1.659 0.99 2.532 0.995l0.010-1.829c-0.511-0.003-0.96-0.17-1.249-0.46l-1.293 1.293zM16.007 22.333c0.866 0 1.846-0.272 2.554-1.027l-1.334-1.251c-0.267 0.285-0.702 0.449-1.22 0.449v1.829zM18.52 20.014l-0.648-0.608-1.251 1.334 0.648 0.608 1.251-1.334zM16.58 19.448c-0.052 0.055-0.248 0.169-0.562 0.168l-0.010 1.829c0.67 0.004 1.414-0.22 1.906-0.745l-1.334-1.251zM16.012 19.615c-0.305 0-0.54-0.118-0.621-0.199l-1.293 1.293c0.495 0.494 1.234 0.735 1.914 0.735v-1.829zM12.843 20.675l-0.628 0.628 1.293 1.293 0.628-0.628-1.293-1.293zM12.215 22.596c1.017 1.017 2.443 1.469 3.789 1.478l0.013-1.829c-0.98-0.007-1.905-0.338-2.509-0.942l-1.293 1.293zM16.003 24.074c1.345 0.010 2.796-0.423 3.804-1.499l-1.334-1.251c-0.571 0.608-1.475 0.929-2.456 0.921l-0.014 1.828zM19.766 21.283l-0.649-0.609-1.251 1.334 0.649 0.609 1.251-1.334zM17.824 20.715c-0.354 0.378-1.018 0.647-1.801 0.642l-0.013 1.829c1.145 0.008 2.355-0.374 3.147-1.219l-1.334-1.251zM16.026 21.357c-0.785-0.007-1.496-0.288-1.89-0.682l-1.293 1.293c0.81 0.81 2.023 1.207 3.166 1.217l0.017-1.829zM11.582 21.934l-0.627 0.628 1.295 1.291 0.627-0.628-1.295-1.291zM10.956 23.855c1.333 1.33 3.237 1.94 5.056 1.95l0.010-1.829c-1.456-0.008-2.857-0.499-3.774-1.415l-1.292 1.294zM16.012 25.805c1.819 0.010 3.739-0.581 5.052-1.981l-1.334-1.251c-0.876 0.934-2.252 1.412-3.708 1.404l-0.010 1.829zM21.023 22.531l-0.648-0.608-1.251 1.333 0.648 0.608 1.251-1.333zM19.083 21.965c-0.66 0.704-1.797 1.13-3.056 1.123l-0.010 1.829c1.618 0.009 3.301-0.529 4.399-1.7l-1.334-1.251zM16.028 23.087c-1.258-0.008-2.446-0.449-3.153-1.155l-1.292 1.294c1.124 1.122 2.816 1.679 4.434 1.689l0.011-1.829z"></path>
</symbol>

<symbol id="wifi" viewBox="0 0 32 32">
<path fill="currentColor" d="M24.837 7.96c-1.119-1.233-2.485-2.218-4.008-2.891s-3.17-1.019-4.835-1.017c-3.511 0-6.649 1.51-8.843 3.908h17.686zM7.152 24.040c2.184 2.409 5.342 3.907 8.843 3.907 1.665 0.001 3.312-0.346 4.835-1.019s2.888-1.657 4.008-2.889h-17.686zM26.69 8.977h-21.38c-1.408 0-2.759 0.559-3.755 1.555s-1.555 2.346-1.555 3.755v3.426c0 1.408 0.559 2.759 1.555 3.755s2.346 1.555 3.755 1.555h21.38c0.697 0 1.388-0.137 2.032-0.404s1.23-0.658 1.723-1.151c0.493-0.493 0.884-1.078 1.151-1.723s0.404-1.335 0.404-2.032v-3.426c0-1.408-0.559-2.759-1.555-3.755s-2.346-1.555-3.755-1.555zM13.757 12.060c0.503 0 0.9 0.407 0.9 0.9-0.001 0.238-0.097 0.466-0.265 0.634s-0.396 0.264-0.634 0.265c-0.503 0-0.9-0.407-0.9-0.9 0.001-0.238 0.097-0.466 0.265-0.634s0.396-0.264 0.634-0.265zM14.528 14.544v5.021h-1.52v-5.021h1.52zM8.896 19.565l-1.466-5.064-1.467 5.064h-1.263l-1.96-7.323h1.6l1.060 4.7 1.392-4.7h1.349l1.392 4.817 1.124-4.817h1.466l-1.931 7.323h-1.296zM31.454 17.788c0 1.247-0.495 2.442-1.377 3.323s-2.077 1.377-3.323 1.377h-14.71c1.246 0 2.442-0.495 3.323-1.377s1.377-2.077 1.377-3.323v-3.565c0-0.617 0.122-1.228 0.358-1.799s0.582-1.088 1.019-1.525c0.881-0.881 2.077-1.377 3.323-1.377h5.31c1.247 0 2.442 0.495 3.323 1.377s1.377 2.077 1.377 3.323v3.565zM19.153 12.242v7.323h1.606v-2.869h3.64v-1.488h-3.64v-1.478h3.891v-1.488h-5.497zM25.737 14.544v5.021h1.52v-5.021h-1.52zM25.598 12.944c0 0.503 0.407 0.9 0.9 0.9 0.238-0.001 0.466-0.097 0.634-0.265s0.264-0.396 0.265-0.634c0-0.503-0.407-0.9-0.9-0.9s-0.9 0.396-0.9 0.9l0-0.001z"></path>
</symbol>


 <symbol fill="currentColor" xmlns="http://www.w3.org/2000/svg" viewBox="0 0 64 64" id="cd">
    <path d="M31.9881 3.67993C16.3626 3.67993 3.66677 16.3758 3.66675 32.0012C3.66674 47.6268 16.3625 60.3201 31.9881 60.3201C47.4315 60.3201 60.336 47.8893 60.3334 31.9988C60.331 16.1084 47.4283 3.67993 31.9881 3.67993ZM31.9881 6.14248C46.2827 6.14248 57.8444 17.7066 57.8445 32.0012C57.8445 46.2959 46.2827 57.8576 31.9881 57.8576C17.6934 57.8576 6.12926 46.2959 6.12926 32.0012C6.12929 17.7066 17.6934 6.14248 31.9881 6.14248ZM42.2517 11.9572C42.2116 11.9561 42.1715 11.957 42.1314 11.9598C41.865 11.9815 41.6129 12.0893 41.4132 12.2669C41.2134 12.4445 41.0769 12.6823 41.0242 12.9443C40.9715 13.2064 41.0055 13.4785 41.1211 13.7195C41.2367 13.9606 41.4276 14.1573 41.6649 14.2803C44.5947 15.8834 47.0793 18.1962 48.8985 20.9825C48.9864 21.1197 49.1005 21.2381 49.2344 21.3308C49.3682 21.4236 49.5191 21.489 49.6784 21.5231C49.8376 21.5572 50.002 21.5594 50.1621 21.5296C50.3223 21.4998 50.4749 21.4385 50.6112 21.3494C50.7475 21.2603 50.8648 21.1451 50.9563 21.0104C51.0478 20.8757 51.1117 20.7241 51.1443 20.5645C51.1769 20.4049 51.1776 20.2406 51.1463 20.0808C51.115 19.9209 51.0523 19.7689 50.9619 19.6335C48.921 16.5076 46.1313 13.9223 42.8433 12.1232C42.6632 12.0188 42.4598 11.9617 42.2517 11.9572ZM39.5872 16.5768C39.5479 16.5762 39.5086 16.5774 39.4694 16.5806C39.2045 16.6048 38.9546 16.7142 38.757 16.8924C38.5594 17.0705 38.4249 17.3077 38.3734 17.5687C38.322 17.8297 38.3565 18.1004 38.4717 18.3401C38.5869 18.5799 38.7766 18.7759 39.0125 18.8989C41.5673 20.2727 43.6759 22.3756 45.0581 24.9252C45.1322 25.0722 45.235 25.203 45.3604 25.3096C45.4859 25.4162 45.6314 25.4965 45.7884 25.5459C45.9454 25.5953 46.1108 25.6126 46.2746 25.597C46.4385 25.5814 46.5976 25.5332 46.7424 25.455C46.8873 25.3769 47.0151 25.2704 47.1181 25.1421C47.2211 25.0137 47.2974 24.866 47.3424 24.7077C47.3874 24.5494 47.4001 24.3835 47.38 24.2202C47.3598 24.0568 47.307 23.8992 47.2249 23.7566C45.613 20.7834 43.1606 18.3342 40.1812 16.7322C39.9996 16.6307 39.7953 16.5779 39.5872 16.5768ZM24.2494 16.6275C24.0557 16.6338 23.8662 16.6857 23.6963 16.7791C20.7777 18.3723 18.3725 20.7825 16.7777 23.7001C16.6996 23.8424 16.6503 23.9987 16.6327 24.1601C16.6151 24.3215 16.6295 24.4848 16.6751 24.6406C16.7208 24.7964 16.7967 24.9416 16.8986 25.068C17.0005 25.1944 17.1263 25.2995 17.2688 25.3771C17.4114 25.4548 17.5679 25.5037 17.7293 25.5208C17.8908 25.5378 18.054 25.5229 18.2097 25.4768C18.3653 25.4307 18.5104 25.3543 18.6365 25.252C18.7625 25.1497 18.8672 25.0235 18.9444 24.8807C20.3121 22.3787 22.3742 20.3145 24.8771 18.9482C25.125 18.8181 25.3212 18.6072 25.4333 18.3505C25.5453 18.0939 25.5666 17.8067 25.4934 17.5363C25.4203 17.266 25.2572 17.0287 25.0311 16.8635C24.8049 16.6983 24.5292 16.6149 24.2494 16.6275ZM31.8101 21.0403C25.9508 21.0403 21.0366 25.9656 21.0366 32.0014C21.0366 38.037 25.9523 42.9529 31.9881 42.9529C37.6786 42.9529 43.1203 38.4433 43.1103 31.9965C43.1004 25.5497 37.6694 21.0403 31.8101 21.0403ZM31.9881 23.5004C36.6929 23.5004 40.4866 27.2965 40.4866 32.0014C40.4866 36.7062 36.6929 40.4903 31.9881 40.4903C27.2832 40.4903 23.4967 36.7062 23.4967 32.0014C23.4967 27.2965 27.2832 23.5004 31.9881 23.5004ZM31.9881 27.2952C29.4047 27.2952 27.2819 29.418 27.2819 32.0014C27.2818 34.5847 29.4047 36.7051 31.9881 36.7051C34.2268 36.7051 36.6082 34.9155 36.6053 31.9196C36.6028 28.9237 34.2213 27.2952 31.9881 27.2952ZM31.9881 29.7577C33.2406 29.7577 34.2317 30.7489 34.2317 32.0014C34.2317 33.2539 33.2406 34.2451 31.9881 34.2451C30.7355 34.2451 29.7444 33.2539 29.7444 32.0014C29.7444 30.7489 30.7355 29.7577 31.9881 29.7577ZM17.7949 38.3597C17.5798 38.3594 17.3684 38.4155 17.1817 38.5223C16.995 38.6292 16.8396 38.783 16.7309 38.9686C16.6221 39.1542 16.5639 39.365 16.562 39.5801C16.5601 39.7952 16.6146 40.0071 16.72 40.1946C18.2952 43.1241 20.6869 45.5415 23.5929 47.154C23.7344 47.2437 23.8927 47.3036 24.0582 47.33C24.2236 47.3564 24.3927 47.3488 24.5551 47.3076C24.7175 47.2664 24.8698 47.1924 25.0027 47.0903C25.1355 46.9882 25.2461 46.8601 25.3277 46.7138C25.4093 46.5675 25.4602 46.406 25.4773 46.2393C25.4943 46.0726 25.4772 45.9042 25.4269 45.7444C25.3766 45.5845 25.2942 45.4367 25.1848 45.3099C25.0754 45.183 24.9412 45.0798 24.7905 45.0065C22.2984 43.6236 20.2471 41.5379 18.8963 39.0258C18.7921 38.824 18.634 38.6549 18.4396 38.5373C18.2452 38.4198 18.0221 38.3583 17.7949 38.3597ZM46.1042 38.456C45.8842 38.4603 45.6693 38.5234 45.4819 38.6388C45.2946 38.7543 45.1416 38.9179 45.0389 39.1125C43.6726 41.612 41.6057 43.6766 39.1063 45.0429C38.9632 45.12 38.8367 45.2245 38.7341 45.3507C38.6315 45.4768 38.5549 45.6221 38.5086 45.7779C38.4622 45.9338 38.4472 46.0972 38.4642 46.2589C38.4812 46.4206 38.5299 46.5774 38.6077 46.7202C38.6854 46.863 38.7906 46.9889 38.9171 47.091C39.0437 47.193 39.1892 47.2692 39.3452 47.3149C39.5012 47.3605 39.6647 47.375 39.8264 47.3573C39.988 47.3396 40.1445 47.2902 40.287 47.2119C43.2016 45.6187 45.6052 43.2152 47.1984 40.3006C47.3071 40.1114 47.3635 39.8967 47.362 39.6785C47.3605 39.4604 47.301 39.2465 47.1897 39.0589C47.0784 38.8713 46.9193 38.7165 46.7285 38.6106C46.5378 38.5046 46.3223 38.4513 46.1042 38.456ZM13.9905 42.3639C13.7659 42.3612 13.5448 42.4199 13.3512 42.5338C13.1576 42.6477 12.9988 42.8123 12.8921 43.0099C12.7853 43.2076 12.7347 43.4307 12.7456 43.6551C12.7565 43.8794 12.8286 44.0965 12.9541 44.2829C14.9785 47.4142 17.7539 50.0087 21.027 51.822C21.3122 51.9705 21.6442 52.0017 21.9522 51.9092C22.2601 51.8166 22.5198 51.6075 22.6759 51.3263C22.832 51.0452 22.8722 50.7142 22.7879 50.4038C22.7036 50.0935 22.5015 49.8284 22.2246 49.6648C19.308 48.0491 16.8315 45.7346 15.027 42.9434C14.9171 42.7673 14.7645 42.6218 14.5833 42.5204C14.402 42.4191 14.1982 42.3653 13.9905 42.3639Z" ></path>
  </symbol>

    <symbol fill="none" xmlns="http://www.w3.org/2000/svg" viewBox="0 0 50 66" id="bluetooth">
    <path fill-rule="evenodd" clip-rule="evenodd" d="M27.1715 16.7932L32.4359 22.0576L27.1715 27.322V16.7932ZM27.1715 49.2068L32.4359 43.9424L27.1715 38.678V49.2068ZM21.5311 33.0376L10.0999 21.5311L13.4089 18.2221L22.5088 27.322V5.51234L39.054 22.0576L28.1492 33.0376L39.1292 44.0176L22.584 60.5628V38.678L13.4089 47.7779L10.0999 44.4688L21.5311 33.0376ZM24.6146 65C38.6028 65 48.2291 58.3819 48.2291 32.9624C48.2291 7.61809 38.6028 1 24.6146 1C10.6263 1 1 7.61809 1 33.0376C1 58.3819 10.6263 65 24.6146 65Z"  stroke-width="2"></path>
  </symbol>
  <symbol fill="currentColor" xmlns="http://www.w3.org/2000/svg" viewBox="0 0 61 61" id="scanner">
    <path d="M59.0938 37.9344C59.0938 37.7438 59.0938 37.7438 59.0938 37.5532C59.0938 37.3626 59.0938 37.3626 58.9031 37.1719C58.9031 36.9813 58.7125 36.9813 58.7125 36.7907C58.7125 36.6001 58.5219 36.6001 58.3312 36.6001L58.1406 36.4094L6.67188 5.90944C5.71875 5.52819 4.575 5.71881 4.00312 6.67194C3.62187 7.62506 3.8125 8.76881 4.76562 9.34069L50.325 36.2188H5.71875C4.575 36.2188 3.8125 36.9813 3.8125 38.1251V49.5626C3.8125 52.8032 6.29062 55.2813 9.53125 55.2813H53.375C56.6156 55.2813 59.0938 52.8032 59.0938 49.5626V38.1251V37.9344ZM19.0625 47.6563H13.3438C12.2 47.6563 11.4375 46.8938 11.4375 45.7501C11.4375 44.6063 12.2 43.8438 13.3438 43.8438H19.0625C20.2062 43.8438 20.9688 44.6063 20.9688 45.7501C20.9688 46.8938 20.2062 47.6563 19.0625 47.6563Z" ></path>
  </symbol>


<symbol fill="currentColor" xmlns="http://www.w3.org/2000/svg" viewBox="0 0 65 58" id="win-7">
    <path d="M13.2681 2.51605C17.363 0.891063 20.9516 0.0649776 24.2449 0C25.9647 0 27.606 0.189631 29.1416 0.544425C31.4925 1.14839 34.7668 2.90061 35.9883 3.61835L30.0949 23.6573C27.0996 21.7479 23.4812 19.9008 18.59 19.8413C15.321 19.8413 11.773 20.5997 7.65376 22.1325L13.2681 2.51605ZM22.4791 50.597C23.9389 45.6651 27.4462 33.7837 28.4781 30.2303C27.7333 29.7754 26.9479 29.3013 26.1597 28.887C23.1345 27.3352 20.1906 26.547 17.42 26.547C17.0408 26.547 16.6589 26.5659 16.2797 26.5985C12.7264 26.8883 9.49271 27.8201 7.40187 28.5431C6.85473 28.738 6.2861 28.9574 5.70647 29.2012L0 48.8745C3.92706 47.4229 7.38828 46.7242 10.5625 46.7242C15.6839 46.7242 19.4161 48.6227 22.4791 50.597ZM57.2 35.9287C53.4977 37.1339 49.9092 37.7242 46.5861 37.7242C40.4923 37.7242 36.2375 35.7553 33.5427 33.8892L27.7983 53.7223C29.51 54.7054 35.2299 57.7713 39.6147 57.7713C43.1654 57.7713 47.114 56.8694 51.7345 55.017L57.2 35.9287ZM65 9.05662C61.2598 10.511 57.6279 11.2395 54.1396 11.2395C48.3141 11.2395 44.0402 9.2381 41.2534 7.30155L35.4196 27.4029C39.3494 29.9053 43.5526 31.1809 47.9944 31.1809C51.6127 31.1809 55.3529 30.3278 59.1445 28.6108L59.1093 28.4754L59.3558 28.4186L65 9.05662Z" ></path>
  </symbol>
  <symbol fill="currentColor" xmlns="http://www.w3.org/2000/svg" viewBox="0 0 65 65" id="win-11">
    <path d="M33.8642 33.8642H65V65H33.8642V33.8642ZM0 33.8642H31.1358V65H0V33.8642ZM33.8642 0H65V31.1358H33.8642V0ZM0 0H31.1358V31.1358H0V0Z" ></path>
  </symbol>

</defs>
</svg>
