<svg aria-hidden="true" style="position: absolute; width: 0; height: 0; overflow: hidden;" version="1.1" xmlns="http://www.w3.org/2000/svg" xmlns:xlink="http://www.w3.org/1999/xlink">
<defs>
<symbol id="icon-ranking" viewBox="0 0 32 32">
<path fill="none"  stroke-linejoin="round" stroke-linecap="round" stroke-miterlimit="10" stroke-width="1.1707" d="M11.56 18.667h-6.227c-1.467 0-2.667 1.2-2.667 2.667v8h8.893v-10.667z"></path>
<path fill="none"  stroke-linejoin="round" stroke-linecap="round" stroke-miterlimit="10" stroke-width="1.1707" d="M17.774 13.333h-3.56c-1.467 0-2.667 1.2-2.667 2.667v13.333h8.893v-13.333c0-1.467-1.187-2.667-2.667-2.667z"></path>
<path fill="none"  stroke-linejoin="round" stroke-linecap="round" stroke-miterlimit="10" stroke-width="1.1707" d="M26.667 22.667h-6.227v6.667h8.893v-4c0-1.467-1.2-2.667-2.667-2.667z"></path>
<path fill="none" opacity="0.4"  stroke-linejoin="round" stroke-linecap="round" stroke-miterlimit="4" stroke-width="1.1707" d="M16.694 2.76l0.707 1.413c0.093 0.2 0.347 0.387 0.56 0.413l1.28 0.213c0.813 0.133 1.013 0.733 0.427 1.307l-1 1c-0.173 0.173-0.267 0.493-0.213 0.72l0.28 1.227c0.227 0.973-0.293 1.347-1.147 0.84l-1.2-0.707c-0.213-0.133-0.573-0.133-0.787 0l-1.2 0.707c-0.853 0.507-1.373 0.133-1.147-0.84l0.28-1.227c0.053-0.227-0.040-0.56-0.213-0.72l-0.987-0.987c-0.587-0.587-0.4-1.173 0.427-1.307l1.28-0.213c0.213-0.040 0.467-0.227 0.56-0.413l0.707-1.413c0.387-0.773 1-0.773 1.387-0.013z"></path>
</symbol>
<symbol id="icon-people" viewBox="0 0 32 32">
<path fill="none" opacity="0.4"  stroke-linejoin="round" stroke-linecap="round" stroke-miterlimit="4" stroke-width="1.1707" d="M23.997 9.547c-0.080-0.013-0.173-0.013-0.253 0-1.84-0.067-3.307-1.573-3.307-3.44 0-1.907 1.533-3.44 3.44-3.44s3.44 1.547 3.44 3.44c-0.013 1.867-1.48 3.373-3.32 3.44z"></path>
<path fill="none" opacity="0.4"  stroke-linejoin="round" stroke-linecap="round" stroke-miterlimit="4" stroke-width="1.1707" d="M22.623 19.254c1.827 0.307 3.84-0.013 5.253-0.96 1.88-1.253 1.88-3.307 0-4.56-1.427-0.947-3.467-1.267-5.293-0.947"></path>
<path fill="none" opacity="0.4"  stroke-linejoin="round" stroke-linecap="round" stroke-miterlimit="4" stroke-width="1.1707" d="M7.955 9.547c0.080-0.013 0.173-0.013 0.253 0 1.84-0.067 3.307-1.573 3.307-3.44 0-1.907-1.533-3.44-3.44-3.44s-3.44 1.547-3.44 3.44c0.013 1.867 1.48 3.373 3.32 3.44z"></path>
<path fill="none" opacity="0.4"  stroke-linejoin="round" stroke-linecap="round" stroke-miterlimit="4" stroke-width="1.1707" d="M9.33 19.254c-1.827 0.307-3.84-0.013-5.253-0.96-1.88-1.253-1.88-3.307 0-4.56 1.427-0.947 3.467-1.267 5.293-0.947"></path>
<path fill="none"  stroke-linejoin="round" stroke-linecap="round" stroke-miterlimit="4" stroke-width="1.1707" d="M16 19.507c-0.080-0.013-0.173-0.013-0.253 0-1.84-0.067-3.307-1.573-3.307-3.44 0-1.907 1.533-3.44 3.44-3.44s3.44 1.547 3.44 3.44c-0.013 1.867-1.48 3.387-3.32 3.44z"></path>
<path fill="none"  stroke-linejoin="round" stroke-linecap="round" stroke-miterlimit="4" stroke-width="1.1707" d="M12.121 23.707c-1.88 1.253-1.88 3.307 0 4.56 2.133 1.427 5.627 1.427 7.76 0 1.88-1.253 1.88-3.307 0-4.56-2.12-1.413-5.627-1.413-7.76 0z"></path>
</symbol>
<symbol id="icon-shield" viewBox="0 0 32 32">
<path fill="none"  stroke-linejoin="round" stroke-linecap="round" stroke-miterlimit="4" stroke-width="1.1707" d="M13.987 2.973l-6.653 2.507c-1.533 0.573-2.787 2.387-2.787 4.013v9.907c0 1.573 1.040 3.64 2.307 4.587l5.733 4.28c1.88 1.413 4.973 1.413 6.853 0l5.733-4.28c1.267-0.947 2.307-3.013 2.307-4.587v-9.907c0-1.64-1.253-3.453-2.787-4.027l-6.653-2.493c-1.133-0.413-2.947-0.413-4.053 0z"></path>
<path fill="none" opacity="0.4"  stroke-linejoin="round" stroke-linecap="round" stroke-miterlimit="4" stroke-width="1.1707" d="M12.068 15.827l2.147 2.147 5.733-5.733"></path>
</symbol>
<symbol id="icon-verify" viewBox="0 0 32 32">
<path fill="none" opacity="0.34"  stroke-linejoin="round" stroke-linecap="round" stroke-miterlimit="4" stroke-width="1.1707" d="M11.174 16l3.213 3.227 6.44-6.453"></path>
<path fill="none" stroke-linejoin="round" stroke-linecap="round" stroke-miterlimit="4" stroke-width="1.1707" d="M14.335 3.266c0.92-0.787 2.427-0.787 3.36 0l2.107 1.813c0.4 0.347 1.147 0.627 1.68 0.627h2.267c1.413 0 2.573 1.16 2.573 2.573v2.267c0 0.52 0.28 1.28 0.627 1.68l1.813 2.107c0.787 0.92 0.787 2.427 0 3.36l-1.813 2.107c-0.347 0.4-0.627 1.147-0.627 1.68v2.267c0 1.413-1.16 2.573-2.573 2.573h-2.267c-0.52 0-1.28 0.28-1.68 0.627l-2.107 1.813c-0.92 0.787-2.427 0.787-3.36 0l-2.107-1.813c-0.4-0.347-1.147-0.627-1.68-0.627h-2.307c-1.413 0-2.573-1.16-2.573-2.573v-2.28c0-0.52-0.28-1.267-0.613-1.667l-1.8-2.12c-0.773-0.92-0.773-2.413 0-3.333l1.8-2.12c0.333-0.4 0.613-1.147 0.613-1.667v-2.293c0-1.413 1.16-2.573 2.573-2.573h2.307c0.52 0 1.28-0.28 1.68-0.627l2.107-1.8z"></path>
</symbol>
<symbol id="icon-win-10" viewBox="0 0 32 32">
<path fill="currentColor"  d="M14 18v6.45c-0 0.148-0.033 0.294-0.095 0.428s-0.154 0.252-0.267 0.347c-0.179 0.149-0.405 0.228-0.637 0.225h-0.175l-8-1.45c-0.234-0.041-0.445-0.165-0.596-0.348s-0.232-0.414-0.229-0.652v-5c0-0.265 0.105-0.52 0.293-0.707s0.442-0.293 0.707-0.293h8c0.265 0 0.52 0.105 0.707 0.293s0.293 0.442 0.293 0.707zM13.638 6.775c-0.112-0.092-0.242-0.159-0.383-0.196s-0.287-0.042-0.43-0.017l-8 1.45c-0.232 0.041-0.442 0.163-0.592 0.343s-0.233 0.409-0.233 0.644v5c0 0.265 0.105 0.52 0.293 0.707s0.442 0.293 0.707 0.293h8c0.265 0 0.52-0.105 0.707-0.293s0.293-0.442 0.293-0.707v-6.45c-0-0.148-0.033-0.294-0.095-0.428s-0.154-0.252-0.267-0.347zM27 17h-10c-0.265 0-0.52 0.105-0.707 0.293s-0.293 0.442-0.293 0.707v7.188c0.002 0.233 0.086 0.458 0.237 0.636s0.359 0.298 0.588 0.339l10 1.825h0.175c0.235 0.005 0.463-0.080 0.637-0.238 0.111-0.091 0.202-0.205 0.264-0.335s0.096-0.271 0.098-0.415v-9c0-0.265-0.105-0.52-0.293-0.707s-0.442-0.293-0.707-0.293zM27.638 4.237c-0.11-0.097-0.239-0.167-0.38-0.206s-0.289-0.045-0.432-0.019l-10 1.825c-0.23 0.041-0.438 0.161-0.588 0.339s-0.234 0.403-0.237 0.636v7.188c0 0.265 0.105 0.52 0.293 0.707s0.442 0.293 0.707 0.293h10c0.265 0 0.52-0.105 0.707-0.293s0.293-0.442 0.293-0.707v-9c-0-0.146-0.033-0.29-0.096-0.422s-0.154-0.248-0.267-0.341z"></path>
</symbol>
</defs>
</svg>
