<svg width="134" height="33" viewBox="0 0 134 33" fill="none" xmlns="http://www.w3.org/2000/svg">
<path d="M35.2091 11.6247H48.7747V14.1477H43.4407V28.3309H40.5076V14.1477H35.1973V11.6247H35.2091ZM48.1952 16.2345H50.7025V18.5689H50.7498C50.8326 18.2388 50.9863 17.9205 51.211 17.6139C51.4358 17.3074 51.7078 17.0127 52.0271 16.7651C52.3464 16.5057 52.7012 16.3053 53.0915 16.1402C53.4818 15.9869 53.8839 15.9044 54.2861 15.9044C54.5936 15.9044 54.8183 15.9162 54.9365 15.928C55.0548 15.9398 55.1731 15.9634 55.3032 15.9752V18.5453C55.114 18.51 54.9247 18.4864 54.7237 18.4628C54.5226 18.4392 54.3334 18.4274 54.1441 18.4274C53.6947 18.4274 53.2689 18.5218 52.8668 18.6986C52.4647 18.8754 52.1217 19.1466 51.826 19.4885C51.5304 19.8422 51.2938 20.2666 51.1164 20.7854C50.939 21.3041 50.8562 21.8936 50.8562 22.5656V28.3191H48.1833V16.2345H48.1952ZM67.5914 28.3309H64.9659V26.6449H64.9185C64.5874 27.258 64.1025 27.7414 63.452 28.1068C62.8015 28.4723 62.1392 28.661 61.4651 28.661C59.8684 28.661 58.7094 28.2719 57.9997 27.482C57.2901 26.6921 56.9353 25.5013 56.9353 23.9097V16.2345H59.6082V23.6503C59.6082 24.7114 59.8093 25.4659 60.2232 25.9022C60.6253 26.3384 61.2049 26.5624 61.9381 26.5624C62.5058 26.5624 62.9671 26.4799 63.3455 26.303C63.724 26.1262 64.0315 25.9022 64.2562 25.6074C64.4928 25.3245 64.6583 24.9708 64.7648 24.5699C64.8712 24.1691 64.9185 23.7328 64.9185 23.2612V16.2463H67.5914V28.3309ZM72.1448 24.452C72.2276 25.2301 72.5233 25.7725 73.0319 26.0908C73.5523 26.3973 74.1673 26.5624 74.8887 26.5624C75.1371 26.5624 75.4209 26.5388 75.7403 26.5034C76.0596 26.4681 76.3671 26.3855 76.6391 26.2794C76.923 26.1733 77.1477 26.0083 77.3369 25.7961C77.5143 25.5838 77.5971 25.3127 77.5853 24.9708C77.5734 24.6289 77.4433 24.3459 77.2068 24.1337C76.9703 23.9097 76.6746 23.7446 76.308 23.6032C75.9413 23.4735 75.5274 23.3556 75.0543 23.2612C74.5812 23.1669 74.1081 23.0608 73.6232 22.9547C73.1265 22.8486 72.6416 22.7071 72.1803 22.5539C71.7191 22.4006 71.3051 22.1884 70.9385 21.9172C70.5719 21.6578 70.2762 21.3159 70.0633 20.9033C69.8386 20.4906 69.7321 19.9837 69.7321 19.3706C69.7321 18.7104 69.8977 18.1681 70.217 17.72C70.5364 17.272 70.9503 16.9183 71.4352 16.6472C71.932 16.376 72.476 16.1874 73.0792 16.0695C73.6824 15.9634 74.2619 15.9044 74.8059 15.9044C75.4328 15.9044 76.0359 15.9752 76.6036 16.1048C77.1713 16.2345 77.6917 16.4468 78.153 16.7533C78.6142 17.048 78.9927 17.4371 79.3002 17.9087C79.6077 18.3803 79.7969 18.958 79.8797 19.63H77.0885C76.9584 18.9933 76.6746 18.5571 76.2133 18.3449C75.7521 18.1209 75.2199 18.0148 74.6285 18.0148C74.4393 18.0148 74.2146 18.0266 73.9544 18.062C73.6942 18.0973 73.4576 18.1563 73.2211 18.2388C72.9964 18.3213 72.8072 18.451 72.6416 18.6161C72.4878 18.7811 72.405 18.9933 72.405 19.2645C72.405 19.5946 72.5233 19.854 72.748 20.0544C72.9727 20.2549 73.2684 20.4199 73.635 20.5614C74.0017 20.6911 74.4156 20.809 74.8887 20.9033C75.3618 20.9976 75.8467 21.1037 76.3434 21.2098C76.8283 21.3159 77.3014 21.4574 77.7745 21.6107C78.2476 21.7639 78.6615 21.9762 79.0282 22.2473C79.3948 22.5185 79.6905 22.8486 79.9152 23.2495C80.1399 23.6503 80.2582 24.1573 80.2582 24.7468C80.2582 25.4659 80.0926 26.0672 79.7614 26.5742C79.4303 27.0693 79.0045 27.482 78.4841 27.7885C77.9637 28.0951 77.3724 28.3309 76.7337 28.4723C76.0951 28.6138 75.4564 28.6846 74.8296 28.6846C74.0608 28.6846 73.3512 28.602 72.7007 28.4252C72.0502 28.2483 71.4825 27.989 71.0095 27.647C70.5364 27.2934 70.1579 26.8571 69.8859 26.3384C69.6139 25.8196 69.4719 25.1948 69.4483 24.4756H72.1448V24.452ZM80.9678 16.2345H82.9902V12.6033H85.6631V16.2345H88.0758V18.227H85.6631V24.6878C85.6631 24.9708 85.6749 25.2066 85.6986 25.4188C85.7223 25.6192 85.7814 25.7961 85.8642 25.9375C85.947 26.079 86.0771 26.1851 86.2545 26.2559C86.4319 26.3266 86.6566 26.362 86.9641 26.362C87.1533 26.362 87.3426 26.362 87.5318 26.3502C87.721 26.3384 87.9103 26.3148 88.0995 26.2676V28.3309C87.8038 28.3662 87.5081 28.3898 87.2361 28.4252C86.9523 28.4605 86.6684 28.4723 86.3727 28.4723C85.6631 28.4723 85.0954 28.4016 84.6697 28.2719C84.2439 28.1422 83.9009 27.9418 83.6644 27.6824C83.416 27.423 83.2622 27.1047 83.1676 26.7157C83.0848 26.3266 83.0257 25.8786 83.0139 25.3834V18.2506H80.9915V16.2345H80.9678ZM89.9682 16.2345H92.4991V17.8733H92.5464C92.9249 17.1659 93.4453 16.6708 94.1194 16.3642C94.7936 16.0577 95.515 15.9044 96.3074 15.9044C97.2654 15.9044 98.0933 16.0695 98.8029 16.4114C99.5126 16.7415 100.104 17.2013 100.577 17.7908C101.05 18.3803 101.393 19.0641 101.63 19.8422C101.866 20.6203 101.984 21.4574 101.984 22.3416C101.984 23.1551 101.878 23.9451 101.665 24.6996C101.452 25.4659 101.133 26.138 100.707 26.7274C100.281 27.3169 99.7373 27.7767 99.075 28.1304C98.4126 28.4841 97.6439 28.661 96.745 28.661C96.3547 28.661 95.9644 28.6256 95.5742 28.5549C95.1839 28.4841 94.8054 28.3662 94.4506 28.213C94.0958 28.0597 93.7528 27.8593 93.4571 27.6117C93.1496 27.3641 92.9013 27.0811 92.6884 26.7628H92.6411V32.7992H89.9682V16.2345ZM99.3115 22.2945C99.3115 21.7522 99.2405 21.2216 99.0986 20.7029C98.9567 20.1841 98.7438 19.7361 98.46 19.3352C98.1761 18.9344 97.8213 18.6161 97.4073 18.3803C96.9816 18.1445 96.4967 18.0148 95.9526 18.0148C94.8291 18.0148 93.9775 18.4039 93.4098 19.182C92.8421 19.9601 92.5583 20.9976 92.5583 22.2945C92.5583 22.9076 92.6292 23.4735 92.783 23.9922C92.9367 24.511 93.1496 24.959 93.4571 25.3363C93.7528 25.7135 94.1076 26.0083 94.5216 26.2205C94.9355 26.4445 95.4204 26.5506 95.9645 26.5506C96.5795 26.5506 97.088 26.4209 97.5138 26.1733C97.9396 25.9257 98.2825 25.5956 98.5546 25.2066C98.8266 24.8057 99.0276 24.3577 99.1459 23.8507C99.2523 23.3438 99.3115 22.825 99.3115 22.2945ZM104.03 11.6247H106.703V14.1477H104.03V11.6247ZM104.03 16.2345H106.703V28.3309H104.03V16.2345ZM109.092 11.6247H111.765V28.3309H109.092V11.6247ZM119.961 28.661C118.992 28.661 118.128 28.4959 117.371 28.1776C116.614 27.8593 115.976 27.4113 115.444 26.8571C114.923 26.2912 114.521 25.6192 114.249 24.8411C113.977 24.063 113.835 23.2023 113.835 22.2709C113.835 21.3513 113.977 20.5024 114.249 19.7243C114.521 18.9462 114.923 18.2742 115.444 17.7083C115.964 17.1423 116.614 16.7061 117.371 16.3878C118.128 16.0695 118.992 15.9044 119.961 15.9044C120.931 15.9044 121.795 16.0695 122.552 16.3878C123.308 16.7061 123.947 17.1541 124.479 17.7083C125 18.2742 125.402 18.9462 125.674 19.7243C125.946 20.5024 126.088 21.3513 126.088 22.2709C126.088 23.2023 125.946 24.063 125.674 24.8411C125.402 25.6192 125 26.2912 124.479 26.8571C123.959 27.423 123.308 27.8593 122.552 28.1776C121.795 28.4959 120.931 28.661 119.961 28.661ZM119.961 26.5506C120.553 26.5506 121.073 26.4209 121.511 26.1733C121.948 25.9257 122.303 25.5956 122.587 25.1948C122.871 24.7939 123.072 24.3341 123.214 23.8272C123.344 23.3202 123.415 22.8014 123.415 22.2709C123.415 21.7522 123.344 21.2452 123.214 20.7264C123.084 20.2077 122.871 19.7597 122.587 19.3588C122.303 18.958 121.948 18.6397 121.511 18.3921C121.073 18.1445 120.553 18.0148 119.961 18.0148C119.37 18.0148 118.85 18.1445 118.412 18.3921C117.975 18.6397 117.62 18.9698 117.336 19.3588C117.052 19.7597 116.851 20.2077 116.709 20.7264C116.579 21.2452 116.508 21.7522 116.508 22.2709C116.508 22.8014 116.579 23.3202 116.709 23.8272C116.839 24.3341 117.052 24.7939 117.336 25.1948C117.62 25.5956 117.975 25.9257 118.412 26.1733C118.85 26.4327 119.37 26.5506 119.961 26.5506ZM126.868 16.2345H128.891V12.6033H131.564V16.2345H133.976V18.227H131.564V24.6878C131.564 24.9708 131.576 25.2066 131.599 25.4188C131.623 25.6192 131.682 25.7961 131.765 25.9375C131.848 26.079 131.978 26.1851 132.155 26.2559C132.333 26.3266 132.557 26.362 132.865 26.362C133.054 26.362 133.243 26.362 133.432 26.3502C133.622 26.3384 133.811 26.3148 134 26.2676V28.3309C133.704 28.3662 133.409 28.3898 133.137 28.4252C132.853 28.4605 132.569 28.4723 132.273 28.4723C131.564 28.4723 130.996 28.4016 130.57 28.2719C130.145 28.1422 129.802 27.9418 129.565 27.6824C129.317 27.423 129.163 27.1047 129.068 26.7157C128.985 26.3266 128.926 25.8786 128.915 25.3834V18.2506H126.892V16.2345H126.868Z" fill="white"/>
<path d="M32.0867 11.6247H19.8339L16.0493 0L12.2528 11.6247L0 11.6129L9.92286 18.8047L6.12639 30.4177L16.0493 23.2377L25.9603 30.4177L22.1756 18.8047L32.0867 11.6247Z" fill="#00B67A"/>
<path d="M23.0273 21.4338L22.1757 18.8047L16.0493 23.2377L23.0273 21.4338Z" fill="#005128"/>
</svg>
