<svg width="70" height="70" viewBox="0 0 70 70" fill="none" xmlns="http://www.w3.org/2000/svg">
<mask id="path-1-outside-1_40_483" maskUnits="userSpaceOnUse" x="19.3889" y="3.83691" width="32" height="63" fill="black">
<rect fill="white" x="19.3889" y="3.83691" width="32" height="63"/>
<path d="M25.369 5.83691H44.6311C44.668 5.88941 44.7224 6.0198 44.7224 6.19402V19.4481H25.278V6.19402C25.278 6.02097 25.3321 5.88903 25.369 5.83691ZM27.2222 9.7258V15.5593H28.1945H29.1667H31.1111H32.0834H33.0556V10.698V9.7258H28.1945H27.2222ZM36.9445 9.7258V15.5593H37.9167H38.8889H40.8334H41.8056H42.7778V10.698V9.7258H37.9167H36.9445ZM29.1667 11.6702H31.1111V13.6147H29.1667V11.6702ZM38.8889 11.6702H40.8334V13.6147H38.8889V11.6702ZM23.3334 21.3926H46.6667V23.337H23.3334V21.3926ZM21.6471 25.2815H48.3529C48.6187 25.2815 48.6111 25.4001 48.6111 25.2815V42.7741V44.711V50.5519C48.6111 58.1094 42.5573 64.163 35 64.163C27.4427 64.163 21.3889 58.1094 21.3889 50.5519V44.711V42.7741V25.2815C21.3889 25.3943 21.3889 25.2815 21.6471 25.2815ZM35 41.8093C34.4632 41.8093 34.0278 42.2446 34.0278 42.7815C34.0278 43.3185 34.4632 43.7537 35 43.7537C35.5369 43.7537 35.9722 43.3185 35.9722 42.7815C35.9722 42.2446 35.5369 41.8093 35 41.8093ZM32.2543 43.8869L30.8796 45.2616C31.9675 46.3496 33.5018 46.8445 35.0152 46.8529C36.5286 46.8529 38.0765 46.3764 39.1434 45.2389L37.7267 43.9096C37.1313 44.5445 36.1033 44.9143 35.0267 44.9085C33.9498 44.9085 32.8841 44.5165 32.2543 43.8869ZM29.5085 46.6402L28.1338 48.0148C29.9071 49.7879 32.4783 50.6443 35.0228 50.6618C37.5675 50.6812 40.1431 49.8565 41.8701 48.0148L40.4497 46.682C39.1956 48.0194 37.1459 48.7319 35.0379 48.7174C32.93 48.6979 30.8251 47.9566 29.5085 46.6402ZM26.7513 49.3933L25.3803 50.7681C27.8412 53.2249 31.4559 54.4287 35.0379 54.4481C38.6202 54.4676 42.2256 53.2983 44.6198 50.7456L43.2032 49.4161C41.2804 51.4662 38.1953 52.521 35.0494 52.5037C31.9035 52.4843 28.7539 51.3924 26.7513 49.3933Z"/>
</mask>
<path d="M25.369 5.83691V3.83691H24.3353L23.7374 4.6802L25.369 5.83691ZM44.6311 5.83691L46.2667 4.68593L45.6692 3.83691H44.6311V5.83691ZM44.7224 19.4481V21.4481H46.7224V19.4481H44.7224ZM25.278 19.4481H23.278V21.4481H25.278V19.4481ZM27.2222 9.7258V7.7258H25.2222V9.7258H27.2222ZM27.2222 15.5593H25.2222V17.5593H27.2222V15.5593ZM33.0556 15.5593V17.5593H35.0556V15.5593H33.0556ZM33.0556 9.7258H35.0556V7.7258H33.0556V9.7258ZM36.9445 9.7258V7.7258H34.9445V9.7258H36.9445ZM36.9445 15.5593H34.9445V17.5593H36.9445V15.5593ZM42.7778 15.5593V17.5593H44.7778V15.5593H42.7778ZM42.7778 9.7258H44.7778V7.7258H42.7778V9.7258ZM29.1667 11.6702V9.67025H27.1667V11.6702H29.1667ZM31.1111 11.6702H33.1111V9.67025H31.1111V11.6702ZM31.1111 13.6147V15.6147H33.1111V13.6147H31.1111ZM29.1667 13.6147H27.1667V15.6147H29.1667V13.6147ZM38.8889 11.6702V9.67025H36.8889V11.6702H38.8889ZM40.8334 11.6702H42.8334V9.67025H40.8334V11.6702ZM40.8334 13.6147V15.6147H42.8334V13.6147H40.8334ZM38.8889 13.6147H36.8889V15.6147H38.8889V13.6147ZM23.3334 21.3926V19.3926H21.3334V21.3926H23.3334ZM46.6667 21.3926H48.6667V19.3926H46.6667V21.3926ZM46.6667 23.337V25.337H48.6667V23.337H46.6667ZM23.3334 23.337H21.3334V25.337H23.3334V23.337ZM32.2543 43.8869L33.6683 42.4724L32.254 41.0586L30.84 42.4727L32.2543 43.8869ZM30.8796 45.2616L29.4653 43.8475L28.0512 45.2617L29.4653 46.6759L30.8796 45.2616ZM35.0152 46.8529L35.0041 48.8529H35.0152V46.8529ZM39.1434 45.2389L40.6022 46.6071L41.9702 45.1486L40.5119 43.7803L39.1434 45.2389ZM37.7267 43.9096L39.0952 42.4511L37.6363 41.0824L36.2679 42.5415L37.7267 43.9096ZM35.0267 44.9085L35.0375 42.9085H35.0267V44.9085ZM29.5085 46.6402L30.9226 45.2259L29.5085 43.812L28.0944 45.2259L29.5085 46.6402ZM28.1338 48.0148L26.7197 46.6005L25.3052 48.0148L26.7197 49.4291L28.1338 48.0148ZM35.0228 50.6618L35.0381 48.6619L35.0365 48.6618L35.0228 50.6618ZM41.8701 48.0148L43.3291 49.3828L44.6967 47.9243L43.2386 46.5563L41.8701 48.0148ZM40.4497 46.682L41.8182 45.2235L40.3593 43.8546L38.9908 45.3139L40.4497 46.682ZM35.0379 48.7174L35.0195 50.7173L35.0241 50.7173L35.0379 48.7174ZM26.7513 49.3933L28.1643 47.9779L26.7481 46.5642L25.3352 47.9811L26.7513 49.3933ZM25.3803 50.7681L23.9641 49.3559L22.5526 50.7712L23.9672 52.1835L25.3803 50.7681ZM35.0379 54.4481L35.0271 56.4481L35.0379 54.4481ZM44.6198 50.7456L46.0785 52.1138L47.4463 50.6555L45.9885 49.2873L44.6198 50.7456ZM43.2032 49.4161L44.5719 47.9578L43.1132 46.5887L41.7445 48.0479L43.2032 49.4161ZM35.0494 52.5037L35.0371 54.5037L35.0384 54.5037L35.0494 52.5037ZM25.369 7.83691H44.6311V3.83691H25.369V7.83691ZM42.9954 6.9879C42.9204 6.88119 42.873 6.78922 42.8448 6.72806C42.814 6.66137 42.7914 6.59939 42.7745 6.54301C42.7409 6.43069 42.7224 6.31388 42.7224 6.19402H46.7224C46.7224 5.65345 46.5657 5.11092 46.2667 4.68593L42.9954 6.9879ZM42.7224 6.19402V19.4481H46.7224V6.19402H42.7224ZM44.7224 17.4481H25.278V21.4481H44.7224V17.4481ZM27.278 19.4481V6.19402H23.278V19.4481H27.278ZM27.278 6.19402C27.278 6.31372 27.2597 6.42893 27.2271 6.53884C27.2107 6.59418 27.1883 6.65604 27.1575 6.72338C27.1296 6.78419 27.0805 6.88084 27.0006 6.99362L23.7374 4.6802C23.4294 5.11466 23.278 5.66431 23.278 6.19402H27.278ZM25.2222 9.7258V15.5593H29.2222V9.7258H25.2222ZM27.2222 17.5593H28.1945V13.5593H27.2222V17.5593ZM28.1945 17.5593H29.1667V13.5593H28.1945V17.5593ZM29.1667 17.5593H31.1111V13.5593H29.1667V17.5593ZM31.1111 17.5593H32.0834V13.5593H31.1111V17.5593ZM32.0834 17.5593H33.0556V13.5593H32.0834V17.5593ZM35.0556 15.5593V10.698H31.0556V15.5593H35.0556ZM35.0556 10.698V9.7258H31.0556V10.698H35.0556ZM33.0556 7.7258H28.1945V11.7258H33.0556V7.7258ZM28.1945 7.7258H27.2222V11.7258H28.1945V7.7258ZM34.9445 9.7258V15.5593H38.9445V9.7258H34.9445ZM36.9445 17.5593H37.9167V13.5593H36.9445V17.5593ZM37.9167 17.5593H38.8889V13.5593H37.9167V17.5593ZM38.8889 17.5593H40.8334V13.5593H38.8889V17.5593ZM40.8334 17.5593H41.8056V13.5593H40.8334V17.5593ZM41.8056 17.5593H42.7778V13.5593H41.8056V17.5593ZM44.7778 15.5593V10.698H40.7778V15.5593H44.7778ZM44.7778 10.698V9.7258H40.7778V10.698H44.7778ZM42.7778 7.7258H37.9167V11.7258H42.7778V7.7258ZM37.9167 7.7258H36.9445V11.7258H37.9167V7.7258ZM29.1667 13.6702H31.1111V9.67025H29.1667V13.6702ZM29.1111 11.6702V13.6147H33.1111V11.6702H29.1111ZM31.1111 11.6147H29.1667V15.6147H31.1111V11.6147ZM31.1667 13.6147V11.6702H27.1667V13.6147H31.1667ZM38.8889 13.6702H40.8334V9.67025H38.8889V13.6702ZM38.8334 11.6702V13.6147H42.8334V11.6702H38.8334ZM40.8334 11.6147H38.8889V15.6147H40.8334V11.6147ZM40.8889 13.6147V11.6702H36.8889V13.6147H40.8889ZM23.3334 23.3926H46.6667V19.3926H23.3334V23.3926ZM44.6667 21.3926V23.337H48.6667V21.3926H44.6667ZM46.6667 21.337H23.3334V25.337H46.6667V21.337ZM25.3334 23.337V21.3926H21.3334V23.337H25.3334ZM21.6471 27.2815H48.3529V23.2815H21.6471V27.2815ZM48.3529 27.2815C48.2677 27.2815 48.1516 27.2716 48.0154 27.2372C47.9481 27.2202 47.8852 27.1995 47.8278 27.1772C47.7998 27.1664 47.7758 27.1562 47.7569 27.1478C47.7389 27.1398 47.7255 27.1334 47.7262 27.1338C47.7263 27.1338 47.7265 27.1339 47.727 27.1341C47.7274 27.1343 47.7283 27.1347 47.7292 27.1352C47.731 27.136 47.7344 27.1376 47.7386 27.1396C47.7459 27.143 47.7624 27.1507 47.7831 27.1599C47.8088 27.1712 47.9212 27.2215 48.0711 27.2625C48.1993 27.2977 48.574 27.3907 49.0429 27.2855C49.6225 27.1553 50.0552 26.7936 50.3086 26.3844C50.511 26.0575 50.5659 25.7562 50.5828 25.6547C50.6039 25.5286 50.6081 25.4274 50.6095 25.3924C50.6111 25.3496 50.6111 25.3142 50.6112 25.3043C50.6112 25.2974 50.6112 25.291 50.6111 25.2881C50.6111 25.2842 50.6111 25.2829 50.6111 25.2815H46.6111C46.6111 25.3389 46.6108 25.2816 46.6124 25.2387C46.6135 25.2118 46.6172 25.1172 46.6374 24.9964C46.6534 24.9001 46.707 24.6028 46.9077 24.2787C47.1594 23.8722 47.5899 23.5121 48.1667 23.3826C48.6327 23.278 49.004 23.3707 49.128 23.4047C49.2736 23.4446 49.381 23.4928 49.4009 23.5016C49.4278 23.5135 49.4551 23.5266 49.4372 23.5182C49.3739 23.4882 49.2154 23.4147 48.9954 23.3591C48.7859 23.3062 48.571 23.2815 48.3529 23.2815V27.2815ZM46.6111 25.2815V42.7741H50.6111V25.2815H46.6111ZM46.6111 42.7741V44.711H50.6111V42.7741H46.6111ZM46.6111 44.711V50.5519H50.6111V44.711H46.6111ZM46.6111 50.5519C46.6111 57.0048 41.4528 62.163 35 62.163V66.163C43.6619 66.163 50.6111 59.214 50.6111 50.5519H46.6111ZM35 62.163C28.5473 62.163 23.3889 57.0048 23.3889 50.5519H19.3889C19.3889 59.214 26.3382 66.163 35 66.163V62.163ZM23.3889 50.5519V44.711H19.3889V50.5519H23.3889ZM23.3889 44.711V42.7741H19.3889V44.711H23.3889ZM23.3889 42.7741V25.2815H19.3889V42.7741H23.3889ZM19.3889 25.2815C19.3889 25.285 19.3889 25.304 19.3891 25.3235C19.3893 25.3413 19.39 25.3875 19.3937 25.4444C19.3969 25.4931 19.406 25.6148 19.44 25.7651C19.4705 25.8996 19.5546 26.2169 19.8031 26.5425C20.1011 26.9329 20.5333 27.2021 21.0194 27.2955C21.4239 27.3732 21.7465 27.3056 21.8741 27.2746C22.0165 27.2401 22.124 27.197 22.1551 27.1846C22.1771 27.1757 22.1948 27.1682 22.204 27.1643C22.2129 27.1604 22.2211 27.1569 22.2217 27.1566C22.2276 27.154 22.1896 27.1709 22.1408 27.1888C22.0896 27.2076 22.0321 27.2257 21.9694 27.2409C21.8419 27.2719 21.7315 27.2815 21.6471 27.2815V23.2815C21.4337 23.2815 21.2264 23.3052 21.0263 23.3537C20.8185 23.4041 20.6675 23.4705 20.6207 23.4909C20.5352 23.5283 20.7236 23.4377 20.9309 23.3874C21.0541 23.3576 21.3729 23.2903 21.7742 23.3674C22.2572 23.4602 22.6868 23.7278 22.9828 24.1156C23.2293 24.4386 23.3119 24.7521 23.3412 24.8816C23.3741 25.027 23.3825 25.1424 23.3852 25.1833C23.39 25.2569 23.3889 25.3257 23.3889 25.2815H19.3889ZM35 39.8093C33.3586 39.8093 32.0278 41.14 32.0278 42.7815H36.0278C36.0278 43.3492 35.5677 43.8093 35 43.8093V39.8093ZM32.0278 42.7815C32.0278 44.4234 33.3589 45.7537 35 45.7537V41.7537C35.5675 41.7537 36.0278 42.2137 36.0278 42.7815H32.0278ZM35 45.7537C36.6412 45.7537 37.9722 44.4234 37.9722 42.7815H33.9722C33.9722 42.2137 34.4326 41.7537 35 41.7537V45.7537ZM37.9722 42.7815C37.9722 41.14 36.6415 39.8093 35 39.8093V43.8093C34.4323 43.8093 33.9722 43.3492 33.9722 42.7815H37.9722ZM30.84 42.4727L29.4653 43.8475L32.2938 46.6758L33.6685 45.301L30.84 42.4727ZM29.4653 46.6759C31.0085 48.219 33.0943 48.8423 35.0041 48.8529L35.0262 44.8529C33.9094 44.8468 32.9265 44.4801 32.2938 43.8474L29.4653 46.6759ZM35.0152 48.8529C36.9086 48.8529 39.0534 48.2583 40.6022 46.6071L37.6847 43.8706C37.0996 44.4944 36.1485 44.8529 35.0152 44.8529V48.8529ZM40.5119 43.7803L39.0952 42.4511L36.3583 45.3682L37.775 46.6974L40.5119 43.7803ZM36.2679 42.5415C36.1543 42.6627 35.7251 42.9122 35.0375 42.9085L35.0158 46.9084C36.4815 46.9164 38.1084 46.4264 39.1856 45.2778L36.2679 42.5415ZM35.0267 42.9085C34.36 42.9085 33.8458 42.6499 33.6683 42.4724L30.8403 45.3013C31.9223 46.383 33.5397 46.9085 35.0267 46.9085V42.9085ZM28.0944 45.2259L26.7197 46.6005L29.5479 49.4291L30.9226 48.0545L28.0944 45.2259ZM26.7197 49.4291C28.9449 51.654 32.0643 52.6415 35.009 52.6617L35.0365 48.6618C32.8922 48.6471 30.8694 47.9218 29.5479 46.6005L26.7197 49.4291ZM35.0075 52.6617C37.9501 52.6842 41.123 51.7354 43.3291 49.3828L40.4112 46.6467C39.1631 47.9777 37.1848 48.6783 35.0381 48.6619L35.0075 52.6617ZM43.2386 46.5563L41.8182 45.2235L39.0812 48.1405L40.5016 49.4733L43.2386 46.5563ZM38.9908 45.3139C38.2161 46.14 36.7639 46.7292 35.0518 46.7174L35.0241 50.7173C37.5279 50.7346 40.175 49.8987 41.9086 48.0501L38.9908 45.3139ZM35.0564 46.7174C33.3401 46.7016 31.7846 46.0877 30.9226 45.2259L28.0944 48.0545C29.8656 49.8255 32.5199 50.6942 35.0195 50.7173L35.0564 46.7174ZM25.3352 47.9811L23.9641 49.3559L26.7964 52.1804L28.1675 50.8056L25.3352 47.9811ZM23.9672 52.1835C26.8825 55.0939 31.0475 56.4265 35.0271 56.4481L35.0488 52.4482C31.8643 52.4309 28.7999 51.356 26.7933 49.3527L23.9672 52.1835ZM35.0271 56.4481C39.0052 56.4697 43.2062 55.1762 46.0785 52.1138L43.161 49.3774C41.245 51.4203 38.2352 52.4655 35.0488 52.4482L35.0271 56.4481ZM45.9885 49.2873L44.5719 47.9578L41.8346 50.8745L43.2511 52.2039L45.9885 49.2873ZM41.7445 48.0479C40.3011 49.5868 37.8128 50.5189 35.0604 50.5037L35.0384 54.5037C38.5779 54.5231 42.2597 53.3455 44.662 50.7844L41.7445 48.0479ZM35.0618 50.5037C32.3093 50.4867 29.7108 49.5218 28.1643 47.9779L25.3383 50.8088C27.7969 53.2631 31.4977 54.4818 35.0371 54.5037L35.0618 50.5037Z" fill="#197FE3" mask="url(#path-1-outside-1_40_483)"/>
</svg>
