<svg width="82" height="82" viewBox="0 0 82 82" fill="none" xmlns="http://www.w3.org/2000/svg">
<path opacity="0.34" d="M28.6345 41.0003L36.8688 49.2687L53.3713 32.7319" stroke="#197FE3" stroke-width="3" stroke-linecap="round" stroke-linejoin="round"/>
<path d="M36.7322 8.37021C39.0897 6.35438 42.9505 6.35438 45.3422 8.37021L50.7405 13.0169C51.7655 13.9052 53.6788 14.6227 55.0455 14.6227H60.8538C64.4755 14.6227 67.448 17.5952 67.448 21.2169V27.0252C67.448 28.3577 68.1655 30.3052 69.0538 31.3302L73.7005 36.7285C75.7163 39.086 75.7163 42.9468 73.7005 45.3385L69.0538 50.7368C68.1655 51.7618 67.448 53.6751 67.448 55.0418V60.8501C67.448 64.4718 64.4755 67.4443 60.8538 67.4443H55.0455C53.713 67.4443 51.7655 68.1618 50.7405 69.0501L45.3422 73.6968C42.9847 75.7126 39.1238 75.7126 36.7322 73.6968L31.3337 69.0501C30.3087 68.1618 28.3954 67.4443 27.0287 67.4443H21.1179C17.4962 67.4443 14.5237 64.4718 14.5237 60.8501V55.0076C14.5237 53.6751 13.8062 51.7618 12.952 50.7368L8.33952 45.3043C6.35785 42.9468 6.35785 39.1201 8.33952 36.7626L12.952 31.3302C13.8062 30.3052 14.5237 28.3919 14.5237 27.0594V21.1827C14.5237 17.561 17.4962 14.5885 21.1179 14.5885H27.0287C28.3612 14.5885 30.3087 13.871 31.3337 12.9827L36.7322 8.37021Z" stroke="#197FE3" stroke-width="3" stroke-linecap="round" stroke-linejoin="round"/>
</svg>
