<svg width="64" height="64" viewBox="0 0 64 64" fill="none" xmlns="http://www.w3.org/2000/svg">
<g clip-path="url(#clip0_40_438)">
<path d="M49.675 15.92C47.4364 13.4543 44.706 11.485 41.6599 10.139C38.6137 8.79294 35.3193 8.10007 31.989 8.10501C24.966 8.10501 18.692 11.125 14.303 15.92H49.675ZM14.303 48.08C18.671 52.898 24.988 55.895 31.989 55.895C35.3189 55.8975 38.6125 55.2035 41.6584 53.8576C44.7042 52.5117 47.4348 50.5438 49.675 48.08H14.303ZM53.38 17.954H10.62C7.8034 17.954 5.10216 19.0729 3.11053 21.0645C1.11889 23.0562 0 25.7574 0 28.574L0 35.426C0 38.2426 1.11889 40.9438 3.11053 42.9355C5.10216 44.9271 7.8034 46.046 10.62 46.046H53.38C54.7746 46.046 56.1556 45.7713 57.4441 45.2376C58.7326 44.7039 59.9033 43.9216 60.8895 42.9355C61.8756 41.9493 62.6579 40.7786 63.1916 39.4901C63.7253 38.2016 64 36.8206 64 35.426V28.574C64 25.7574 62.8811 23.0562 60.8895 21.0645C58.8978 19.0729 56.1966 17.954 53.38 17.954ZM27.514 24.12C28.52 24.12 29.314 24.934 29.314 25.92C29.3111 26.3962 29.1207 26.8521 28.7839 27.1889C28.4471 27.5257 27.9912 27.7161 27.515 27.719C26.509 27.719 25.715 26.905 25.715 25.919C25.7179 25.4428 25.9083 24.9869 26.2451 24.6501C26.5819 24.3134 27.0378 24.1229 27.514 24.12ZM29.056 29.088V39.13H26.016V29.088H29.056ZM17.793 39.13L14.86 29.002L11.926 39.13H9.4L5.48 24.484H8.68L10.8 33.884L13.584 24.484H16.282L19.066 34.119L21.314 24.484H24.247L20.384 39.13H17.793ZM62.908 35.576C62.908 38.069 61.9176 40.46 60.1548 42.2228C58.392 43.9857 56.001 44.976 53.508 44.976H24.088C26.581 44.976 28.972 43.9857 30.7348 42.2228C32.4976 40.46 33.488 38.069 33.488 35.576V28.446C33.488 27.2116 33.7311 25.9892 34.2035 24.8488C34.6759 23.7083 35.3683 22.6721 36.2412 21.7992C38.004 20.0364 40.395 19.046 42.888 19.046H53.508C56.001 19.046 58.392 20.0364 60.1548 21.7992C61.9176 23.562 62.908 25.953 62.908 28.446V35.576ZM38.306 24.484V39.13H41.518V33.392H48.798V30.416H41.518V27.46H49.3V24.484H38.306ZM51.474 29.088V39.13H54.514V29.088H51.474ZM51.196 25.888C51.196 26.894 52.01 27.688 52.996 27.688C53.4722 27.6851 53.9281 27.4947 54.2649 27.1579C54.6017 26.8211 54.7921 26.3652 54.795 25.889C54.795 24.883 53.981 24.089 52.995 24.089C52.009 24.089 51.195 24.881 51.195 25.889L51.196 25.888Z" fill="#197FE3"/>
</g>
<defs>
<clipPath id="clip0_40_438">
<rect width="64" height="64" fill="white"/>
</clipPath>
</defs>
</svg>
