<svg width="60" height="60" viewBox="0 0 60 60" fill="none" xmlns="http://www.w3.org/2000/svg">
<path d="M45 31.44C43.0829 29.5188 40.8056 27.9946 38.2986 26.9547C35.7916 25.9147 33.1042 25.3794 30.39 25.3794C27.6759 25.3794 24.9884 25.9147 22.4814 26.9547C19.9744 27.9946 17.6972 29.5188 15.78 31.44L30.39 46.05L45 31.44Z" fill="#00B67A"/>
<path d="M36.26 44C35.4745 43.2078 34.5398 42.5791 33.51 42.15C32.4802 41.7209 31.3756 41.5 30.26 41.5C29.1444 41.5 28.0398 41.7209 27.01 42.15C25.9802 42.5791 25.0456 43.2078 24.26 44L30.26 50L36.26 44Z" stroke="#4A4A55" stroke-width="3" stroke-linecap="round" stroke-linejoin="round"/>
<path d="M43.1099 37.16C41.4252 35.4732 39.4244 34.1349 37.2221 33.2219C35.0198 32.3088 32.659 31.8389 30.2749 31.8389C27.8908 31.8389 25.5301 32.3088 23.3278 33.2219C21.1254 34.1349 19.1247 35.4732 17.4399 37.16L30.2699 50L43.1099 37.16Z" stroke="#4A4A55" stroke-width="3" stroke-linecap="round" stroke-linejoin="round"/>
<path d="M30.2701 49.9999L49.9401 30.3299C47.3631 27.7378 44.299 25.6808 40.9242 24.2772C37.5493 22.8735 33.9302 22.1509 30.2751 22.1509C26.62 22.1509 23.0009 22.8735 19.6261 24.2772C16.2512 25.6808 13.1871 27.7378 10.6101 30.3299L30.2701 49.9999Z" stroke="#4A4A55" stroke-width="3" stroke-linecap="round" stroke-linejoin="round"/>
<path d="M56.8 23.4699C53.318 19.9825 49.1825 17.2158 44.6302 15.3281C40.0779 13.4404 35.1981 12.4688 30.27 12.4688C25.3418 12.4688 20.462 13.4404 15.9097 15.3281C11.3575 17.2158 7.22202 19.9825 3.73999 23.4699L30.27 49.9999L52.51 27.7599" stroke="#4A4A55" stroke-width="3" stroke-linecap="round" stroke-linejoin="round"/>
<path d="M42.8901 47.4799C48.435 47.4799 52.9301 42.9848 52.9301 37.4399C52.9301 31.895 48.435 27.3999 42.8901 27.3999C37.3452 27.3999 32.8501 31.895 32.8501 37.4399C32.8501 42.9848 37.3452 47.4799 42.8901 47.4799Z" fill="#101014"/>
<path d="M42.89 46.5398C46.8113 46.5398 49.99 43.3611 49.99 39.4398C49.99 35.5186 46.8113 32.3398 42.89 32.3398C38.9688 32.3398 35.79 35.5186 35.79 39.4398C35.79 43.3611 38.9688 46.5398 42.89 46.5398Z" fill="#00B67A"/>
<path d="M42.8901 47.4799C48.435 47.4799 52.9301 42.9848 52.9301 37.4399C52.9301 31.895 48.435 27.3999 42.8901 27.3999C37.3452 27.3999 32.8501 31.895 32.8501 37.4399C32.8501 42.9848 37.3452 47.4799 42.8901 47.4799Z" stroke="#4A4A55" stroke-width="3" stroke-miterlimit="10" stroke-linecap="round"/>
<path d="M40.03 34.5801L45.75 40.3001" stroke="#4A4A55" stroke-width="3" stroke-linecap="round" stroke-linejoin="round"/>
<path d="M45.75 34.5801L40.03 40.3001" stroke="#4A4A55" stroke-width="3" stroke-linecap="round" stroke-linejoin="round"/>
</svg>
