<svg width="65" height="58" viewBox="0 0 65 58" fill="none" xmlns="http://www.w3.org/2000/svg">
<path d="M13.2681 2.51605C17.363 0.891063 20.9516 0.0649776 24.2449 0C25.9647 0 27.606 0.189631 29.1416 0.544425C31.4925 1.14839 34.7668 2.90061 35.9883 3.61835L30.0949 23.6573C27.0996 21.7479 23.4812 19.9008 18.59 19.8413C15.321 19.8413 11.773 20.5997 7.65376 22.1325L13.2681 2.51605ZM22.4791 50.597C23.9389 45.6651 27.4462 33.7837 28.4781 30.2303C27.7333 29.7754 26.9479 29.3013 26.1597 28.887C23.1345 27.3352 20.1906 26.547 17.42 26.547C17.0408 26.547 16.6589 26.5659 16.2797 26.5985C12.7264 26.8883 9.49271 27.8201 7.40187 28.5431C6.85473 28.738 6.2861 28.9574 5.70647 29.2012L0 48.8745C3.92706 47.4229 7.38828 46.7242 10.5625 46.7242C15.6839 46.7242 19.4161 48.6227 22.4791 50.597ZM57.2 35.9287C53.4977 37.1339 49.9092 37.7242 46.5861 37.7242C40.4923 37.7242 36.2375 35.7553 33.5427 33.8892L27.7983 53.7223C29.51 54.7054 35.2299 57.7713 39.6147 57.7713C43.1654 57.7713 47.114 56.8694 51.7345 55.017L57.2 35.9287ZM65 9.05662C61.2598 10.511 57.6279 11.2395 54.1396 11.2395C48.3141 11.2395 44.0402 9.2381 41.2534 7.30155L35.4196 27.4029C39.3494 29.9053 43.5526 31.1809 47.9944 31.1809C51.6127 31.1809 55.3529 30.3278 59.1445 28.6108L59.1093 28.4754L59.3558 28.4186L65 9.05662Z" fill="white"/>
</svg>
