<?xml version="1.0" standalone="no"?>
<!DOCTYPE svg PUBLIC "-//W3C//DTD SVG 20010904//EN"
 "http://www.w3.org/TR/2001/REC-SVG-20010904/DTD/svg10.dtd">
<svg version="1.0" xmlns="http://www.w3.org/2000/svg"
 width="976.000000pt" height="976.000000pt" viewBox="0 0 976.000000 976.000000"
 preserveAspectRatio="xMidYMid meet">
<metadata>
Created by potrace 1.14, written by Peter Selinger 2001-2017
</metadata>
<g transform="translate(0.000000,976.000000) scale(0.100000,-0.100000)"
fill="#000000" stroke="none">
<path d="M4619 8876 c-2 -2 -21 -7 -42 -10 -103 -16 -184 -55 -414 -196 -80
-50 -150 -90 -154 -90 -5 0 -9 -4 -9 -10 0 -5 -5 -10 -11 -10 -7 0 -35 -15
-63 -33 -28 -19 -67 -42 -86 -53 -19 -10 -37 -21 -40 -24 -3 -3 -61 -39 -130
-80 -69 -41 -126 -78 -128 -82 -2 -4 -8 -8 -14 -8 -6 0 -30 -13 -55 -30 -24
-16 -46 -30 -48 -30 -2 0 -47 -27 -100 -60 -53 -33 -98 -60 -101 -60 -3 0 -32
-18 -64 -40 -32 -22 -62 -40 -65 -40 -3 0 -38 -21 -78 -46 -40 -26 -83 -53
-96 -62 -45 -27 -140 -120 -190 -184 -55 -69 -130 -240 -146 -333 -4 -22 -9
-51 -12 -65 -3 -14 -6 -423 -7 -910 -1 -957 1 -1003 49 -1145 31 -89 75 -169
140 -253 37 -47 132 -131 202 -177 46 -30 85 -55 87 -55 3 0 49 -28 103 -61
54 -34 114 -71 134 -83 28 -16 323 -195 439 -267 100 -61 322 -196 345 -209
17 -10 90 -54 163 -99 166 -102 249 -138 362 -159 45 -8 215 -8 260 0 88 16
220 69 287 115 15 11 35 23 43 26 8 4 27 15 42 25 72 45 152 92 159 92 5 0 9
4 9 8 0 5 18 17 40 27 22 10 40 22 40 27 0 4 4 8 9 8 5 0 64 34 131 75 67 41
124 75 127 75 2 0 24 14 48 30 24 17 48 30 53 30 6 0 12 3 14 8 4 9 107 72
119 72 5 0 9 4 9 9 0 5 8 11 18 14 9 3 82 47 162 96 80 50 156 96 170 103 14
7 27 15 30 19 3 3 16 12 30 19 122 64 277 199 337 292 52 83 106 209 119 276
2 12 7 34 11 50 11 40 14 1879 4 1932 -5 25 -11 59 -14 75 -11 69 -67 198
-121 280 -84 129 -160 191 -474 381 -90 54 -180 109 -200 122 -20 12 -52 30
-69 39 -18 9 -33 20 -33 25 0 4 -4 8 -9 8 -5 0 -103 57 -218 127 -114 69 -300
182 -413 251 -271 165 -260 159 -364 194 -76 26 -110 31 -207 34 -63 2 -117 2
-120 0z m-126 -2483 c0 -1022 -1 -1867 -2 -1877 -1 -17 -3 -17 -18 -5 -10 8
-29 20 -43 28 -99 56 -456 277 -462 285 -4 6 -8 7 -8 2 0 -5 -8 -2 -17 6 -10
9 -31 23 -48 32 -16 9 -42 24 -57 34 -40 25 -235 144 -277 168 -20 12 -74 45
-121 74 -110 68 -127 78 -194 118 -82 47 -130 95 -162 160 l-29 57 -2 885 c-2
623 1 900 9 935 13 59 46 120 85 157 23 21 255 168 408 258 48 28 200 121 345
210 74 46 145 88 157 94 13 6 23 14 23 19 0 4 4 7 9 7 5 0 96 53 202 118 133
81 196 115 199 106 3 -7 4 -849 3 -1871z m715 1726 c15 -9 79 -49 142 -88 63
-39 123 -74 133 -78 9 -3 17 -9 17 -14 0 -5 6 -9 14 -9 7 0 19 -7 26 -15 7 -8
16 -13 20 -10 4 2 15 -4 25 -15 10 -11 21 -20 26 -20 4 0 36 -18 70 -40 35
-21 93 -57 129 -78 36 -21 102 -62 146 -89 45 -28 85 -52 90 -54 37 -16 219
-136 244 -162 41 -42 83 -123 86 -167 1 -19 3 -37 4 -40 5 -15 2 -219 -3 -227
-6 -9 -53 1 -237 47 -48 13 -376 89 -397 93 -10 2 -29 7 -43 10 -14 3 -64 15
-112 27 -308 71 -439 102 -488 115 -8 2 -83 18 -98 21 -8 1 -16 5 -19 7 -4 5
-6 500 -4 844 l1 81 100 -61 c56 -34 113 -69 128 -78z m-83 -1334 c83 -6 173
-14 235 -21 25 -3 72 -7 105 -10 33 -2 78 -5 100 -8 22 -2 74 -7 115 -11 41
-3 98 -9 125 -11 28 -3 69 -7 92 -9 78 -6 188 -16 218 -20 39 -4 180 -17 222
-19 18 -1 35 -5 39 -9 4 -3 7 -118 7 -254 l0 -248 -129 -27 c-71 -14 -145 -29
-164 -32 -19 -3 -57 -10 -85 -15 -27 -6 -63 -12 -80 -15 -16 -3 -43 -8 -60
-11 -116 -23 -324 -63 -370 -71 -11 -1 -30 -5 -41 -8 -12 -2 -37 -7 -55 -10
-19 -3 -45 -8 -59 -11 -14 -3 -36 -7 -50 -10 -27 -5 -60 -12 -100 -20 -14 -2
-38 -7 -55 -10 -16 -3 -41 -7 -55 -10 -14 -3 -42 -8 -62 -11 l-38 -6 -1 59
c-3 331 0 824 6 832 3 6 20 9 38 6 18 -3 64 -7 102 -10z m1256 -962 c0 -5 2
-16 4 -25 2 -10 -1 -18 -6 -18 -6 0 -7 -5 -3 -11 8 -14 8 -231 0 -277 -8 -42
-47 -119 -78 -152 -27 -30 -70 -60 -118 -85 -19 -10 -37 -21 -40 -24 -5 -7
-198 -123 -215 -130 -5 -2 -12 -7 -15 -10 -3 -3 -18 -14 -35 -24 -171 -101
-220 -132 -223 -139 -2 -4 -8 -8 -14 -8 -5 0 -40 -19 -76 -42 -36 -24 -68 -41
-70 -40 -3 2 -8 0 -11 -5 -3 -5 -82 -56 -176 -112 -93 -56 -203 -123 -243
-148 -41 -25 -76 -43 -79 -40 -5 6 -7 827 -1 831 2 2 242 83 533 180 292 98
539 181 550 186 11 5 45 16 75 25 30 9 62 19 70 22 19 8 36 13 45 13 3 1 24 9
47 20 45 20 77 25 79 13z"/>
<path d="M856 3070 c-3 -14 -8 -45 -12 -70 -3 -25 -8 -54 -10 -64 -2 -11 -6
-42 -9 -69 -3 -28 -7 -53 -9 -56 -2 -3 -7 -31 -10 -62 -4 -31 -9 -67 -11 -80
-3 -13 -7 -41 -10 -64 -14 -98 -12 -95 -53 -78 -119 50 -284 71 -391 49 -109
-22 -194 -107 -262 -261 -11 -25 -48 -169 -55 -215 -3 -19 -8 -48 -12 -65 -12
-60 -5 -345 8 -345 3 0 12 -21 19 -47 40 -134 169 -200 332 -170 59 11 181 63
231 98 l27 20 11 -43 c20 -74 19 -73 109 -73 89 -1 95 1 98 30 7 79 16 141 20
148 3 4 6 30 8 56 2 27 5 57 8 67 3 11 8 42 12 69 3 28 8 59 10 70 3 11 7 38
10 60 3 22 10 67 15 100 5 33 12 80 16 105 3 25 8 54 10 65 2 11 5 36 8 55 11
80 17 118 21 141 2 13 6 42 9 64 4 22 8 51 11 65 7 42 17 103 21 140 2 19 6
46 8 60 3 14 8 43 11 65 3 23 8 52 10 65 8 39 18 112 20 140 0 14 5 31 9 38 9
14 10 14 -121 16 -102 1 -103 1 -107 -24z m-236 -694 c14 -3 26 -5 28 -6 2 -3
6 -4 55 -14 l39 -7 -6 -62 c-3 -34 -8 -73 -11 -87 -5 -24 -12 -70 -20 -135 -9
-73 -17 -121 -21 -135 -3 -8 -8 -35 -10 -60 -2 -25 -6 -54 -8 -65 -3 -11 -5
-28 -5 -37 -1 -21 -137 -75 -212 -83 -30 -3 -66 -7 -82 -9 -15 -2 -45 5 -67
16 -55 28 -71 80 -66 213 3 55 7 115 10 133 3 17 8 44 10 60 9 50 43 157 64
199 20 38 56 72 92 86 15 6 161 1 210 -7z"/>
<path d="M2088 2938 c-7 -3 -15 -5 -19 -2 -11 6 -22 -37 -35 -136 -9 -65 -8
-90 3 -101 6 -6 57 -10 113 -11 113 0 131 8 136 59 4 40 13 103 19 134 9 51
-13 63 -114 64 -51 0 -97 -3 -103 -7z"/>
<path d="M7188 2595 c-2 -2 -26 -5 -55 -9 -136 -16 -236 -78 -307 -189 -19
-30 -38 -66 -42 -81 -3 -14 -10 -26 -15 -26 -5 0 -8 -3 -7 -7 1 -5 -4 -28 -11
-53 -7 -25 -13 -45 -12 -45 1 0 -5 -22 -13 -50 -31 -109 -42 -337 -21 -426 18
-74 23 -87 58 -139 77 -115 262 -138 443 -55 52 24 65 32 100 64 22 20 27 12
41 -59 3 -17 10 -33 15 -36 17 -11 159 -9 168 1 7 9 12 40 25 145 2 14 11 79
20 145 9 66 18 130 19 142 0 13 5 23 9 23 5 0 6 4 2 9 -3 6 -1 38 4 73 16 103
23 153 36 258 3 30 8 62 10 70 2 8 7 39 10 67 l6 53 -48 30 c-44 28 -136 62
-202 75 -50 10 -227 25 -233 20z m185 -216 l57 -12 -6 -54 c-3 -30 -7 -64 -10
-76 -6 -32 -19 -115 -29 -196 -3 -23 -7 -55 -10 -70 -3 -15 -7 -43 -9 -62 -9
-63 -17 -114 -22 -129 -6 -24 -142 -90 -199 -97 -121 -15 -179 2 -205 59 -17
38 -23 195 -10 255 5 21 11 54 14 73 14 89 21 112 57 186 24 51 74 106 98 110
3 0 13 4 21 7 53 24 157 26 253 6z"/>
<path d="M1727 2584 c-1 -1 -18 -5 -39 -8 -68 -11 -170 -58 -246 -115 -40 -29
-47 -23 -55 51 -4 28 -8 52 -10 54 -8 9 -168 7 -176 -2 -8 -8 -13 -30 -26
-124 -3 -19 -8 -51 -11 -70 -3 -19 -7 -46 -9 -60 -2 -14 -6 -38 -9 -55 -3 -16
-8 -52 -11 -80 -4 -27 -9 -63 -11 -80 -3 -16 -7 -41 -9 -55 -2 -14 -9 -59 -16
-100 -6 -41 -13 -86 -15 -100 -1 -14 -3 -27 -4 -30 -1 -3 -2 -8 -1 -12 0 -4
-4 -32 -10 -62 -5 -31 -12 -71 -14 -89 -1 -17 -8 -61 -14 -96 -6 -36 -8 -67
-5 -70 3 -3 54 -6 115 -6 103 0 109 1 110 20 0 11 2 29 4 40 3 11 7 40 11 65
3 25 7 54 9 65 2 11 6 40 10 65 3 25 8 54 9 65 2 11 7 40 10 65 23 147 36 230
41 265 4 22 8 49 10 60 1 11 3 23 4 26 2 10 38 49 45 49 3 0 23 11 44 24 61
40 145 59 258 58 56 -1 107 -2 114 -4 12 -3 16 8 24 72 6 49 16 111 21 137 4
18 0 23 -27 28 -38 6 -117 12 -121 9z"/>
<path d="M3700 2576 c-73 -17 -84 -20 -90 -26 -3 -3 -22 -14 -43 -25 -56 -29
-137 -123 -137 -158 0 -8 -6 -20 -14 -26 -8 -6 -16 -24 -19 -39 -3 -15 -14
-62 -25 -105 -11 -43 -23 -97 -26 -120 -4 -23 -10 -69 -15 -102 -15 -97 -5
-282 17 -340 38 -96 115 -158 212 -169 125 -15 307 -4 440 26 25 5 56 12 69
14 38 8 60 23 59 42 0 17 9 78 18 120 5 23 4 23 -58 17 -35 -4 -76 -9 -93 -11
-16 -3 -103 -6 -191 -8 -182 -4 -213 3 -241 58 -25 49 -19 207 8 190 28 -17
265 -27 326 -14 21 5 50 11 66 14 49 9 131 52 179 95 128 114 163 358 68 473
-30 36 -118 85 -169 95 -62 11 -289 11 -341 -1z m265 -199 c19 -6 42 -18 51
-28 34 -38 17 -139 -33 -191 -29 -30 -110 -68 -153 -71 -17 -1 -30 -4 -30 -7
0 -3 -42 -5 -93 -4 -140 2 -129 -2 -121 47 9 59 8 56 27 112 26 75 76 123 148
143 47 13 162 12 204 -1z"/>
<path d="M5007 2584 c-1 -1 -19 -5 -40 -8 -55 -9 -131 -42 -211 -93 -37 -24
-70 -42 -73 -39 -2 2 -8 29 -12 60 -4 31 -10 59 -14 62 -7 7 -165 6 -176 -1
-5 -2 -14 -46 -21 -97 -7 -51 -14 -102 -16 -113 -2 -10 -6 -37 -9 -60 -4 -22
-8 -51 -10 -65 -2 -14 -7 -43 -9 -65 -3 -22 -7 -49 -10 -60 -2 -11 -7 -45 -11
-75 -5 -30 -9 -62 -11 -70 -1 -8 -5 -36 -8 -61 -4 -26 -9 -58 -12 -70 -4 -23
-9 -56 -20 -129 -3 -19 -7 -51 -10 -70 -9 -68 -14 -95 -19 -122 -3 -16 -2 -29
2 -29 5 -1 56 -2 115 -3 l107 -1 7 45 c4 25 8 54 10 65 3 11 7 38 10 60 2 22
7 52 9 66 4 24 7 42 20 137 3 20 10 66 16 102 6 36 12 76 14 90 7 45 15 104
20 143 5 33 34 77 51 77 3 0 18 8 32 18 34 24 103 50 150 59 53 9 184 10 203
1 25 -11 47 13 54 57 3 23 7 50 9 60 13 70 16 115 9 116 -4 0 -17 2 -28 4 -26
5 -115 12 -118 9z"/>
<path d="M6047 2578 c-118 -22 -220 -96 -271 -195 -27 -55 -71 -194 -81 -260
-3 -21 -8 -50 -10 -63 -14 -65 -19 -134 -19 -236 0 -148 21 -219 84 -283 69
-71 116 -83 314 -77 89 2 172 7 186 10 14 3 45 9 70 12 25 3 48 8 53 11 4 2
19 7 34 9 50 9 60 21 67 76 4 29 9 68 12 85 4 24 2 32 -8 28 -47 -17 -138 -25
-333 -29 -141 -3 -164 -2 -197 15 -43 22 -59 60 -59 140 1 73 6 94 22 92 8 -2
36 -7 64 -12 72 -13 260 -6 329 13 122 34 215 108 260 206 32 70 39 108 39
197 -1 103 -33 167 -105 210 -50 29 -64 35 -120 50 -38 10 -279 11 -331 1z
m273 -205 c41 -17 55 -41 53 -93 -3 -81 -41 -132 -126 -170 -26 -12 -64 -23
-85 -25 -20 -2 -37 -5 -37 -6 0 -1 -42 -2 -92 -3 -51 -1 -93 2 -93 7 0 4 -4 5
-10 2 -28 -17 22 172 56 212 13 15 24 30 24 33 0 8 61 39 95 49 40 11 183 7
215 -6z"/>
<path d="M8015 2576 c-63 -15 -92 -31 -130 -70 -30 -31 -63 -92 -71 -131 -4
-20 -6 -28 -21 -110 -13 -72 -8 -198 9 -230 53 -100 104 -117 351 -120 171 -2
189 -4 202 -21 26 -33 1 -177 -36 -206 -24 -20 -13 -20 -331 -20 l-236 -1 -14
-76 c-15 -84 -13 -88 55 -97 15 -2 39 -6 55 -9 62 -12 178 -18 357 -19 l190
-1 50 29 c28 16 56 37 63 45 22 28 60 117 67 157 3 21 9 53 12 69 2 17 6 68 7
115 3 91 -8 129 -56 181 -24 27 -79 56 -119 63 -13 3 -104 5 -201 5 -196 1
-206 4 -202 62 9 117 23 157 63 178 11 7 125 11 280 12 230 2 261 4 265 18 7
26 19 94 20 119 2 26 -15 33 -109 47 -145 21 -452 28 -520 11z"/>
<path d="M2104 2572 l-90 -3 -14 -92 c-8 -51 -14 -94 -15 -97 -1 -3 -5 -32 -9
-65 -4 -32 -10 -68 -12 -79 -3 -19 -7 -42 -20 -136 -2 -20 -6 -47 -9 -60 -3
-13 -7 -42 -10 -65 -4 -22 -8 -51 -10 -65 -2 -14 -11 -74 -20 -135 -20 -136
-25 -169 -34 -220 -14 -83 -20 -79 107 -80 61 0 112 2 113 5 2 11 7 48 13 100
4 30 9 62 11 70 2 8 7 38 10 65 4 28 8 59 10 70 2 11 6 38 10 60 3 22 11 67
16 100 6 33 12 79 14 101 2 23 7 55 10 70 3 16 8 47 10 69 3 22 7 51 10 65 3
14 8 43 11 65 9 70 12 89 19 135 4 25 8 57 9 73 0 15 5 27 9 27 5 0 6 4 3 9
-8 13 -42 16 -142 13z"/>
<path d="M2414 2572 l-71 -3 13 -57 c7 -31 15 -70 18 -87 2 -16 10 -55 16 -85
6 -30 14 -68 17 -85 2 -16 11 -61 19 -100 16 -71 53 -264 59 -300 2 -11 18
-90 35 -175 18 -85 32 -163 32 -172 -1 -10 5 -21 11 -25 7 -4 71 -8 144 -8
l131 0 128 260 c70 143 165 336 211 429 45 92 88 187 95 210 14 50 19 167 8
185 -5 9 -36 14 -100 15 -100 2 -104 -1 -114 -60 -2 -16 -5 -31 -6 -34 -1 -3
-3 -9 -5 -15 -1 -5 -3 -12 -4 -15 -2 -3 -4 -12 -6 -20 -1 -9 -26 -65 -56 -125
-29 -61 -53 -112 -54 -115 -3 -9 -42 -92 -107 -230 -35 -74 -70 -150 -78 -169
l-14 -34 -13 37 c-7 21 -15 54 -17 74 -14 99 -25 163 -31 172 -2 3 -7 33 -10
65 -4 33 -11 67 -16 76 -4 9 -6 19 -3 22 3 3 1 22 -5 43 -5 22 -12 57 -15 79
-3 22 -10 65 -16 95 -6 30 -13 67 -15 82 -8 60 -13 66 -63 70 -26 1 -79 2
-118 0z"/>
<path d="M8783 2572 c-24 -4 -24 -4 -8 -132 2 -19 7 -56 10 -82 3 -27 8 -69
11 -95 4 -27 8 -61 9 -78 6 -54 15 -139 20 -175 5 -33 13 -106 20 -175 17
-172 44 -250 105 -303 35 -29 90 -53 133 -55 23 -2 22 -9 -14 -75 -75 -136
-145 -221 -250 -305 l-46 -37 0 -80 c-1 -87 0 -88 58 -69 118 37 265 150 339
259 8 12 20 28 25 34 13 16 34 48 42 66 4 8 10 17 14 20 8 6 189 382 189 394
0 2 20 46 44 98 23 51 49 110 57 131 7 20 17 37 21 37 4 0 8 5 8 11 0 6 6 25
14 42 49 109 66 149 66 157 0 6 4 10 10 10 5 0 12 16 16 35 3 19 10 35 15 35
5 0 9 9 9 19 0 11 4 22 9 25 28 18 63 233 45 279 -3 9 -34 13 -104 12 -55 0
-100 -2 -101 -5 -1 -7 -4 -24 -19 -95 -7 -33 -15 -64 -18 -70 -4 -5 -7 -14 -8
-20 -1 -5 -21 -50 -44 -100 -39 -83 -61 -132 -65 -145 -1 -3 -17 -39 -36 -80
-19 -41 -64 -139 -99 -218 -39 -86 -71 -144 -82 -148 -21 -6 -74 20 -87 44 -5
9 -12 49 -16 87 -4 39 -9 81 -11 95 -2 14 -6 54 -9 90 -3 36 -8 81 -11 100 -4
19 -8 53 -9 75 -4 40 -10 99 -20 185 -8 68 -16 152 -18 178 -1 16 -7 22 -26
22 -15 1 -57 2 -96 3 -38 1 -80 1 -92 -1z"/>
</g>
</svg>
